M48
;DRILL file {Pcbnew (2013-07-07 BZR 4022)-stable} date 12/17/2014 10:58:21 AM
;FORMAT={-:-/ absolute / inch / decimal}
FMAT,2
INCH,TZ
T1C0.025
T2C0.032
T3C0.036
T4C0.036
T5C0.040
T6C0.045
T7C0.049
T8C0.106
T9C0.157
%
G90
G05
M72
T1
X4.9449Y-5.1417
X4.9528Y-5.2362
X4.9685Y-5.3465
X5.2087Y-5.437
X5.2205Y-5.5512
X5.3937Y-7.1339
X5.4764Y-7.1575
X6.1742Y-7.063
X6.2913Y-7.0207
X6.4114Y-6.9813
X6.5364Y-6.9331
X6.6801Y-6.8799
X6.8563Y-6.8268
X7.0413Y-6.7677
X7.378Y-8.3169
T2
X3.437Y-3.898
X3.437Y-3.998
X4.3146Y-7.1925
X4.3146Y-7.4925
X4.4146Y-7.1925
X4.4146Y-7.4925
X4.5146Y-7.1925
X4.5146Y-7.4925
X4.6146Y-7.1925
X4.6146Y-7.4925
X4.7146Y-7.1925
X4.7146Y-7.4925
X4.8146Y-7.1925
X4.8146Y-7.4925
X4.9146Y-7.1925
X4.9146Y-7.4925
X5.0146Y-7.1925
X5.0146Y-7.4925
X5.1146Y-7.1925
X5.1146Y-7.4925
X5.9689Y-7.1925
X5.9689Y-7.4925
X6.0689Y-7.1925
X6.0689Y-7.4925
X6.1689Y-7.1925
X6.1689Y-7.4925
X6.2689Y-7.1925
X6.2689Y-7.4925
X6.3689Y-7.1925
X6.3689Y-7.4925
X6.4689Y-7.1925
X6.4689Y-7.4925
X6.5689Y-7.1925
X6.5689Y-7.4925
X6.6689Y-7.1925
X6.6689Y-7.4925
X9.0453Y-3.8575
X9.0453Y-3.9575
T3
X6.3378Y-5.0898
X6.3378Y-5.1898
X6.3378Y-5.2898
X6.3378Y-5.3898
X6.3378Y-5.4898
X6.3378Y-5.5898
X6.3378Y-5.6898
X6.3378Y-5.7898
X6.3378Y-5.8898
X6.3378Y-5.9898
X6.3378Y-6.0898
X6.3378Y-6.1898
X6.3378Y-6.2898
X6.3378Y-6.3898
X6.3378Y-6.4898
X6.3378Y-6.5898
X6.4378Y-5.0898
X6.4378Y-5.1898
X6.4378Y-5.2898
X6.4378Y-5.3898
X6.4378Y-5.4898
X6.4378Y-5.5898
X6.4378Y-5.6898
X6.4378Y-5.7898
X6.4378Y-5.8898
X6.4378Y-5.9898
X6.4378Y-6.0898
X6.4378Y-6.1898
X6.4378Y-6.2898
X6.4378Y-6.3898
X6.4378Y-6.4898
X6.4378Y-6.5898
T4
X2.9028Y-4.9874
X2.9028Y-5.0874
X2.9028Y-5.1874
X2.9028Y-5.2874
X2.9028Y-5.3874
X2.9028Y-5.4874
X2.9028Y-5.5874
X2.9028Y-5.6874
X2.9028Y-5.7874
X2.9028Y-5.8874
X2.9028Y-5.9874
X2.9028Y-6.0874
X2.9028Y-6.1874
X2.9028Y-6.2874
X2.9028Y-6.3874
X2.9028Y-6.4874
X2.9028Y-6.5874
X3.0028Y-4.9874
X3.0028Y-5.0874
X3.0028Y-5.1874
X3.0028Y-5.2874
X3.0028Y-5.3874
X3.0028Y-5.4874
X3.0028Y-5.5874
X3.0028Y-5.6874
X3.0028Y-5.7874
X3.0028Y-5.8874
X3.0028Y-5.9874
X3.0028Y-6.0874
X3.0028Y-6.1874
X3.0028Y-6.2874
X3.0028Y-6.3874
X3.0028Y-6.4874
X3.0028Y-6.5874
X4.0213Y-3.9319
X4.0213Y-8.1445
X4.2213Y-3.9319
X4.2213Y-8.1445
X4.4213Y-3.9319
X4.4213Y-8.1445
X4.6213Y-3.9319
X4.6213Y-8.1445
X4.8213Y-3.9319
X4.8213Y-8.1445
X7.6039Y-3.9319
X7.6039Y-8.1445
X7.8039Y-3.9319
X7.8039Y-8.1445
X8.0039Y-3.9319
X8.0039Y-8.1445
X8.2039Y-3.9319
X8.2039Y-8.1445
X8.4039Y-3.9319
X8.4039Y-8.1445
X9.3988Y-4.9874
X9.3988Y-5.0874
X9.3988Y-5.1874
X9.3988Y-5.2874
X9.3988Y-5.3874
X9.3988Y-5.4874
X9.3988Y-5.5874
X9.3988Y-5.6874
X9.3988Y-5.7874
X9.3988Y-5.8874
X9.3988Y-5.9874
X9.3988Y-6.0874
X9.3988Y-6.1874
X9.3988Y-6.2874
X9.3988Y-6.3874
X9.3988Y-6.4874
X9.3988Y-6.5874
X9.4988Y-4.9874
X9.4988Y-5.0874
X9.4988Y-5.1874
X9.4988Y-5.2874
X9.4988Y-5.3874
X9.4988Y-5.4874
X9.4988Y-5.5874
X9.4988Y-5.6874
X9.4988Y-5.7874
X9.4988Y-5.8874
X9.4988Y-5.9874
X9.4988Y-6.0874
X9.4988Y-6.1874
X9.4988Y-6.2874
X9.4988Y-6.3874
X9.4988Y-6.4874
X9.4988Y-6.5874
T5
X3.1299Y-7.8429
X3.1299Y-7.9429
X3.1299Y-8.0429
X5.0189Y-7.7362
X5.1189Y-7.7362
X6.574Y-7.7559
X6.674Y-7.7559
X9.4193Y-7.8429
X9.4193Y-7.9429
X9.4193Y-8.0429
T6
X3.5433Y-7.2394
X3.5433Y-7.8394
X4.0256Y-4.2374
X4.0256Y-4.8374
X4.2224Y-4.2374
X4.2224Y-4.8374
X4.626Y-4.2374
X4.626Y-4.8374
X4.8228Y-4.2374
X4.8228Y-4.8374
X7.3917Y-7.2394
X7.3917Y-7.8394
X7.8051Y-7.2394
X7.8051Y-7.8394
X8.2185Y-7.2394
X8.2185Y-7.8394
X8.5827Y-7.2394
X8.5827Y-7.8394
X8.9862Y-7.2394
X8.9862Y-7.8394
T7
X2.9094Y-3.837
X2.9094Y-4.037
X9.5236Y-3.837
X9.5236Y-4.037
T8
X2.9428Y-4.6374
X2.9428Y-6.9374
X9.4388Y-4.6374
X9.4388Y-6.9374
T9
X2.9441Y-3.4571
X2.948Y-8.6197
X9.4756Y-8.6205
X9.4764Y-3.4772
T0
M30
