G04 (created by PCBNEW (2013-07-07 BZR 4022)-stable) date 12/17/2014 10:58:18 AM*
%MOIN*%
G04 Gerber Fmt 3.4, Leading zero omitted, Abs format*
%FSLAX34Y34*%
G01*
G70*
G90*
G04 APERTURE LIST*
%ADD10C,0.00590551*%
%ADD11R,0.08X0.08*%
%ADD12C,0.08*%
%ADD13R,0.0629921X0.0629921*%
%ADD14C,0.0629921*%
%ADD15R,0.055X0.055*%
%ADD16C,0.055*%
%ADD17C,0.07*%
%ADD18R,0.07X0.07*%
%ADD19C,0.0843701*%
%ADD20R,0.06X0.06*%
%ADD21C,0.06*%
%ADD22R,0.1181X0.1181*%
%ADD23C,0.1181*%
%ADD24C,0.215*%
%ADD25C,0.15748*%
%ADD26C,0.035*%
%ADD27C,0.008*%
%ADD28C,0.02*%
%ADD29C,0.0283465*%
%ADD30C,0.01*%
G04 APERTURE END LIST*
G54D10*
G54D11*
X40212Y-81444D03*
G54D12*
X42212Y-81444D03*
X44212Y-81444D03*
X46212Y-81444D03*
X46212Y-39318D03*
X44212Y-39318D03*
X42212Y-39318D03*
X40212Y-39318D03*
X48212Y-81444D03*
X48212Y-39318D03*
G54D13*
X43145Y-71925D03*
G54D14*
X44145Y-71925D03*
X45145Y-71925D03*
X46145Y-71925D03*
X47145Y-71925D03*
X48145Y-71925D03*
X49145Y-71925D03*
X50145Y-71925D03*
X51145Y-71925D03*
X51145Y-74925D03*
X50145Y-74925D03*
X49145Y-74925D03*
X48145Y-74925D03*
X47145Y-74925D03*
X46145Y-74925D03*
X45145Y-74925D03*
X44145Y-74925D03*
X43145Y-74925D03*
G54D15*
X59688Y-71925D03*
G54D16*
X60688Y-71925D03*
X61688Y-71925D03*
X62688Y-71925D03*
X63688Y-71925D03*
X64688Y-71925D03*
X65688Y-71925D03*
X66688Y-71925D03*
X66688Y-74925D03*
X65688Y-74925D03*
X64688Y-74925D03*
X63688Y-74925D03*
X62688Y-74925D03*
X61688Y-74925D03*
X60688Y-74925D03*
X59688Y-74925D03*
G54D17*
X31299Y-78429D03*
X31299Y-79429D03*
G54D18*
X31299Y-80429D03*
G54D17*
X94192Y-78429D03*
X94192Y-79429D03*
G54D18*
X94192Y-80429D03*
G54D16*
X90452Y-38574D03*
X90452Y-39574D03*
X34370Y-39980D03*
X34370Y-38980D03*
G54D11*
X76039Y-81444D03*
G54D12*
X78039Y-81444D03*
X80039Y-81444D03*
X82039Y-81444D03*
X82039Y-39318D03*
X80039Y-39318D03*
X78039Y-39318D03*
X76039Y-39318D03*
X84039Y-81444D03*
X84039Y-39318D03*
G54D19*
X35433Y-78393D03*
X35433Y-72393D03*
G54D20*
X66740Y-77559D03*
G54D21*
X65740Y-77559D03*
G54D19*
X40255Y-48374D03*
X40255Y-42374D03*
X89862Y-78393D03*
X89862Y-72393D03*
X85826Y-72393D03*
X85826Y-78393D03*
X42224Y-48374D03*
X42224Y-42374D03*
X73917Y-72393D03*
X73917Y-78393D03*
X78051Y-72393D03*
X78051Y-78393D03*
X82185Y-72393D03*
X82185Y-78393D03*
X48228Y-48374D03*
X48228Y-42374D03*
X46259Y-48374D03*
X46259Y-42374D03*
G54D20*
X51188Y-77362D03*
G54D21*
X50188Y-77362D03*
G54D22*
X95236Y-38370D03*
G54D23*
X95236Y-40370D03*
G54D22*
X29094Y-40370D03*
G54D23*
X29094Y-38370D03*
G54D20*
X29027Y-65874D03*
G54D21*
X30027Y-65874D03*
X29027Y-64874D03*
X30027Y-64874D03*
X29027Y-63874D03*
X30027Y-63874D03*
X29027Y-62874D03*
X30027Y-62874D03*
X29027Y-61874D03*
X30027Y-61874D03*
X29027Y-60874D03*
X30027Y-60874D03*
X29027Y-59874D03*
X30027Y-59874D03*
X29027Y-58874D03*
X30027Y-58874D03*
X29027Y-57874D03*
X30027Y-57874D03*
X29027Y-56874D03*
X30027Y-56874D03*
G54D24*
X29427Y-69374D03*
G54D21*
X29027Y-55874D03*
X30027Y-55874D03*
X29027Y-54874D03*
X30027Y-54874D03*
X29027Y-53874D03*
X30027Y-53874D03*
X29027Y-52874D03*
X30027Y-52874D03*
X29027Y-51874D03*
X30027Y-51874D03*
X29027Y-50874D03*
X30027Y-50874D03*
X29027Y-49874D03*
X30027Y-49874D03*
G54D24*
X29427Y-46374D03*
G54D20*
X93988Y-65874D03*
G54D21*
X94988Y-65874D03*
X93988Y-64874D03*
X94988Y-64874D03*
X93988Y-63874D03*
X94988Y-63874D03*
X93988Y-62874D03*
X94988Y-62874D03*
X93988Y-61874D03*
X94988Y-61874D03*
X93988Y-60874D03*
X94988Y-60874D03*
X93988Y-59874D03*
X94988Y-59874D03*
X93988Y-58874D03*
X94988Y-58874D03*
X93988Y-57874D03*
X94988Y-57874D03*
X93988Y-56874D03*
X94988Y-56874D03*
G54D24*
X94388Y-69374D03*
G54D21*
X93988Y-55874D03*
X94988Y-55874D03*
X93988Y-54874D03*
X94988Y-54874D03*
X93988Y-53874D03*
X94988Y-53874D03*
X93988Y-52874D03*
X94988Y-52874D03*
X93988Y-51874D03*
X94988Y-51874D03*
X93988Y-50874D03*
X94988Y-50874D03*
X93988Y-49874D03*
X94988Y-49874D03*
G54D24*
X94388Y-46374D03*
G54D20*
X63377Y-65897D03*
G54D21*
X64377Y-65897D03*
X63377Y-60897D03*
X64377Y-64897D03*
X63377Y-59897D03*
X64377Y-63897D03*
X63377Y-58897D03*
X64377Y-62897D03*
X63377Y-57897D03*
X64377Y-61897D03*
X63377Y-56897D03*
X64377Y-60897D03*
X63377Y-55897D03*
X64377Y-59897D03*
X63377Y-54897D03*
X64377Y-58897D03*
X63377Y-53897D03*
X64377Y-57897D03*
X63377Y-52897D03*
X64377Y-56897D03*
X63377Y-51897D03*
X64377Y-55897D03*
X63377Y-50897D03*
X64377Y-54897D03*
X64377Y-53897D03*
X64377Y-52897D03*
X64377Y-50897D03*
X63377Y-64897D03*
X63377Y-63897D03*
X63377Y-62897D03*
X63377Y-61897D03*
X64377Y-51897D03*
G54D25*
X29440Y-34570D03*
X29480Y-86196D03*
X94755Y-86204D03*
X94763Y-34771D03*
G54D26*
X70413Y-67677D03*
X68562Y-68267D03*
X66801Y-68799D03*
X52204Y-55511D03*
X52086Y-54370D03*
X49685Y-53464D03*
X49527Y-52362D03*
X49448Y-51417D03*
X65364Y-69330D03*
X64114Y-69812D03*
X62913Y-70206D03*
X61742Y-70629D03*
X73779Y-83169D03*
X53937Y-71338D03*
X54763Y-71574D03*
G54D27*
X43145Y-71925D02*
X43145Y-71362D01*
X93736Y-67125D02*
X94988Y-65874D01*
X47381Y-67125D02*
X93736Y-67125D01*
X43145Y-71362D02*
X47381Y-67125D01*
X44145Y-71925D02*
X44145Y-71897D01*
X70403Y-67667D02*
X70413Y-67677D01*
X48375Y-67667D02*
X70403Y-67667D01*
X44145Y-71897D02*
X48375Y-67667D01*
X45145Y-71925D02*
X45145Y-71891D01*
X68543Y-68248D02*
X68562Y-68267D01*
X48789Y-68248D02*
X68543Y-68248D01*
X45145Y-71891D02*
X48789Y-68248D01*
X46145Y-71925D02*
X46145Y-71777D01*
X66791Y-68789D02*
X66801Y-68799D01*
X49133Y-68789D02*
X66791Y-68789D01*
X46145Y-71777D02*
X49133Y-68789D01*
X63377Y-65897D02*
X63996Y-66515D01*
X93346Y-66515D02*
X93988Y-65874D01*
X63996Y-66515D02*
X93346Y-66515D01*
X29027Y-65874D02*
X29027Y-66291D01*
X62740Y-66535D02*
X63377Y-65897D01*
X29271Y-66535D02*
X62740Y-66535D01*
X29027Y-66291D02*
X29271Y-66535D01*
X63377Y-56897D02*
X63377Y-56921D01*
X93460Y-57401D02*
X93988Y-56874D01*
X63858Y-57401D02*
X93460Y-57401D01*
X63377Y-56921D02*
X63858Y-57401D01*
X29027Y-56874D02*
X29027Y-57137D01*
X62874Y-57401D02*
X63377Y-56897D01*
X29291Y-57401D02*
X62874Y-57401D01*
X29027Y-57137D02*
X29291Y-57401D01*
X63377Y-55897D02*
X63377Y-55976D01*
X93484Y-56377D02*
X93988Y-55874D01*
X63779Y-56377D02*
X93484Y-56377D01*
X63377Y-55976D02*
X63779Y-56377D01*
X29027Y-55874D02*
X29027Y-56035D01*
X62897Y-56377D02*
X63377Y-55897D01*
X29370Y-56377D02*
X62897Y-56377D01*
X29027Y-56035D02*
X29370Y-56377D01*
X62803Y-55472D02*
X63377Y-54897D01*
X52244Y-55472D02*
X62803Y-55472D01*
X52204Y-55511D02*
X52244Y-55472D01*
X63377Y-54897D02*
X63377Y-54913D01*
X93468Y-55393D02*
X93988Y-54874D01*
X63858Y-55393D02*
X93468Y-55393D01*
X63377Y-54913D02*
X63858Y-55393D01*
X63377Y-53984D02*
X63377Y-53897D01*
X52086Y-54370D02*
X55826Y-54370D01*
X55826Y-54370D02*
X60078Y-54370D01*
X60078Y-54370D02*
X61653Y-54370D01*
X61653Y-54370D02*
X62992Y-54370D01*
X62992Y-54370D02*
X63377Y-53984D01*
X63377Y-53897D02*
X63377Y-54007D01*
X93452Y-54409D02*
X93988Y-53874D01*
X63779Y-54409D02*
X93452Y-54409D01*
X63377Y-54007D02*
X63779Y-54409D01*
X63377Y-52897D02*
X63362Y-52897D01*
X49724Y-53425D02*
X49685Y-53464D01*
X62834Y-53425D02*
X49724Y-53425D01*
X63362Y-52897D02*
X62834Y-53425D01*
X93988Y-52874D02*
X93988Y-52940D01*
X63866Y-53385D02*
X63377Y-52897D01*
X93543Y-53385D02*
X63866Y-53385D01*
X93988Y-52940D02*
X93543Y-53385D01*
X62874Y-52401D02*
X63377Y-51897D01*
X49566Y-52401D02*
X62874Y-52401D01*
X49527Y-52362D02*
X49566Y-52401D01*
X63377Y-51897D02*
X63393Y-51897D01*
X93500Y-52362D02*
X93988Y-51874D01*
X63858Y-52362D02*
X93500Y-52362D01*
X63393Y-51897D02*
X63858Y-52362D01*
X63377Y-50897D02*
X63377Y-51110D01*
X63070Y-51417D02*
X49448Y-51417D01*
X63377Y-51110D02*
X63070Y-51417D01*
X63377Y-50897D02*
X63377Y-50937D01*
X93444Y-51417D02*
X93988Y-50874D01*
X63858Y-51417D02*
X93444Y-51417D01*
X63377Y-50937D02*
X63858Y-51417D01*
X63377Y-64897D02*
X63381Y-64897D01*
X93468Y-65393D02*
X93988Y-64874D01*
X63877Y-65393D02*
X93468Y-65393D01*
X63381Y-64897D02*
X63877Y-65393D01*
X29027Y-64874D02*
X29027Y-65149D01*
X62901Y-65374D02*
X63377Y-64897D01*
X29251Y-65374D02*
X62901Y-65374D01*
X29027Y-65149D02*
X29251Y-65374D01*
X63377Y-63897D02*
X63385Y-63897D01*
X93472Y-64389D02*
X93988Y-63874D01*
X63877Y-64389D02*
X93472Y-64389D01*
X63385Y-63897D02*
X63877Y-64389D01*
X29027Y-63874D02*
X29027Y-64165D01*
X62905Y-64370D02*
X63377Y-63897D01*
X29232Y-64370D02*
X62905Y-64370D01*
X29027Y-64165D02*
X29232Y-64370D01*
X63377Y-62897D02*
X63377Y-62905D01*
X93456Y-63405D02*
X93988Y-62874D01*
X63877Y-63405D02*
X93456Y-63405D01*
X63377Y-62905D02*
X63877Y-63405D01*
X29027Y-62874D02*
X29027Y-63161D01*
X62909Y-63366D02*
X63377Y-62897D01*
X29232Y-63366D02*
X62909Y-63366D01*
X29027Y-63161D02*
X29232Y-63366D01*
X63377Y-61897D02*
X63377Y-61901D01*
X93460Y-62401D02*
X93988Y-61874D01*
X63877Y-62401D02*
X93460Y-62401D01*
X63377Y-61901D02*
X63877Y-62401D01*
X29027Y-61874D02*
X29027Y-62118D01*
X62913Y-62362D02*
X63377Y-61897D01*
X29271Y-62362D02*
X62913Y-62362D01*
X29027Y-62118D02*
X29271Y-62362D01*
X63377Y-60897D02*
X63897Y-61417D01*
X93444Y-61417D02*
X93988Y-60874D01*
X63897Y-61417D02*
X93444Y-61417D01*
X29027Y-60874D02*
X29027Y-61035D01*
X62897Y-61377D02*
X63377Y-60897D01*
X29370Y-61377D02*
X62897Y-61377D01*
X29027Y-61035D02*
X29370Y-61377D01*
X63377Y-59897D02*
X63381Y-59897D01*
X93468Y-60393D02*
X93988Y-59874D01*
X63877Y-60393D02*
X93468Y-60393D01*
X63381Y-59897D02*
X63877Y-60393D01*
X29027Y-59874D02*
X29027Y-60031D01*
X62901Y-60374D02*
X63377Y-59897D01*
X29370Y-60374D02*
X62901Y-60374D01*
X29027Y-60031D02*
X29370Y-60374D01*
X63377Y-58897D02*
X63377Y-58909D01*
X93472Y-59389D02*
X93988Y-58874D01*
X63858Y-59389D02*
X93472Y-59389D01*
X63377Y-58909D02*
X63858Y-59389D01*
X29027Y-58874D02*
X29027Y-59106D01*
X62905Y-59370D02*
X63377Y-58897D01*
X29291Y-59370D02*
X62905Y-59370D01*
X29027Y-59106D02*
X29291Y-59370D01*
X29027Y-57874D02*
X29027Y-58220D01*
X62909Y-58366D02*
X63377Y-57897D01*
X29173Y-58366D02*
X62909Y-58366D01*
X29027Y-58220D02*
X29173Y-58366D01*
X93988Y-57874D02*
X93988Y-58216D01*
X63905Y-58425D02*
X63377Y-57897D01*
X93779Y-58425D02*
X63905Y-58425D01*
X93988Y-58216D02*
X93779Y-58425D01*
X47145Y-71925D02*
X47145Y-71919D01*
X65354Y-69340D02*
X65364Y-69330D01*
X49724Y-69340D02*
X65354Y-69340D01*
X47145Y-71919D02*
X49724Y-69340D01*
X48145Y-71925D02*
X48145Y-71795D01*
X50127Y-69812D02*
X64114Y-69812D01*
X48145Y-71795D02*
X50127Y-69812D01*
X49145Y-71925D02*
X49145Y-71818D01*
X50757Y-70206D02*
X62913Y-70206D01*
X49145Y-71818D02*
X50757Y-70206D01*
X50145Y-71925D02*
X50145Y-71675D01*
X51190Y-70629D02*
X61742Y-70629D01*
X50145Y-71675D02*
X51190Y-70629D01*
G54D28*
X46259Y-42374D02*
X46259Y-39366D01*
X46259Y-39366D02*
X46212Y-39318D01*
G54D29*
X46212Y-39318D02*
X46212Y-39122D01*
X82039Y-40204D02*
X82039Y-39318D01*
X80708Y-41535D02*
X82039Y-40204D01*
X74015Y-41535D02*
X80708Y-41535D01*
X70866Y-38385D02*
X74015Y-41535D01*
X46948Y-38385D02*
X70866Y-38385D01*
X46212Y-39122D02*
X46948Y-38385D01*
G54D28*
X48228Y-42374D02*
X48228Y-39334D01*
X48228Y-39334D02*
X48212Y-39318D01*
G54D29*
X48212Y-39318D02*
X69929Y-39318D01*
X84039Y-40173D02*
X84039Y-39318D01*
X81594Y-42618D02*
X84039Y-40173D01*
X73228Y-42618D02*
X81594Y-42618D01*
X69929Y-39318D02*
X73228Y-42618D01*
G54D28*
X42212Y-81444D02*
X42212Y-82625D01*
X42755Y-83169D02*
X73779Y-83169D01*
X42212Y-82625D02*
X42755Y-83169D01*
X73917Y-78393D02*
X73917Y-79322D01*
X73917Y-79322D02*
X76039Y-81444D01*
X40212Y-81444D02*
X40212Y-82614D01*
X76039Y-82228D02*
X76039Y-81444D01*
X74409Y-83858D02*
X76039Y-82228D01*
X41456Y-83858D02*
X74409Y-83858D01*
X40212Y-82614D02*
X41456Y-83858D01*
X42224Y-42374D02*
X42224Y-39330D01*
X42224Y-39330D02*
X42212Y-39318D01*
G54D29*
X42212Y-39318D02*
X42212Y-38889D01*
X78039Y-39874D02*
X78039Y-39318D01*
X77165Y-40748D02*
X78039Y-39874D01*
X75000Y-40748D02*
X77165Y-40748D01*
X71948Y-37696D02*
X75000Y-40748D01*
X43405Y-37696D02*
X71948Y-37696D01*
X42212Y-38889D02*
X43405Y-37696D01*
X40212Y-39318D02*
X40212Y-37838D01*
X76039Y-38244D02*
X76039Y-39318D01*
X74803Y-37007D02*
X76039Y-38244D01*
X41043Y-37007D02*
X74803Y-37007D01*
X40212Y-37838D02*
X41043Y-37007D01*
X40212Y-39318D02*
X40212Y-42330D01*
X40212Y-42330D02*
X40255Y-42374D01*
G54D28*
X84039Y-81444D02*
X84039Y-78192D01*
X68811Y-81444D02*
X48212Y-81444D01*
X72952Y-77303D02*
X68811Y-81444D01*
X83149Y-77303D02*
X72952Y-77303D01*
X84039Y-78192D02*
X83149Y-77303D01*
X89862Y-78393D02*
X94157Y-78393D01*
X94157Y-78393D02*
X94192Y-78429D01*
X31299Y-79429D02*
X42196Y-79429D01*
X42196Y-79429D02*
X44212Y-81444D01*
X31299Y-78429D02*
X35397Y-78429D01*
X35397Y-78429D02*
X35433Y-78393D01*
X80039Y-81444D02*
X80039Y-81938D01*
X92982Y-79429D02*
X94192Y-79429D01*
X89527Y-82883D02*
X92982Y-79429D01*
X80984Y-82883D02*
X89527Y-82883D01*
X80039Y-81938D02*
X80984Y-82883D01*
X50145Y-74925D02*
X50145Y-75578D01*
X84082Y-70649D02*
X85826Y-72393D01*
X73661Y-70649D02*
X84082Y-70649D01*
X68208Y-76102D02*
X73661Y-70649D01*
X50669Y-76102D02*
X68208Y-76102D01*
X50145Y-75578D02*
X50669Y-76102D01*
X47145Y-74925D02*
X47145Y-77519D01*
X67492Y-78818D02*
X73917Y-72393D01*
X48444Y-78818D02*
X67492Y-78818D01*
X47145Y-77519D02*
X48444Y-78818D01*
X43145Y-74925D02*
X43145Y-74295D01*
X53937Y-71417D02*
X53937Y-71338D01*
X51968Y-73385D02*
X53937Y-71417D01*
X44055Y-73385D02*
X51968Y-73385D01*
X43145Y-74295D02*
X44055Y-73385D01*
X44145Y-74925D02*
X44145Y-74437D01*
X52401Y-73937D02*
X54763Y-71574D01*
X44645Y-73937D02*
X52401Y-73937D01*
X44145Y-74437D02*
X44645Y-73937D01*
X45145Y-74925D02*
X45145Y-77862D01*
X78141Y-76437D02*
X82185Y-72393D01*
X72834Y-76437D02*
X78141Y-76437D01*
X68818Y-80452D02*
X72834Y-76437D01*
X47736Y-80452D02*
X68818Y-80452D01*
X45145Y-77862D02*
X47736Y-80452D01*
X46145Y-74925D02*
X46145Y-77681D01*
X74893Y-75551D02*
X78051Y-72393D01*
X72598Y-75551D02*
X74893Y-75551D01*
X68444Y-79704D02*
X72598Y-75551D01*
X48169Y-79704D02*
X68444Y-79704D01*
X46145Y-77681D02*
X48169Y-79704D01*
G54D10*
G36*
X97423Y-87352D02*
X96079Y-87352D01*
X96079Y-40521D01*
X96076Y-40364D01*
X96076Y-38911D01*
X96076Y-37730D01*
X96038Y-37638D01*
X95968Y-37567D01*
X95876Y-37529D01*
X95801Y-37529D01*
X95801Y-34566D01*
X95643Y-34184D01*
X95352Y-33892D01*
X94971Y-33734D01*
X94558Y-33734D01*
X94176Y-33891D01*
X93884Y-34183D01*
X93726Y-34564D01*
X93726Y-34977D01*
X93883Y-35358D01*
X94175Y-35650D01*
X94556Y-35808D01*
X94969Y-35809D01*
X95350Y-35651D01*
X95642Y-35360D01*
X95801Y-34978D01*
X95801Y-34566D01*
X95801Y-37529D01*
X95777Y-37529D01*
X94596Y-37529D01*
X94504Y-37567D01*
X94433Y-37637D01*
X94395Y-37729D01*
X94395Y-37829D01*
X94395Y-39010D01*
X94433Y-39102D01*
X94503Y-39172D01*
X94595Y-39210D01*
X94695Y-39210D01*
X95876Y-39210D01*
X95968Y-39172D01*
X96038Y-39102D01*
X96076Y-39010D01*
X96076Y-38911D01*
X96076Y-40364D01*
X96073Y-40186D01*
X95957Y-39907D01*
X95832Y-39844D01*
X95761Y-39915D01*
X95761Y-39774D01*
X95698Y-39648D01*
X95387Y-39526D01*
X95053Y-39532D01*
X94773Y-39648D01*
X94710Y-39774D01*
X95236Y-40299D01*
X95761Y-39774D01*
X95761Y-39915D01*
X95306Y-40370D01*
X95832Y-40895D01*
X95957Y-40832D01*
X96079Y-40521D01*
X96079Y-87352D01*
X95793Y-87352D01*
X95793Y-85999D01*
X95761Y-85921D01*
X95761Y-40966D01*
X95236Y-40440D01*
X95165Y-40511D01*
X95165Y-40370D01*
X94640Y-39844D01*
X94514Y-39907D01*
X94392Y-40218D01*
X94399Y-40553D01*
X94514Y-40832D01*
X94640Y-40895D01*
X95165Y-40370D01*
X95165Y-40511D01*
X94710Y-40966D01*
X94773Y-41091D01*
X95085Y-41213D01*
X95419Y-41207D01*
X95698Y-41091D01*
X95761Y-40966D01*
X95761Y-85921D01*
X95713Y-85805D01*
X95713Y-69111D01*
X95713Y-46111D01*
X95512Y-45624D01*
X95139Y-45251D01*
X94652Y-45049D01*
X94125Y-45048D01*
X93638Y-45250D01*
X93265Y-45622D01*
X93063Y-46109D01*
X93062Y-46636D01*
X93264Y-47123D01*
X93636Y-47496D01*
X94123Y-47698D01*
X94650Y-47699D01*
X95137Y-47497D01*
X95510Y-47125D01*
X95712Y-46638D01*
X95713Y-46111D01*
X95713Y-69111D01*
X95542Y-68699D01*
X95542Y-55955D01*
X95542Y-54955D01*
X95532Y-54737D01*
X95469Y-54586D01*
X95374Y-54558D01*
X95058Y-54874D01*
X95374Y-55189D01*
X95469Y-55161D01*
X95542Y-54955D01*
X95542Y-55955D01*
X95532Y-55737D01*
X95469Y-55586D01*
X95374Y-55558D01*
X95303Y-55629D01*
X95303Y-55488D01*
X95276Y-55392D01*
X95227Y-55375D01*
X95276Y-55355D01*
X95303Y-55259D01*
X94988Y-54944D01*
X94672Y-55259D01*
X94700Y-55355D01*
X94748Y-55372D01*
X94700Y-55392D01*
X94672Y-55488D01*
X94988Y-55803D01*
X95303Y-55488D01*
X95303Y-55629D01*
X95058Y-55874D01*
X95374Y-56189D01*
X95469Y-56161D01*
X95542Y-55955D01*
X95542Y-68699D01*
X95538Y-68687D01*
X95538Y-65765D01*
X95454Y-65562D01*
X95300Y-65408D01*
X95218Y-65374D01*
X95299Y-65340D01*
X95454Y-65185D01*
X95538Y-64983D01*
X95538Y-64765D01*
X95454Y-64562D01*
X95300Y-64408D01*
X95218Y-64374D01*
X95299Y-64340D01*
X95454Y-64185D01*
X95538Y-63983D01*
X95538Y-63765D01*
X95454Y-63562D01*
X95300Y-63408D01*
X95218Y-63374D01*
X95299Y-63340D01*
X95454Y-63185D01*
X95538Y-62983D01*
X95538Y-62765D01*
X95454Y-62562D01*
X95300Y-62408D01*
X95218Y-62374D01*
X95299Y-62340D01*
X95454Y-62185D01*
X95538Y-61983D01*
X95538Y-61765D01*
X95454Y-61562D01*
X95300Y-61408D01*
X95218Y-61374D01*
X95299Y-61340D01*
X95454Y-61185D01*
X95538Y-60983D01*
X95538Y-60765D01*
X95454Y-60562D01*
X95300Y-60408D01*
X95218Y-60374D01*
X95299Y-60340D01*
X95454Y-60185D01*
X95538Y-59983D01*
X95538Y-59765D01*
X95454Y-59562D01*
X95300Y-59408D01*
X95218Y-59374D01*
X95299Y-59340D01*
X95454Y-59185D01*
X95538Y-58983D01*
X95538Y-58765D01*
X95454Y-58562D01*
X95300Y-58408D01*
X95218Y-58374D01*
X95299Y-58340D01*
X95454Y-58185D01*
X95538Y-57983D01*
X95538Y-57765D01*
X95454Y-57562D01*
X95300Y-57408D01*
X95218Y-57374D01*
X95299Y-57340D01*
X95454Y-57185D01*
X95538Y-56983D01*
X95538Y-56765D01*
X95454Y-56562D01*
X95300Y-56408D01*
X95224Y-56376D01*
X95276Y-56355D01*
X95303Y-56259D01*
X94988Y-55944D01*
X94672Y-56259D01*
X94700Y-56355D01*
X94755Y-56375D01*
X94677Y-56407D01*
X94522Y-56562D01*
X94488Y-56643D01*
X94454Y-56562D01*
X94300Y-56408D01*
X94218Y-56374D01*
X94299Y-56340D01*
X94454Y-56185D01*
X94485Y-56110D01*
X94506Y-56161D01*
X94602Y-56189D01*
X94917Y-55874D01*
X94602Y-55558D01*
X94506Y-55586D01*
X94487Y-55641D01*
X94454Y-55562D01*
X94300Y-55408D01*
X94218Y-55374D01*
X94299Y-55340D01*
X94454Y-55185D01*
X94485Y-55110D01*
X94506Y-55161D01*
X94602Y-55189D01*
X94917Y-54874D01*
X94602Y-54558D01*
X94506Y-54586D01*
X94487Y-54641D01*
X94454Y-54562D01*
X94300Y-54408D01*
X94218Y-54374D01*
X94299Y-54340D01*
X94454Y-54185D01*
X94488Y-54104D01*
X94521Y-54185D01*
X94676Y-54340D01*
X94751Y-54371D01*
X94700Y-54392D01*
X94672Y-54488D01*
X94988Y-54803D01*
X95303Y-54488D01*
X95276Y-54392D01*
X95220Y-54373D01*
X95299Y-54340D01*
X95454Y-54185D01*
X95538Y-53983D01*
X95538Y-53765D01*
X95454Y-53562D01*
X95300Y-53408D01*
X95218Y-53374D01*
X95299Y-53340D01*
X95454Y-53185D01*
X95538Y-52983D01*
X95538Y-52765D01*
X95454Y-52562D01*
X95300Y-52408D01*
X95218Y-52374D01*
X95299Y-52340D01*
X95454Y-52185D01*
X95538Y-51983D01*
X95538Y-51765D01*
X95454Y-51562D01*
X95300Y-51408D01*
X95218Y-51374D01*
X95299Y-51340D01*
X95454Y-51185D01*
X95538Y-50983D01*
X95538Y-50765D01*
X95454Y-50562D01*
X95300Y-50408D01*
X95218Y-50374D01*
X95299Y-50340D01*
X95454Y-50185D01*
X95538Y-49983D01*
X95538Y-49765D01*
X95454Y-49562D01*
X95300Y-49408D01*
X95098Y-49324D01*
X94879Y-49323D01*
X94677Y-49407D01*
X94522Y-49562D01*
X94488Y-49643D01*
X94454Y-49562D01*
X94300Y-49408D01*
X94098Y-49324D01*
X93879Y-49323D01*
X93677Y-49407D01*
X93522Y-49562D01*
X93438Y-49764D01*
X93438Y-49982D01*
X93521Y-50185D01*
X93676Y-50340D01*
X93758Y-50373D01*
X93677Y-50407D01*
X93522Y-50562D01*
X93438Y-50764D01*
X93438Y-50982D01*
X93447Y-51004D01*
X93324Y-51127D01*
X90982Y-51127D01*
X90982Y-39650D01*
X90977Y-39562D01*
X90977Y-38470D01*
X90898Y-38277D01*
X90750Y-38129D01*
X90557Y-38049D01*
X90348Y-38049D01*
X90155Y-38129D01*
X90007Y-38277D01*
X89927Y-38469D01*
X89927Y-38678D01*
X90007Y-38871D01*
X90154Y-39019D01*
X90281Y-39072D01*
X90179Y-39114D01*
X90155Y-39207D01*
X90452Y-39504D01*
X90749Y-39207D01*
X90725Y-39114D01*
X90615Y-39075D01*
X90749Y-39020D01*
X90897Y-38872D01*
X90977Y-38679D01*
X90977Y-38470D01*
X90977Y-39562D01*
X90971Y-39442D01*
X90913Y-39301D01*
X90820Y-39277D01*
X90523Y-39574D01*
X90820Y-39871D01*
X90913Y-39847D01*
X90982Y-39650D01*
X90982Y-51127D01*
X90749Y-51127D01*
X90749Y-39942D01*
X90452Y-39645D01*
X90382Y-39716D01*
X90382Y-39574D01*
X90084Y-39277D01*
X89992Y-39301D01*
X89922Y-39499D01*
X89934Y-39707D01*
X89992Y-39847D01*
X90084Y-39871D01*
X90382Y-39574D01*
X90382Y-39716D01*
X90155Y-39942D01*
X90179Y-40035D01*
X90376Y-40104D01*
X90585Y-40093D01*
X90725Y-40035D01*
X90749Y-39942D01*
X90749Y-51127D01*
X84689Y-51127D01*
X84689Y-39190D01*
X84590Y-38951D01*
X84408Y-38768D01*
X84169Y-38669D01*
X83910Y-38668D01*
X83671Y-38767D01*
X83488Y-38950D01*
X83389Y-39189D01*
X83389Y-39447D01*
X83488Y-39686D01*
X83647Y-39846D01*
X83647Y-40010D01*
X81432Y-42226D01*
X73390Y-42226D01*
X70206Y-39041D01*
X70079Y-38956D01*
X69929Y-38927D01*
X48739Y-38927D01*
X48590Y-38777D01*
X70703Y-38777D01*
X73738Y-41812D01*
X73738Y-41812D01*
X73865Y-41897D01*
X74015Y-41927D01*
X80708Y-41927D01*
X80858Y-41897D01*
X80985Y-41812D01*
X82316Y-40481D01*
X82316Y-40481D01*
X82373Y-40396D01*
X82401Y-40354D01*
X82401Y-40354D01*
X82431Y-40204D01*
X82431Y-40204D01*
X82431Y-39846D01*
X82590Y-39687D01*
X82689Y-39448D01*
X82689Y-39190D01*
X82590Y-38951D01*
X82408Y-38768D01*
X82169Y-38669D01*
X81910Y-38668D01*
X81671Y-38767D01*
X81488Y-38950D01*
X81389Y-39189D01*
X81389Y-39447D01*
X81488Y-39686D01*
X81647Y-39846D01*
X81647Y-40042D01*
X80689Y-41000D01*
X80689Y-39190D01*
X80590Y-38951D01*
X80408Y-38768D01*
X80169Y-38669D01*
X79910Y-38668D01*
X79671Y-38767D01*
X79488Y-38950D01*
X79389Y-39189D01*
X79389Y-39447D01*
X79488Y-39686D01*
X79670Y-39869D01*
X79909Y-39968D01*
X80168Y-39969D01*
X80407Y-39870D01*
X80590Y-39687D01*
X80689Y-39448D01*
X80689Y-39190D01*
X80689Y-41000D01*
X80546Y-41143D01*
X74178Y-41143D01*
X71143Y-38108D01*
X71112Y-38088D01*
X71786Y-38088D01*
X74723Y-41025D01*
X74850Y-41109D01*
X75000Y-41139D01*
X77165Y-41139D01*
X77315Y-41109D01*
X77442Y-41025D01*
X78316Y-40151D01*
X78401Y-40023D01*
X78431Y-39874D01*
X78431Y-39846D01*
X78590Y-39687D01*
X78689Y-39448D01*
X78689Y-39190D01*
X78590Y-38951D01*
X78408Y-38768D01*
X78169Y-38669D01*
X77910Y-38668D01*
X77671Y-38767D01*
X77488Y-38950D01*
X77389Y-39189D01*
X77389Y-39447D01*
X77488Y-39686D01*
X77580Y-39779D01*
X77003Y-40356D01*
X75162Y-40356D01*
X72225Y-37419D01*
X72195Y-37399D01*
X74640Y-37399D01*
X75647Y-38406D01*
X75647Y-38791D01*
X75488Y-38950D01*
X75389Y-39189D01*
X75389Y-39447D01*
X75488Y-39686D01*
X75670Y-39869D01*
X75909Y-39968D01*
X76168Y-39969D01*
X76407Y-39870D01*
X76590Y-39687D01*
X76689Y-39448D01*
X76689Y-39190D01*
X76590Y-38951D01*
X76431Y-38791D01*
X76431Y-38244D01*
X76401Y-38094D01*
X76316Y-37967D01*
X76316Y-37967D01*
X75080Y-36730D01*
X74953Y-36645D01*
X74803Y-36616D01*
X41043Y-36616D01*
X40893Y-36645D01*
X40766Y-36730D01*
X39935Y-37561D01*
X39850Y-37688D01*
X39820Y-37838D01*
X39820Y-38791D01*
X39661Y-38950D01*
X39562Y-39189D01*
X39562Y-39447D01*
X39661Y-39686D01*
X39820Y-39846D01*
X39820Y-41858D01*
X39686Y-41992D01*
X39584Y-42239D01*
X39583Y-42507D01*
X39686Y-42754D01*
X39874Y-42943D01*
X40121Y-43045D01*
X40388Y-43045D01*
X40635Y-42943D01*
X40825Y-42755D01*
X40927Y-42508D01*
X40927Y-42240D01*
X40825Y-41993D01*
X40636Y-41804D01*
X40604Y-41791D01*
X40604Y-39846D01*
X40763Y-39687D01*
X40862Y-39448D01*
X40862Y-39190D01*
X40763Y-38951D01*
X40604Y-38791D01*
X40604Y-38000D01*
X41205Y-37399D01*
X43158Y-37399D01*
X43128Y-37419D01*
X41935Y-38612D01*
X41850Y-38739D01*
X41845Y-38767D01*
X41844Y-38767D01*
X41661Y-38950D01*
X41562Y-39189D01*
X41562Y-39447D01*
X41661Y-39686D01*
X41843Y-39869D01*
X41874Y-39882D01*
X41874Y-41791D01*
X41844Y-41804D01*
X41655Y-41992D01*
X41552Y-42239D01*
X41552Y-42507D01*
X41654Y-42754D01*
X41843Y-42943D01*
X42090Y-43045D01*
X42357Y-43045D01*
X42604Y-42943D01*
X42793Y-42755D01*
X42896Y-42508D01*
X42896Y-42240D01*
X42794Y-41993D01*
X42605Y-41804D01*
X42574Y-41791D01*
X42574Y-39872D01*
X42580Y-39870D01*
X42763Y-39687D01*
X42862Y-39448D01*
X42862Y-39190D01*
X42763Y-38951D01*
X42734Y-38921D01*
X43567Y-38088D01*
X46702Y-38088D01*
X46671Y-38108D01*
X46111Y-38668D01*
X46083Y-38668D01*
X45844Y-38767D01*
X45661Y-38950D01*
X45562Y-39189D01*
X45562Y-39447D01*
X45661Y-39686D01*
X45843Y-39869D01*
X45909Y-39896D01*
X45909Y-41791D01*
X45879Y-41804D01*
X45690Y-41992D01*
X45588Y-42239D01*
X45587Y-42507D01*
X45689Y-42754D01*
X45878Y-42943D01*
X46125Y-43045D01*
X46392Y-43045D01*
X46639Y-42943D01*
X46829Y-42755D01*
X46931Y-42508D01*
X46931Y-42240D01*
X46829Y-41993D01*
X46640Y-41804D01*
X46609Y-41791D01*
X46609Y-39840D01*
X46763Y-39687D01*
X46862Y-39448D01*
X46862Y-39190D01*
X46814Y-39073D01*
X47111Y-38777D01*
X47834Y-38777D01*
X47661Y-38950D01*
X47562Y-39189D01*
X47562Y-39447D01*
X47661Y-39686D01*
X47843Y-39869D01*
X47878Y-39883D01*
X47878Y-41791D01*
X47848Y-41804D01*
X47659Y-41992D01*
X47556Y-42239D01*
X47556Y-42507D01*
X47658Y-42754D01*
X47847Y-42943D01*
X48094Y-43045D01*
X48361Y-43045D01*
X48608Y-42943D01*
X48797Y-42755D01*
X48900Y-42508D01*
X48900Y-42240D01*
X48798Y-41993D01*
X48609Y-41804D01*
X48578Y-41791D01*
X48578Y-39871D01*
X48580Y-39870D01*
X48740Y-39710D01*
X69766Y-39710D01*
X72951Y-42895D01*
X72951Y-42895D01*
X73078Y-42980D01*
X73228Y-43009D01*
X81594Y-43009D01*
X81744Y-42980D01*
X81871Y-42895D01*
X84316Y-40450D01*
X84401Y-40323D01*
X84431Y-40173D01*
X84431Y-40173D01*
X84431Y-39846D01*
X84590Y-39687D01*
X84689Y-39448D01*
X84689Y-39190D01*
X84689Y-51127D01*
X64878Y-51127D01*
X64927Y-51007D01*
X64928Y-50788D01*
X64844Y-50586D01*
X64689Y-50431D01*
X64487Y-50347D01*
X64269Y-50347D01*
X64066Y-50431D01*
X63911Y-50585D01*
X63877Y-50667D01*
X63844Y-50586D01*
X63689Y-50431D01*
X63487Y-50347D01*
X63269Y-50347D01*
X63066Y-50431D01*
X62911Y-50585D01*
X62828Y-50787D01*
X62827Y-51006D01*
X62877Y-51127D01*
X49759Y-51127D01*
X49689Y-51057D01*
X49533Y-50992D01*
X49364Y-50992D01*
X49208Y-51056D01*
X49088Y-51176D01*
X49023Y-51332D01*
X49023Y-51501D01*
X49088Y-51657D01*
X49207Y-51777D01*
X49363Y-51842D01*
X49532Y-51842D01*
X49689Y-51777D01*
X49759Y-51707D01*
X62861Y-51707D01*
X62828Y-51787D01*
X62827Y-52006D01*
X62836Y-52028D01*
X62753Y-52111D01*
X49877Y-52111D01*
X49768Y-52002D01*
X49612Y-51937D01*
X49443Y-51937D01*
X49287Y-52001D01*
X49167Y-52121D01*
X49102Y-52277D01*
X49102Y-52446D01*
X49167Y-52602D01*
X49286Y-52722D01*
X49442Y-52787D01*
X49611Y-52787D01*
X49767Y-52722D01*
X49799Y-52691D01*
X62867Y-52691D01*
X62828Y-52787D01*
X62827Y-53006D01*
X62832Y-53017D01*
X62714Y-53135D01*
X49956Y-53135D01*
X49926Y-53104D01*
X49769Y-53039D01*
X49600Y-53039D01*
X49444Y-53104D01*
X49324Y-53223D01*
X49260Y-53379D01*
X49259Y-53548D01*
X49324Y-53704D01*
X49443Y-53824D01*
X49600Y-53889D01*
X49769Y-53889D01*
X49925Y-53825D01*
X50035Y-53715D01*
X62834Y-53715D01*
X62860Y-53710D01*
X62828Y-53787D01*
X62827Y-54006D01*
X62858Y-54080D01*
X61653Y-54080D01*
X60078Y-54080D01*
X55826Y-54080D01*
X52397Y-54080D01*
X52327Y-54009D01*
X52171Y-53945D01*
X52002Y-53945D01*
X51846Y-54009D01*
X51726Y-54129D01*
X51661Y-54285D01*
X51661Y-54454D01*
X51726Y-54610D01*
X51845Y-54730D01*
X52001Y-54795D01*
X52170Y-54795D01*
X52327Y-54730D01*
X52397Y-54660D01*
X55826Y-54660D01*
X60078Y-54660D01*
X61653Y-54660D01*
X62881Y-54660D01*
X62828Y-54787D01*
X62827Y-55006D01*
X62836Y-55028D01*
X62683Y-55182D01*
X52476Y-55182D01*
X52445Y-55151D01*
X52289Y-55086D01*
X52120Y-55086D01*
X51964Y-55151D01*
X51844Y-55270D01*
X51779Y-55426D01*
X51779Y-55595D01*
X51844Y-55752D01*
X51963Y-55871D01*
X52119Y-55936D01*
X52288Y-55936D01*
X52445Y-55872D01*
X52555Y-55762D01*
X62803Y-55762D01*
X62841Y-55754D01*
X62828Y-55787D01*
X62827Y-56006D01*
X62836Y-56028D01*
X62777Y-56087D01*
X48900Y-56087D01*
X48900Y-48240D01*
X48798Y-47993D01*
X48609Y-47804D01*
X48362Y-47702D01*
X48095Y-47702D01*
X47848Y-47804D01*
X47659Y-47992D01*
X47556Y-48239D01*
X47556Y-48507D01*
X47658Y-48754D01*
X47847Y-48943D01*
X48094Y-49045D01*
X48361Y-49045D01*
X48608Y-48943D01*
X48797Y-48755D01*
X48900Y-48508D01*
X48900Y-48240D01*
X48900Y-56087D01*
X46931Y-56087D01*
X46931Y-48240D01*
X46829Y-47993D01*
X46640Y-47804D01*
X46394Y-47702D01*
X46126Y-47702D01*
X45879Y-47804D01*
X45690Y-47992D01*
X45588Y-48239D01*
X45587Y-48507D01*
X45689Y-48754D01*
X45878Y-48943D01*
X46125Y-49045D01*
X46392Y-49045D01*
X46639Y-48943D01*
X46829Y-48755D01*
X46931Y-48508D01*
X46931Y-48240D01*
X46931Y-56087D01*
X44862Y-56087D01*
X44862Y-39190D01*
X44763Y-38951D01*
X44581Y-38768D01*
X44342Y-38669D01*
X44083Y-38668D01*
X43844Y-38767D01*
X43661Y-38950D01*
X43562Y-39189D01*
X43562Y-39447D01*
X43661Y-39686D01*
X43843Y-39869D01*
X44082Y-39968D01*
X44341Y-39969D01*
X44580Y-39870D01*
X44763Y-39687D01*
X44862Y-39448D01*
X44862Y-39190D01*
X44862Y-56087D01*
X42896Y-56087D01*
X42896Y-48240D01*
X42794Y-47993D01*
X42605Y-47804D01*
X42358Y-47702D01*
X42091Y-47702D01*
X41844Y-47804D01*
X41655Y-47992D01*
X41552Y-48239D01*
X41552Y-48507D01*
X41654Y-48754D01*
X41843Y-48943D01*
X42090Y-49045D01*
X42357Y-49045D01*
X42604Y-48943D01*
X42793Y-48755D01*
X42896Y-48508D01*
X42896Y-48240D01*
X42896Y-56087D01*
X40927Y-56087D01*
X40927Y-48240D01*
X40825Y-47993D01*
X40636Y-47804D01*
X40390Y-47702D01*
X40122Y-47702D01*
X39875Y-47804D01*
X39686Y-47992D01*
X39584Y-48239D01*
X39583Y-48507D01*
X39686Y-48754D01*
X39874Y-48943D01*
X40121Y-49045D01*
X40388Y-49045D01*
X40635Y-48943D01*
X40825Y-48755D01*
X40927Y-48508D01*
X40927Y-48240D01*
X40927Y-56087D01*
X34899Y-56087D01*
X34899Y-40056D01*
X34895Y-39967D01*
X34895Y-38876D01*
X34815Y-38683D01*
X34667Y-38535D01*
X34474Y-38455D01*
X34266Y-38455D01*
X34073Y-38534D01*
X33925Y-38682D01*
X33845Y-38875D01*
X33844Y-39084D01*
X33924Y-39277D01*
X34072Y-39425D01*
X34198Y-39477D01*
X34097Y-39519D01*
X34073Y-39612D01*
X34370Y-39909D01*
X34667Y-39612D01*
X34642Y-39519D01*
X34532Y-39481D01*
X34667Y-39425D01*
X34814Y-39278D01*
X34894Y-39085D01*
X34895Y-38876D01*
X34895Y-39967D01*
X34888Y-39847D01*
X34830Y-39707D01*
X34737Y-39683D01*
X34440Y-39980D01*
X34737Y-40277D01*
X34830Y-40253D01*
X34899Y-40056D01*
X34899Y-56087D01*
X34667Y-56087D01*
X34667Y-40348D01*
X34370Y-40051D01*
X34299Y-40121D01*
X34299Y-39980D01*
X34002Y-39683D01*
X33909Y-39707D01*
X33840Y-39904D01*
X33851Y-40113D01*
X33909Y-40253D01*
X34002Y-40277D01*
X34299Y-39980D01*
X34299Y-40121D01*
X34073Y-40348D01*
X34097Y-40440D01*
X34294Y-40510D01*
X34502Y-40498D01*
X34642Y-40440D01*
X34667Y-40348D01*
X34667Y-56087D01*
X30752Y-56087D01*
X30752Y-46111D01*
X30551Y-45624D01*
X30478Y-45551D01*
X30478Y-34365D01*
X30320Y-33983D01*
X30029Y-33691D01*
X29648Y-33533D01*
X29235Y-33533D01*
X28854Y-33690D01*
X28561Y-33982D01*
X28403Y-34363D01*
X28403Y-34776D01*
X28560Y-35157D01*
X28852Y-35449D01*
X29233Y-35608D01*
X29646Y-35608D01*
X30027Y-35450D01*
X30319Y-35159D01*
X30478Y-34778D01*
X30478Y-34365D01*
X30478Y-45551D01*
X30179Y-45251D01*
X29935Y-45150D01*
X29935Y-38203D01*
X29807Y-37894D01*
X29571Y-37657D01*
X29262Y-37529D01*
X28928Y-37529D01*
X28619Y-37657D01*
X28382Y-37893D01*
X28254Y-38202D01*
X28253Y-38536D01*
X28381Y-38845D01*
X28617Y-39082D01*
X28926Y-39210D01*
X29260Y-39210D01*
X29569Y-39083D01*
X29806Y-38846D01*
X29934Y-38537D01*
X29935Y-38203D01*
X29935Y-45150D01*
X29935Y-45150D01*
X29935Y-41010D01*
X29935Y-39730D01*
X29897Y-39638D01*
X29826Y-39567D01*
X29734Y-39529D01*
X29635Y-39529D01*
X29206Y-39529D01*
X29144Y-39592D01*
X29144Y-40320D01*
X29872Y-40320D01*
X29934Y-40257D01*
X29935Y-39730D01*
X29935Y-41010D01*
X29934Y-40482D01*
X29872Y-40420D01*
X29144Y-40420D01*
X29144Y-41148D01*
X29206Y-41210D01*
X29635Y-41210D01*
X29734Y-41210D01*
X29826Y-41172D01*
X29897Y-41102D01*
X29935Y-41010D01*
X29935Y-45150D01*
X29692Y-45049D01*
X29165Y-45048D01*
X29044Y-45098D01*
X29044Y-41148D01*
X29044Y-40420D01*
X29044Y-40320D01*
X29044Y-39592D01*
X28981Y-39529D01*
X28553Y-39529D01*
X28454Y-39529D01*
X28362Y-39567D01*
X28291Y-39638D01*
X28253Y-39730D01*
X28253Y-40257D01*
X28316Y-40320D01*
X29044Y-40320D01*
X29044Y-40420D01*
X28316Y-40420D01*
X28253Y-40482D01*
X28253Y-41010D01*
X28291Y-41102D01*
X28362Y-41172D01*
X28454Y-41210D01*
X28553Y-41210D01*
X28981Y-41210D01*
X29044Y-41148D01*
X29044Y-45098D01*
X28677Y-45250D01*
X28304Y-45622D01*
X28102Y-46109D01*
X28102Y-46636D01*
X28303Y-47123D01*
X28676Y-47496D01*
X29162Y-47698D01*
X29689Y-47699D01*
X30177Y-47497D01*
X30550Y-47125D01*
X30752Y-46638D01*
X30752Y-46111D01*
X30752Y-56087D01*
X30535Y-56087D01*
X30582Y-55955D01*
X30582Y-54955D01*
X30571Y-54737D01*
X30508Y-54586D01*
X30413Y-54558D01*
X30098Y-54874D01*
X30413Y-55189D01*
X30508Y-55161D01*
X30582Y-54955D01*
X30582Y-55955D01*
X30571Y-55737D01*
X30508Y-55586D01*
X30413Y-55558D01*
X30342Y-55629D01*
X30342Y-55488D01*
X30315Y-55392D01*
X30266Y-55375D01*
X30315Y-55355D01*
X30342Y-55259D01*
X30027Y-54944D01*
X29712Y-55259D01*
X29739Y-55355D01*
X29788Y-55372D01*
X29739Y-55392D01*
X29712Y-55488D01*
X30027Y-55803D01*
X30342Y-55488D01*
X30342Y-55629D01*
X30098Y-55874D01*
X30103Y-55879D01*
X30033Y-55950D01*
X30027Y-55944D01*
X30021Y-55950D01*
X29951Y-55879D01*
X29956Y-55874D01*
X29641Y-55558D01*
X29546Y-55586D01*
X29526Y-55641D01*
X29494Y-55562D01*
X29339Y-55408D01*
X29257Y-55374D01*
X29338Y-55340D01*
X29493Y-55185D01*
X29524Y-55110D01*
X29546Y-55161D01*
X29641Y-55189D01*
X29956Y-54874D01*
X29641Y-54558D01*
X29546Y-54586D01*
X29526Y-54641D01*
X29494Y-54562D01*
X29339Y-54408D01*
X29257Y-54374D01*
X29338Y-54340D01*
X29493Y-54185D01*
X29527Y-54104D01*
X29561Y-54185D01*
X29715Y-54340D01*
X29791Y-54371D01*
X29739Y-54392D01*
X29712Y-54488D01*
X30027Y-54803D01*
X30342Y-54488D01*
X30315Y-54392D01*
X30260Y-54373D01*
X30338Y-54340D01*
X30493Y-54185D01*
X30577Y-53983D01*
X30577Y-53765D01*
X30494Y-53562D01*
X30339Y-53408D01*
X30257Y-53374D01*
X30338Y-53340D01*
X30493Y-53185D01*
X30577Y-52983D01*
X30577Y-52765D01*
X30494Y-52562D01*
X30339Y-52408D01*
X30257Y-52374D01*
X30338Y-52340D01*
X30493Y-52185D01*
X30577Y-51983D01*
X30577Y-51765D01*
X30494Y-51562D01*
X30339Y-51408D01*
X30257Y-51374D01*
X30338Y-51340D01*
X30493Y-51185D01*
X30577Y-50983D01*
X30577Y-50765D01*
X30494Y-50562D01*
X30339Y-50408D01*
X30257Y-50374D01*
X30338Y-50340D01*
X30493Y-50185D01*
X30577Y-49983D01*
X30577Y-49765D01*
X30494Y-49562D01*
X30339Y-49408D01*
X30137Y-49324D01*
X29918Y-49323D01*
X29716Y-49407D01*
X29561Y-49562D01*
X29527Y-49643D01*
X29494Y-49562D01*
X29339Y-49408D01*
X29137Y-49324D01*
X28918Y-49323D01*
X28716Y-49407D01*
X28561Y-49562D01*
X28477Y-49764D01*
X28477Y-49982D01*
X28561Y-50185D01*
X28715Y-50340D01*
X28797Y-50373D01*
X28716Y-50407D01*
X28561Y-50562D01*
X28477Y-50764D01*
X28477Y-50982D01*
X28561Y-51185D01*
X28715Y-51340D01*
X28797Y-51373D01*
X28716Y-51407D01*
X28561Y-51562D01*
X28477Y-51764D01*
X28477Y-51982D01*
X28561Y-52185D01*
X28715Y-52340D01*
X28797Y-52373D01*
X28716Y-52407D01*
X28561Y-52562D01*
X28477Y-52764D01*
X28477Y-52982D01*
X28561Y-53185D01*
X28715Y-53340D01*
X28797Y-53373D01*
X28716Y-53407D01*
X28561Y-53562D01*
X28477Y-53764D01*
X28477Y-53982D01*
X28561Y-54185D01*
X28715Y-54340D01*
X28797Y-54373D01*
X28716Y-54407D01*
X28561Y-54562D01*
X28477Y-54764D01*
X28477Y-54982D01*
X28561Y-55185D01*
X28715Y-55340D01*
X28797Y-55373D01*
X28716Y-55407D01*
X28561Y-55562D01*
X28477Y-55764D01*
X28477Y-55982D01*
X28561Y-56185D01*
X28715Y-56340D01*
X28797Y-56373D01*
X28716Y-56407D01*
X28561Y-56562D01*
X28477Y-56764D01*
X28477Y-56982D01*
X28561Y-57185D01*
X28715Y-57340D01*
X28797Y-57373D01*
X28716Y-57407D01*
X28561Y-57562D01*
X28477Y-57764D01*
X28477Y-57982D01*
X28561Y-58185D01*
X28715Y-58340D01*
X28784Y-58368D01*
X28790Y-58377D01*
X28716Y-58407D01*
X28561Y-58562D01*
X28477Y-58764D01*
X28477Y-58982D01*
X28561Y-59185D01*
X28715Y-59340D01*
X28797Y-59373D01*
X28716Y-59407D01*
X28561Y-59562D01*
X28477Y-59764D01*
X28477Y-59982D01*
X28561Y-60185D01*
X28715Y-60340D01*
X28797Y-60373D01*
X28716Y-60407D01*
X28561Y-60562D01*
X28477Y-60764D01*
X28477Y-60982D01*
X28561Y-61185D01*
X28715Y-61340D01*
X28797Y-61373D01*
X28716Y-61407D01*
X28561Y-61562D01*
X28477Y-61764D01*
X28477Y-61982D01*
X28561Y-62185D01*
X28715Y-62340D01*
X28797Y-62373D01*
X28716Y-62407D01*
X28561Y-62562D01*
X28477Y-62764D01*
X28477Y-62982D01*
X28561Y-63185D01*
X28715Y-63340D01*
X28797Y-63373D01*
X28716Y-63407D01*
X28561Y-63562D01*
X28477Y-63764D01*
X28477Y-63982D01*
X28561Y-64185D01*
X28715Y-64340D01*
X28797Y-64373D01*
X28716Y-64407D01*
X28561Y-64562D01*
X28477Y-64764D01*
X28477Y-64982D01*
X28561Y-65185D01*
X28699Y-65323D01*
X28678Y-65323D01*
X28586Y-65361D01*
X28515Y-65432D01*
X28477Y-65524D01*
X28477Y-65623D01*
X28477Y-66223D01*
X28515Y-66315D01*
X28585Y-66385D01*
X28677Y-66423D01*
X28774Y-66424D01*
X28822Y-66496D01*
X29066Y-66740D01*
X29160Y-66803D01*
X29271Y-66825D01*
X62740Y-66825D01*
X62851Y-66803D01*
X62945Y-66740D01*
X63238Y-66447D01*
X63517Y-66447D01*
X63791Y-66720D01*
X63885Y-66783D01*
X63996Y-66805D01*
X93346Y-66805D01*
X93457Y-66783D01*
X93551Y-66720D01*
X93848Y-66424D01*
X94028Y-66424D01*
X93616Y-66835D01*
X47381Y-66835D01*
X47381Y-66835D01*
X47270Y-66858D01*
X47176Y-66920D01*
X47176Y-66920D01*
X47176Y-66920D01*
X42940Y-71157D01*
X42877Y-71251D01*
X42856Y-71360D01*
X42781Y-71360D01*
X42689Y-71398D01*
X42618Y-71468D01*
X42580Y-71560D01*
X42580Y-71659D01*
X42580Y-72289D01*
X42618Y-72381D01*
X42688Y-72451D01*
X42780Y-72490D01*
X42880Y-72490D01*
X43510Y-72490D01*
X43602Y-72452D01*
X43672Y-72381D01*
X43710Y-72290D01*
X43710Y-72289D01*
X43825Y-72403D01*
X44032Y-72490D01*
X44257Y-72490D01*
X44465Y-72404D01*
X44624Y-72245D01*
X44645Y-72194D01*
X44666Y-72244D01*
X44825Y-72403D01*
X45032Y-72490D01*
X45257Y-72490D01*
X45465Y-72404D01*
X45624Y-72245D01*
X45645Y-72194D01*
X45666Y-72244D01*
X45825Y-72403D01*
X46032Y-72490D01*
X46257Y-72490D01*
X46465Y-72404D01*
X46624Y-72245D01*
X46645Y-72194D01*
X46666Y-72244D01*
X46825Y-72403D01*
X47032Y-72490D01*
X47257Y-72490D01*
X47465Y-72404D01*
X47624Y-72245D01*
X47645Y-72194D01*
X47666Y-72244D01*
X47825Y-72403D01*
X48032Y-72490D01*
X48257Y-72490D01*
X48465Y-72404D01*
X48624Y-72245D01*
X48645Y-72194D01*
X48666Y-72244D01*
X48825Y-72403D01*
X49032Y-72490D01*
X49257Y-72490D01*
X49465Y-72404D01*
X49624Y-72245D01*
X49645Y-72194D01*
X49666Y-72244D01*
X49825Y-72403D01*
X50032Y-72490D01*
X50257Y-72490D01*
X50465Y-72404D01*
X50624Y-72245D01*
X50643Y-72200D01*
X50652Y-72222D01*
X50748Y-72251D01*
X51074Y-71925D01*
X50748Y-71599D01*
X50652Y-71628D01*
X50643Y-71651D01*
X50625Y-71605D01*
X51311Y-70919D01*
X53837Y-70919D01*
X53696Y-70978D01*
X53576Y-71097D01*
X53512Y-71253D01*
X53511Y-71347D01*
X51823Y-73035D01*
X51715Y-73035D01*
X51715Y-72010D01*
X51704Y-71786D01*
X51639Y-71628D01*
X51542Y-71599D01*
X51471Y-71669D01*
X51471Y-71528D01*
X51442Y-71431D01*
X51231Y-71355D01*
X51006Y-71366D01*
X50848Y-71431D01*
X50819Y-71528D01*
X51145Y-71854D01*
X51471Y-71528D01*
X51471Y-71669D01*
X51216Y-71925D01*
X51542Y-72251D01*
X51639Y-72222D01*
X51715Y-72010D01*
X51715Y-73035D01*
X51471Y-73035D01*
X51471Y-72321D01*
X51145Y-71995D01*
X50819Y-72321D01*
X50848Y-72418D01*
X51060Y-72494D01*
X51284Y-72484D01*
X51442Y-72418D01*
X51471Y-72321D01*
X51471Y-73035D01*
X44055Y-73035D01*
X43921Y-73062D01*
X43807Y-73138D01*
X42898Y-74047D01*
X42822Y-74161D01*
X42795Y-74295D01*
X42795Y-74476D01*
X42666Y-74604D01*
X42580Y-74812D01*
X42580Y-75037D01*
X42666Y-75244D01*
X42825Y-75403D01*
X43032Y-75490D01*
X43257Y-75490D01*
X43465Y-75404D01*
X43624Y-75245D01*
X43645Y-75194D01*
X43666Y-75244D01*
X43825Y-75403D01*
X44032Y-75490D01*
X44257Y-75490D01*
X44465Y-75404D01*
X44624Y-75245D01*
X44645Y-75194D01*
X44666Y-75244D01*
X44795Y-75374D01*
X44795Y-77862D01*
X44822Y-77996D01*
X44898Y-78109D01*
X47488Y-80700D01*
X47602Y-80776D01*
X47736Y-80802D01*
X48064Y-80802D01*
X47844Y-80893D01*
X47661Y-81076D01*
X47562Y-81315D01*
X47562Y-81573D01*
X47661Y-81812D01*
X47843Y-81995D01*
X48082Y-82094D01*
X48341Y-82094D01*
X48580Y-81996D01*
X48763Y-81813D01*
X48771Y-81794D01*
X68811Y-81794D01*
X68944Y-81768D01*
X68944Y-81768D01*
X69058Y-81692D01*
X73097Y-77653D01*
X83004Y-77653D01*
X83689Y-78337D01*
X83689Y-80886D01*
X83671Y-80893D01*
X83488Y-81076D01*
X83389Y-81315D01*
X83389Y-81573D01*
X83488Y-81812D01*
X83670Y-81995D01*
X83909Y-82094D01*
X84168Y-82094D01*
X84407Y-81996D01*
X84590Y-81813D01*
X84689Y-81574D01*
X84689Y-81316D01*
X84590Y-81077D01*
X84408Y-80894D01*
X84389Y-80886D01*
X84389Y-78192D01*
X84362Y-78058D01*
X84286Y-77945D01*
X84286Y-77945D01*
X83397Y-77055D01*
X83283Y-76979D01*
X83149Y-76953D01*
X72952Y-76953D01*
X72818Y-76979D01*
X72722Y-77044D01*
X72979Y-76787D01*
X78141Y-76787D01*
X78275Y-76760D01*
X78275Y-76760D01*
X78389Y-76684D01*
X82020Y-73052D01*
X82050Y-73065D01*
X82318Y-73065D01*
X82565Y-72963D01*
X82754Y-72774D01*
X82856Y-72527D01*
X82857Y-72260D01*
X82754Y-72013D01*
X82566Y-71824D01*
X82319Y-71721D01*
X82051Y-71721D01*
X81804Y-71823D01*
X81615Y-72012D01*
X81513Y-72259D01*
X81513Y-72526D01*
X81525Y-72557D01*
X77996Y-76087D01*
X72834Y-76087D01*
X72700Y-76113D01*
X72587Y-76189D01*
X68673Y-80102D01*
X47881Y-80102D01*
X45495Y-77717D01*
X45495Y-75374D01*
X45624Y-75245D01*
X45645Y-75194D01*
X45666Y-75244D01*
X45795Y-75374D01*
X45795Y-77681D01*
X45822Y-77815D01*
X45898Y-77928D01*
X47921Y-79952D01*
X47921Y-79952D01*
X48035Y-80028D01*
X48169Y-80054D01*
X48169Y-80054D01*
X48169Y-80054D01*
X68444Y-80054D01*
X68578Y-80028D01*
X68578Y-80028D01*
X68692Y-79952D01*
X72743Y-75901D01*
X74893Y-75901D01*
X75027Y-75874D01*
X75027Y-75874D01*
X75141Y-75798D01*
X77886Y-73052D01*
X77916Y-73065D01*
X78184Y-73065D01*
X78431Y-72963D01*
X78620Y-72774D01*
X78722Y-72527D01*
X78723Y-72260D01*
X78621Y-72013D01*
X78432Y-71824D01*
X78185Y-71721D01*
X77918Y-71721D01*
X77671Y-71823D01*
X77481Y-72012D01*
X77379Y-72259D01*
X77379Y-72526D01*
X77392Y-72557D01*
X74748Y-75201D01*
X72598Y-75201D01*
X72464Y-75227D01*
X72350Y-75303D01*
X68299Y-79354D01*
X48314Y-79354D01*
X46495Y-77536D01*
X46495Y-75374D01*
X46624Y-75245D01*
X46645Y-75194D01*
X46666Y-75244D01*
X46795Y-75374D01*
X46795Y-77519D01*
X46822Y-77653D01*
X46898Y-77767D01*
X48197Y-79066D01*
X48197Y-79066D01*
X48310Y-79142D01*
X48444Y-79168D01*
X48444Y-79168D01*
X48444Y-79168D01*
X67492Y-79168D01*
X67626Y-79142D01*
X67626Y-79142D01*
X67739Y-79066D01*
X73753Y-73052D01*
X73783Y-73065D01*
X74050Y-73065D01*
X74297Y-72963D01*
X74486Y-72774D01*
X74589Y-72527D01*
X74589Y-72260D01*
X74487Y-72013D01*
X74298Y-71824D01*
X74051Y-71721D01*
X73784Y-71721D01*
X73537Y-71823D01*
X73348Y-72012D01*
X73245Y-72259D01*
X73245Y-72526D01*
X73258Y-72557D01*
X67347Y-78468D01*
X67290Y-78468D01*
X67290Y-77809D01*
X67290Y-77209D01*
X67252Y-77117D01*
X67181Y-77047D01*
X67090Y-77009D01*
X66990Y-77009D01*
X66390Y-77009D01*
X66298Y-77046D01*
X66228Y-77117D01*
X66190Y-77209D01*
X66190Y-77231D01*
X66052Y-77093D01*
X65850Y-77009D01*
X65631Y-77008D01*
X65429Y-77092D01*
X65274Y-77247D01*
X65190Y-77449D01*
X65190Y-77667D01*
X65273Y-77870D01*
X65428Y-78025D01*
X65630Y-78108D01*
X65849Y-78109D01*
X66051Y-78025D01*
X66190Y-77887D01*
X66190Y-77908D01*
X66228Y-78000D01*
X66298Y-78070D01*
X66390Y-78109D01*
X66489Y-78109D01*
X67089Y-78109D01*
X67181Y-78071D01*
X67251Y-78000D01*
X67290Y-77909D01*
X67290Y-77809D01*
X67290Y-78468D01*
X51739Y-78468D01*
X51739Y-77612D01*
X51739Y-77012D01*
X51701Y-76920D01*
X51630Y-76850D01*
X51538Y-76812D01*
X51439Y-76812D01*
X50839Y-76812D01*
X50747Y-76850D01*
X50677Y-76920D01*
X50639Y-77012D01*
X50639Y-77034D01*
X50500Y-76896D01*
X50298Y-76812D01*
X50080Y-76812D01*
X49877Y-76895D01*
X49722Y-77050D01*
X49639Y-77252D01*
X49638Y-77471D01*
X49722Y-77673D01*
X49877Y-77828D01*
X50079Y-77912D01*
X50297Y-77912D01*
X50500Y-77828D01*
X50638Y-77690D01*
X50638Y-77711D01*
X50676Y-77803D01*
X50747Y-77874D01*
X50839Y-77912D01*
X50938Y-77912D01*
X51538Y-77912D01*
X51630Y-77874D01*
X51700Y-77804D01*
X51738Y-77712D01*
X51739Y-77612D01*
X51739Y-78468D01*
X48589Y-78468D01*
X47495Y-77374D01*
X47495Y-75374D01*
X47624Y-75245D01*
X47645Y-75194D01*
X47666Y-75244D01*
X47825Y-75403D01*
X48032Y-75490D01*
X48257Y-75490D01*
X48465Y-75404D01*
X48624Y-75245D01*
X48645Y-75194D01*
X48666Y-75244D01*
X48825Y-75403D01*
X49032Y-75490D01*
X49257Y-75490D01*
X49465Y-75404D01*
X49624Y-75245D01*
X49645Y-75194D01*
X49666Y-75244D01*
X49795Y-75374D01*
X49795Y-75578D01*
X49822Y-75712D01*
X49898Y-75826D01*
X50421Y-76349D01*
X50535Y-76425D01*
X50535Y-76425D01*
X50669Y-76452D01*
X68208Y-76452D01*
X68342Y-76425D01*
X68342Y-76425D01*
X68456Y-76349D01*
X73806Y-70999D01*
X83937Y-70999D01*
X85167Y-72229D01*
X85155Y-72259D01*
X85154Y-72526D01*
X85256Y-72773D01*
X85445Y-72962D01*
X85692Y-73065D01*
X85959Y-73065D01*
X86206Y-72963D01*
X86396Y-72774D01*
X86498Y-72527D01*
X86498Y-72260D01*
X86396Y-72013D01*
X86207Y-71824D01*
X85960Y-71721D01*
X85693Y-71721D01*
X85662Y-71734D01*
X84330Y-70402D01*
X84216Y-70326D01*
X84082Y-70299D01*
X73661Y-70299D01*
X73661Y-70299D01*
X73527Y-70326D01*
X73413Y-70402D01*
X73413Y-70402D01*
X73413Y-70402D01*
X68063Y-75752D01*
X67218Y-75752D01*
X67218Y-72000D01*
X67207Y-71792D01*
X67149Y-71652D01*
X67056Y-71628D01*
X66986Y-71698D01*
X66986Y-71557D01*
X66961Y-71464D01*
X66764Y-71395D01*
X66556Y-71406D01*
X66416Y-71464D01*
X66391Y-71557D01*
X66688Y-71854D01*
X66986Y-71557D01*
X66986Y-71698D01*
X66759Y-71925D01*
X67056Y-72222D01*
X67149Y-72198D01*
X67218Y-72000D01*
X67218Y-75752D01*
X67214Y-75752D01*
X67214Y-74821D01*
X67134Y-74628D01*
X66986Y-74480D01*
X66986Y-74480D01*
X66986Y-72292D01*
X66688Y-71995D01*
X66618Y-72066D01*
X66618Y-71925D01*
X66321Y-71628D01*
X66228Y-71652D01*
X66189Y-71762D01*
X66134Y-71628D01*
X65986Y-71480D01*
X65793Y-71400D01*
X65585Y-71400D01*
X65391Y-71479D01*
X65244Y-71627D01*
X65188Y-71760D01*
X65134Y-71628D01*
X64986Y-71480D01*
X64793Y-71400D01*
X64585Y-71400D01*
X64391Y-71479D01*
X64244Y-71627D01*
X64188Y-71760D01*
X64134Y-71628D01*
X63986Y-71480D01*
X63793Y-71400D01*
X63585Y-71400D01*
X63391Y-71479D01*
X63244Y-71627D01*
X63188Y-71760D01*
X63134Y-71628D01*
X62986Y-71480D01*
X62793Y-71400D01*
X62585Y-71400D01*
X62391Y-71479D01*
X62244Y-71627D01*
X62188Y-71760D01*
X62134Y-71628D01*
X61986Y-71480D01*
X61793Y-71400D01*
X61585Y-71400D01*
X61391Y-71479D01*
X61244Y-71627D01*
X61188Y-71760D01*
X61134Y-71628D01*
X60986Y-71480D01*
X60793Y-71400D01*
X60585Y-71400D01*
X60391Y-71479D01*
X60244Y-71627D01*
X60214Y-71700D01*
X60214Y-71600D01*
X60176Y-71508D01*
X60105Y-71438D01*
X60013Y-71400D01*
X59914Y-71400D01*
X59364Y-71400D01*
X59272Y-71438D01*
X59202Y-71508D01*
X59164Y-71600D01*
X59163Y-71699D01*
X59163Y-72249D01*
X59201Y-72341D01*
X59272Y-72412D01*
X59364Y-72450D01*
X59463Y-72450D01*
X60013Y-72450D01*
X60105Y-72412D01*
X60175Y-72341D01*
X60213Y-72250D01*
X60214Y-72150D01*
X60214Y-72150D01*
X60243Y-72222D01*
X60391Y-72370D01*
X60584Y-72450D01*
X60792Y-72450D01*
X60985Y-72370D01*
X61133Y-72222D01*
X61189Y-72089D01*
X61243Y-72222D01*
X61391Y-72370D01*
X61584Y-72450D01*
X61792Y-72450D01*
X61985Y-72370D01*
X62133Y-72222D01*
X62189Y-72089D01*
X62243Y-72222D01*
X62391Y-72370D01*
X62584Y-72450D01*
X62792Y-72450D01*
X62985Y-72370D01*
X63133Y-72222D01*
X63189Y-72089D01*
X63243Y-72222D01*
X63391Y-72370D01*
X63584Y-72450D01*
X63792Y-72450D01*
X63985Y-72370D01*
X64133Y-72222D01*
X64189Y-72089D01*
X64243Y-72222D01*
X64391Y-72370D01*
X64584Y-72450D01*
X64792Y-72450D01*
X64985Y-72370D01*
X65133Y-72222D01*
X65189Y-72089D01*
X65243Y-72222D01*
X65391Y-72370D01*
X65584Y-72450D01*
X65792Y-72450D01*
X65985Y-72370D01*
X66133Y-72222D01*
X66186Y-72096D01*
X66228Y-72198D01*
X66321Y-72222D01*
X66618Y-71925D01*
X66618Y-72066D01*
X66391Y-72292D01*
X66416Y-72385D01*
X66613Y-72455D01*
X66821Y-72443D01*
X66961Y-72385D01*
X66986Y-72292D01*
X66986Y-74480D01*
X66793Y-74400D01*
X66585Y-74400D01*
X66391Y-74479D01*
X66244Y-74627D01*
X66188Y-74760D01*
X66134Y-74628D01*
X65986Y-74480D01*
X65793Y-74400D01*
X65585Y-74400D01*
X65391Y-74479D01*
X65244Y-74627D01*
X65188Y-74760D01*
X65134Y-74628D01*
X64986Y-74480D01*
X64793Y-74400D01*
X64585Y-74400D01*
X64391Y-74479D01*
X64244Y-74627D01*
X64188Y-74760D01*
X64134Y-74628D01*
X63986Y-74480D01*
X63793Y-74400D01*
X63585Y-74400D01*
X63391Y-74479D01*
X63244Y-74627D01*
X63188Y-74760D01*
X63134Y-74628D01*
X62986Y-74480D01*
X62793Y-74400D01*
X62585Y-74400D01*
X62391Y-74479D01*
X62244Y-74627D01*
X62188Y-74760D01*
X62134Y-74628D01*
X61986Y-74480D01*
X61793Y-74400D01*
X61585Y-74400D01*
X61391Y-74479D01*
X61244Y-74627D01*
X61188Y-74760D01*
X61134Y-74628D01*
X60986Y-74480D01*
X60793Y-74400D01*
X60585Y-74400D01*
X60391Y-74479D01*
X60244Y-74627D01*
X60188Y-74760D01*
X60134Y-74628D01*
X59986Y-74480D01*
X59793Y-74400D01*
X59585Y-74400D01*
X59391Y-74479D01*
X59244Y-74627D01*
X59164Y-74820D01*
X59163Y-75029D01*
X59243Y-75222D01*
X59391Y-75370D01*
X59584Y-75450D01*
X59792Y-75450D01*
X59985Y-75370D01*
X60133Y-75222D01*
X60189Y-75089D01*
X60243Y-75222D01*
X60391Y-75370D01*
X60584Y-75450D01*
X60792Y-75450D01*
X60985Y-75370D01*
X61133Y-75222D01*
X61189Y-75089D01*
X61243Y-75222D01*
X61391Y-75370D01*
X61584Y-75450D01*
X61792Y-75450D01*
X61985Y-75370D01*
X62133Y-75222D01*
X62189Y-75089D01*
X62243Y-75222D01*
X62391Y-75370D01*
X62584Y-75450D01*
X62792Y-75450D01*
X62985Y-75370D01*
X63133Y-75222D01*
X63189Y-75089D01*
X63243Y-75222D01*
X63391Y-75370D01*
X63584Y-75450D01*
X63792Y-75450D01*
X63985Y-75370D01*
X64133Y-75222D01*
X64189Y-75089D01*
X64243Y-75222D01*
X64391Y-75370D01*
X64584Y-75450D01*
X64792Y-75450D01*
X64985Y-75370D01*
X65133Y-75222D01*
X65189Y-75089D01*
X65243Y-75222D01*
X65391Y-75370D01*
X65584Y-75450D01*
X65792Y-75450D01*
X65985Y-75370D01*
X66133Y-75222D01*
X66189Y-75089D01*
X66243Y-75222D01*
X66391Y-75370D01*
X66584Y-75450D01*
X66792Y-75450D01*
X66985Y-75370D01*
X67133Y-75222D01*
X67213Y-75030D01*
X67214Y-74821D01*
X67214Y-75752D01*
X50814Y-75752D01*
X50495Y-75433D01*
X50495Y-75374D01*
X50624Y-75245D01*
X50645Y-75194D01*
X50666Y-75244D01*
X50825Y-75403D01*
X51032Y-75490D01*
X51257Y-75490D01*
X51465Y-75404D01*
X51624Y-75245D01*
X51710Y-75038D01*
X51710Y-74813D01*
X51624Y-74605D01*
X51466Y-74446D01*
X51258Y-74360D01*
X51033Y-74360D01*
X50826Y-74445D01*
X50666Y-74604D01*
X50645Y-74655D01*
X50624Y-74605D01*
X50466Y-74446D01*
X50258Y-74360D01*
X50033Y-74360D01*
X49826Y-74445D01*
X49666Y-74604D01*
X49645Y-74655D01*
X49624Y-74605D01*
X49466Y-74446D01*
X49258Y-74360D01*
X49033Y-74360D01*
X48826Y-74445D01*
X48666Y-74604D01*
X48645Y-74655D01*
X48624Y-74605D01*
X48466Y-74446D01*
X48258Y-74360D01*
X48033Y-74360D01*
X47826Y-74445D01*
X47666Y-74604D01*
X47645Y-74655D01*
X47624Y-74605D01*
X47466Y-74446D01*
X47258Y-74360D01*
X47033Y-74360D01*
X46826Y-74445D01*
X46666Y-74604D01*
X46645Y-74655D01*
X46624Y-74605D01*
X46466Y-74446D01*
X46258Y-74360D01*
X46033Y-74360D01*
X45826Y-74445D01*
X45666Y-74604D01*
X45645Y-74655D01*
X45624Y-74605D01*
X45466Y-74446D01*
X45258Y-74360D01*
X45033Y-74360D01*
X44826Y-74445D01*
X44666Y-74604D01*
X44645Y-74655D01*
X44624Y-74605D01*
X44548Y-74529D01*
X44790Y-74287D01*
X52401Y-74287D01*
X52535Y-74260D01*
X52535Y-74260D01*
X52649Y-74184D01*
X54833Y-71999D01*
X54847Y-71999D01*
X55004Y-71935D01*
X55123Y-71815D01*
X55188Y-71659D01*
X55188Y-71490D01*
X55124Y-71334D01*
X55004Y-71214D01*
X54848Y-71149D01*
X54679Y-71149D01*
X54523Y-71214D01*
X54403Y-71333D01*
X54338Y-71489D01*
X54338Y-71504D01*
X54320Y-71522D01*
X54361Y-71423D01*
X54362Y-71254D01*
X54297Y-71098D01*
X54178Y-70978D01*
X54037Y-70919D01*
X61431Y-70919D01*
X61501Y-70990D01*
X61657Y-71054D01*
X61826Y-71054D01*
X61982Y-70990D01*
X62102Y-70870D01*
X62167Y-70714D01*
X62167Y-70545D01*
X62146Y-70496D01*
X62602Y-70496D01*
X62672Y-70566D01*
X62828Y-70631D01*
X62997Y-70631D01*
X63153Y-70567D01*
X63273Y-70447D01*
X63338Y-70291D01*
X63338Y-70122D01*
X63330Y-70102D01*
X63803Y-70102D01*
X63873Y-70173D01*
X64029Y-70237D01*
X64198Y-70238D01*
X64354Y-70173D01*
X64474Y-70054D01*
X64539Y-69897D01*
X64539Y-69728D01*
X64498Y-69630D01*
X65062Y-69630D01*
X65123Y-69690D01*
X65279Y-69755D01*
X65448Y-69755D01*
X65604Y-69691D01*
X65724Y-69571D01*
X65789Y-69415D01*
X65789Y-69246D01*
X65724Y-69090D01*
X65713Y-69079D01*
X66480Y-69079D01*
X66560Y-69159D01*
X66716Y-69224D01*
X66885Y-69224D01*
X67041Y-69159D01*
X67161Y-69040D01*
X67226Y-68884D01*
X67226Y-68715D01*
X67161Y-68558D01*
X67140Y-68538D01*
X68232Y-68538D01*
X68321Y-68627D01*
X68478Y-68692D01*
X68647Y-68692D01*
X68803Y-68628D01*
X68923Y-68508D01*
X68987Y-68352D01*
X68988Y-68183D01*
X68923Y-68027D01*
X68853Y-67957D01*
X70092Y-67957D01*
X70172Y-68037D01*
X70328Y-68102D01*
X70497Y-68102D01*
X70653Y-68037D01*
X70773Y-67918D01*
X70838Y-67762D01*
X70838Y-67592D01*
X70773Y-67436D01*
X70753Y-67415D01*
X93736Y-67415D01*
X93847Y-67393D01*
X93941Y-67331D01*
X94857Y-66415D01*
X94878Y-66423D01*
X95097Y-66424D01*
X95299Y-66340D01*
X95454Y-66185D01*
X95538Y-65983D01*
X95538Y-65765D01*
X95538Y-68687D01*
X95512Y-68624D01*
X95139Y-68251D01*
X94652Y-68049D01*
X94125Y-68048D01*
X93638Y-68250D01*
X93265Y-68622D01*
X93063Y-69109D01*
X93062Y-69636D01*
X93264Y-70123D01*
X93636Y-70496D01*
X94123Y-70698D01*
X94650Y-70699D01*
X95137Y-70497D01*
X95510Y-70125D01*
X95712Y-69638D01*
X95713Y-69111D01*
X95713Y-85805D01*
X95635Y-85617D01*
X95344Y-85325D01*
X94963Y-85167D01*
X94793Y-85167D01*
X94793Y-79310D01*
X94701Y-79089D01*
X94541Y-78929D01*
X94701Y-78769D01*
X94792Y-78549D01*
X94793Y-78310D01*
X94701Y-78089D01*
X94533Y-77920D01*
X94312Y-77829D01*
X94074Y-77829D01*
X93853Y-77920D01*
X93729Y-78043D01*
X90534Y-78043D01*
X90534Y-72260D01*
X90432Y-72013D01*
X90243Y-71824D01*
X89996Y-71721D01*
X89729Y-71721D01*
X89482Y-71823D01*
X89292Y-72012D01*
X89190Y-72259D01*
X89190Y-72526D01*
X89292Y-72773D01*
X89481Y-72962D01*
X89727Y-73065D01*
X89995Y-73065D01*
X90242Y-72963D01*
X90431Y-72774D01*
X90533Y-72527D01*
X90534Y-72260D01*
X90534Y-78043D01*
X90444Y-78043D01*
X90432Y-78013D01*
X90243Y-77824D01*
X89996Y-77721D01*
X89729Y-77721D01*
X89482Y-77823D01*
X89292Y-78012D01*
X89190Y-78259D01*
X89190Y-78526D01*
X89292Y-78773D01*
X89481Y-78962D01*
X89727Y-79065D01*
X89995Y-79065D01*
X90242Y-78963D01*
X90431Y-78774D01*
X90444Y-78743D01*
X93673Y-78743D01*
X93683Y-78768D01*
X93844Y-78929D01*
X93694Y-79079D01*
X92982Y-79079D01*
X92848Y-79105D01*
X92734Y-79181D01*
X89382Y-82533D01*
X86498Y-82533D01*
X86498Y-78260D01*
X86396Y-78013D01*
X86207Y-77824D01*
X85960Y-77721D01*
X85693Y-77721D01*
X85446Y-77823D01*
X85257Y-78012D01*
X85155Y-78259D01*
X85154Y-78526D01*
X85256Y-78773D01*
X85445Y-78962D01*
X85692Y-79065D01*
X85959Y-79065D01*
X86206Y-78963D01*
X86396Y-78774D01*
X86498Y-78527D01*
X86498Y-78260D01*
X86498Y-82533D01*
X82857Y-82533D01*
X82857Y-78260D01*
X82754Y-78013D01*
X82566Y-77824D01*
X82319Y-77721D01*
X82051Y-77721D01*
X81804Y-77823D01*
X81615Y-78012D01*
X81513Y-78259D01*
X81513Y-78526D01*
X81615Y-78773D01*
X81803Y-78962D01*
X82050Y-79065D01*
X82318Y-79065D01*
X82565Y-78963D01*
X82754Y-78774D01*
X82856Y-78527D01*
X82857Y-78260D01*
X82857Y-82533D01*
X82689Y-82533D01*
X82689Y-81316D01*
X82590Y-81077D01*
X82408Y-80894D01*
X82169Y-80794D01*
X81910Y-80794D01*
X81671Y-80893D01*
X81488Y-81076D01*
X81389Y-81315D01*
X81389Y-81573D01*
X81488Y-81812D01*
X81670Y-81995D01*
X81909Y-82094D01*
X82168Y-82094D01*
X82407Y-81996D01*
X82590Y-81813D01*
X82689Y-81574D01*
X82689Y-81316D01*
X82689Y-82533D01*
X81129Y-82533D01*
X80499Y-81904D01*
X80590Y-81813D01*
X80689Y-81574D01*
X80689Y-81316D01*
X80590Y-81077D01*
X80408Y-80894D01*
X80169Y-80794D01*
X79910Y-80794D01*
X79671Y-80893D01*
X79488Y-81076D01*
X79389Y-81315D01*
X79389Y-81573D01*
X79488Y-81812D01*
X79670Y-81995D01*
X79703Y-82009D01*
X79703Y-82009D01*
X79716Y-82072D01*
X79791Y-82186D01*
X80736Y-83131D01*
X80850Y-83207D01*
X80984Y-83233D01*
X89527Y-83233D01*
X89661Y-83207D01*
X89661Y-83207D01*
X89775Y-83131D01*
X93127Y-79779D01*
X93694Y-79779D01*
X93758Y-79843D01*
X93701Y-79867D01*
X93631Y-79937D01*
X93592Y-80029D01*
X93592Y-80128D01*
X93592Y-80828D01*
X93630Y-80920D01*
X93701Y-80990D01*
X93792Y-81029D01*
X93892Y-81029D01*
X94592Y-81029D01*
X94684Y-80991D01*
X94754Y-80920D01*
X94792Y-80829D01*
X94792Y-80729D01*
X94792Y-80029D01*
X94754Y-79937D01*
X94684Y-79867D01*
X94627Y-79843D01*
X94701Y-79769D01*
X94792Y-79549D01*
X94793Y-79310D01*
X94793Y-85167D01*
X94550Y-85167D01*
X94169Y-85324D01*
X93876Y-85616D01*
X93718Y-85997D01*
X93718Y-86410D01*
X93875Y-86791D01*
X94167Y-87083D01*
X94548Y-87241D01*
X94961Y-87242D01*
X95342Y-87084D01*
X95634Y-86793D01*
X95793Y-86411D01*
X95793Y-85999D01*
X95793Y-87352D01*
X78723Y-87352D01*
X78723Y-78260D01*
X78621Y-78013D01*
X78432Y-77824D01*
X78185Y-77721D01*
X77918Y-77721D01*
X77671Y-77823D01*
X77481Y-78012D01*
X77379Y-78259D01*
X77379Y-78526D01*
X77481Y-78773D01*
X77670Y-78962D01*
X77916Y-79065D01*
X78184Y-79065D01*
X78431Y-78963D01*
X78620Y-78774D01*
X78722Y-78527D01*
X78723Y-78260D01*
X78723Y-87352D01*
X78689Y-87352D01*
X78689Y-81316D01*
X78590Y-81077D01*
X78408Y-80894D01*
X78169Y-80794D01*
X77910Y-80794D01*
X77671Y-80893D01*
X77488Y-81076D01*
X77389Y-81315D01*
X77389Y-81573D01*
X77488Y-81812D01*
X77670Y-81995D01*
X77909Y-82094D01*
X78168Y-82094D01*
X78407Y-81996D01*
X78590Y-81813D01*
X78689Y-81574D01*
X78689Y-81316D01*
X78689Y-87352D01*
X76689Y-87352D01*
X76689Y-81795D01*
X76689Y-80995D01*
X76651Y-80903D01*
X76581Y-80833D01*
X76489Y-80794D01*
X76389Y-80794D01*
X75884Y-80794D01*
X74267Y-79177D01*
X74267Y-78976D01*
X74297Y-78963D01*
X74486Y-78774D01*
X74589Y-78527D01*
X74589Y-78260D01*
X74487Y-78013D01*
X74298Y-77824D01*
X74051Y-77721D01*
X73784Y-77721D01*
X73537Y-77823D01*
X73348Y-78012D01*
X73245Y-78259D01*
X73245Y-78526D01*
X73347Y-78773D01*
X73536Y-78962D01*
X73567Y-78975D01*
X73567Y-79322D01*
X73593Y-79456D01*
X73669Y-79570D01*
X75389Y-81289D01*
X75389Y-81894D01*
X75427Y-81986D01*
X75497Y-82056D01*
X75589Y-82094D01*
X75677Y-82094D01*
X74264Y-83508D01*
X74041Y-83508D01*
X74139Y-83410D01*
X74204Y-83254D01*
X74204Y-83085D01*
X74140Y-82928D01*
X74020Y-82809D01*
X73864Y-82744D01*
X73695Y-82744D01*
X73539Y-82808D01*
X73528Y-82819D01*
X46862Y-82819D01*
X46862Y-81316D01*
X46763Y-81077D01*
X46581Y-80894D01*
X46342Y-80794D01*
X46083Y-80794D01*
X45844Y-80893D01*
X45661Y-81076D01*
X45562Y-81315D01*
X45562Y-81573D01*
X45661Y-81812D01*
X45843Y-81995D01*
X46082Y-82094D01*
X46341Y-82094D01*
X46580Y-81996D01*
X46763Y-81813D01*
X46862Y-81574D01*
X46862Y-81316D01*
X46862Y-82819D01*
X44862Y-82819D01*
X44862Y-81316D01*
X44763Y-81077D01*
X44581Y-80894D01*
X44342Y-80794D01*
X44083Y-80794D01*
X44065Y-80802D01*
X42444Y-79181D01*
X42330Y-79105D01*
X42196Y-79079D01*
X31797Y-79079D01*
X31647Y-78929D01*
X31797Y-78779D01*
X34868Y-78779D01*
X35052Y-78962D01*
X35298Y-79065D01*
X35566Y-79065D01*
X35813Y-78963D01*
X36002Y-78774D01*
X36104Y-78527D01*
X36105Y-78260D01*
X36105Y-72260D01*
X36002Y-72013D01*
X35814Y-71824D01*
X35567Y-71721D01*
X35300Y-71721D01*
X35052Y-71823D01*
X34863Y-72012D01*
X34761Y-72259D01*
X34761Y-72526D01*
X34863Y-72773D01*
X35052Y-72962D01*
X35298Y-73065D01*
X35566Y-73065D01*
X35813Y-72963D01*
X36002Y-72774D01*
X36104Y-72527D01*
X36105Y-72260D01*
X36105Y-78260D01*
X36002Y-78013D01*
X35814Y-77824D01*
X35567Y-77721D01*
X35300Y-77721D01*
X35052Y-77823D01*
X34863Y-78012D01*
X34836Y-78079D01*
X31797Y-78079D01*
X31639Y-77920D01*
X31419Y-77829D01*
X31180Y-77829D01*
X30959Y-77920D01*
X30790Y-78088D01*
X30752Y-78180D01*
X30752Y-69111D01*
X30551Y-68624D01*
X30179Y-68251D01*
X29692Y-68049D01*
X29165Y-68048D01*
X28677Y-68250D01*
X28304Y-68622D01*
X28102Y-69109D01*
X28102Y-69636D01*
X28303Y-70123D01*
X28676Y-70496D01*
X29162Y-70698D01*
X29689Y-70699D01*
X30177Y-70497D01*
X30550Y-70125D01*
X30752Y-69638D01*
X30752Y-69111D01*
X30752Y-78180D01*
X30699Y-78309D01*
X30699Y-78547D01*
X30790Y-78768D01*
X30950Y-78929D01*
X30790Y-79088D01*
X30699Y-79309D01*
X30699Y-79547D01*
X30790Y-79768D01*
X30864Y-79843D01*
X30807Y-79867D01*
X30737Y-79937D01*
X30699Y-80029D01*
X30699Y-80128D01*
X30699Y-80828D01*
X30737Y-80920D01*
X30807Y-80990D01*
X30899Y-81029D01*
X30998Y-81029D01*
X31698Y-81029D01*
X31790Y-80991D01*
X31861Y-80920D01*
X31899Y-80829D01*
X31899Y-80729D01*
X31899Y-80029D01*
X31861Y-79937D01*
X31791Y-79867D01*
X31733Y-79843D01*
X31797Y-79779D01*
X42051Y-79779D01*
X43570Y-81297D01*
X43562Y-81315D01*
X43562Y-81573D01*
X43661Y-81812D01*
X43843Y-81995D01*
X44082Y-82094D01*
X44341Y-82094D01*
X44580Y-81996D01*
X44763Y-81813D01*
X44862Y-81574D01*
X44862Y-81316D01*
X44862Y-82819D01*
X42900Y-82819D01*
X42562Y-82481D01*
X42562Y-82003D01*
X42580Y-81996D01*
X42763Y-81813D01*
X42862Y-81574D01*
X42862Y-81316D01*
X42763Y-81077D01*
X42581Y-80894D01*
X42342Y-80794D01*
X42083Y-80794D01*
X41844Y-80893D01*
X41661Y-81076D01*
X41562Y-81315D01*
X41562Y-81573D01*
X41661Y-81812D01*
X41843Y-81995D01*
X41862Y-82003D01*
X41862Y-82625D01*
X41889Y-82759D01*
X41965Y-82873D01*
X42508Y-83416D01*
X42508Y-83416D01*
X42621Y-83492D01*
X42700Y-83508D01*
X41601Y-83508D01*
X40562Y-82469D01*
X40562Y-82094D01*
X40662Y-82094D01*
X40754Y-82056D01*
X40824Y-81986D01*
X40862Y-81894D01*
X40862Y-81795D01*
X40862Y-80995D01*
X40824Y-80903D01*
X40754Y-80833D01*
X40662Y-80794D01*
X40563Y-80794D01*
X39763Y-80794D01*
X39671Y-80832D01*
X39600Y-80903D01*
X39562Y-80994D01*
X39562Y-81094D01*
X39562Y-81894D01*
X39600Y-81986D01*
X39670Y-82056D01*
X39762Y-82094D01*
X39862Y-82094D01*
X39862Y-82094D01*
X39862Y-82614D01*
X39889Y-82748D01*
X39965Y-82861D01*
X41209Y-84105D01*
X41209Y-84105D01*
X41322Y-84181D01*
X41456Y-84208D01*
X41456Y-84208D01*
X74409Y-84208D01*
X74543Y-84181D01*
X74543Y-84181D01*
X74656Y-84105D01*
X76286Y-82475D01*
X76362Y-82362D01*
X76362Y-82362D01*
X76389Y-82228D01*
X76389Y-82094D01*
X76488Y-82094D01*
X76580Y-82056D01*
X76651Y-81986D01*
X76689Y-81894D01*
X76689Y-81795D01*
X76689Y-87352D01*
X31645Y-87352D01*
X31641Y-87352D01*
X30517Y-87352D01*
X30517Y-85991D01*
X30360Y-85609D01*
X30068Y-85317D01*
X29687Y-85159D01*
X29274Y-85159D01*
X28893Y-85316D01*
X28601Y-85608D01*
X28443Y-85989D01*
X28442Y-86402D01*
X28600Y-86783D01*
X28891Y-87075D01*
X29273Y-87234D01*
X29685Y-87234D01*
X30067Y-87076D01*
X30359Y-86785D01*
X30517Y-86404D01*
X30517Y-85991D01*
X30517Y-87352D01*
X26820Y-87352D01*
X26820Y-36401D01*
X26820Y-33446D01*
X97423Y-33446D01*
X97423Y-87352D01*
X97423Y-87352D01*
G37*
G54D30*
X97423Y-87352D02*
X96079Y-87352D01*
X96079Y-40521D01*
X96076Y-40364D01*
X96076Y-38911D01*
X96076Y-37730D01*
X96038Y-37638D01*
X95968Y-37567D01*
X95876Y-37529D01*
X95801Y-37529D01*
X95801Y-34566D01*
X95643Y-34184D01*
X95352Y-33892D01*
X94971Y-33734D01*
X94558Y-33734D01*
X94176Y-33891D01*
X93884Y-34183D01*
X93726Y-34564D01*
X93726Y-34977D01*
X93883Y-35358D01*
X94175Y-35650D01*
X94556Y-35808D01*
X94969Y-35809D01*
X95350Y-35651D01*
X95642Y-35360D01*
X95801Y-34978D01*
X95801Y-34566D01*
X95801Y-37529D01*
X95777Y-37529D01*
X94596Y-37529D01*
X94504Y-37567D01*
X94433Y-37637D01*
X94395Y-37729D01*
X94395Y-37829D01*
X94395Y-39010D01*
X94433Y-39102D01*
X94503Y-39172D01*
X94595Y-39210D01*
X94695Y-39210D01*
X95876Y-39210D01*
X95968Y-39172D01*
X96038Y-39102D01*
X96076Y-39010D01*
X96076Y-38911D01*
X96076Y-40364D01*
X96073Y-40186D01*
X95957Y-39907D01*
X95832Y-39844D01*
X95761Y-39915D01*
X95761Y-39774D01*
X95698Y-39648D01*
X95387Y-39526D01*
X95053Y-39532D01*
X94773Y-39648D01*
X94710Y-39774D01*
X95236Y-40299D01*
X95761Y-39774D01*
X95761Y-39915D01*
X95306Y-40370D01*
X95832Y-40895D01*
X95957Y-40832D01*
X96079Y-40521D01*
X96079Y-87352D01*
X95793Y-87352D01*
X95793Y-85999D01*
X95761Y-85921D01*
X95761Y-40966D01*
X95236Y-40440D01*
X95165Y-40511D01*
X95165Y-40370D01*
X94640Y-39844D01*
X94514Y-39907D01*
X94392Y-40218D01*
X94399Y-40553D01*
X94514Y-40832D01*
X94640Y-40895D01*
X95165Y-40370D01*
X95165Y-40511D01*
X94710Y-40966D01*
X94773Y-41091D01*
X95085Y-41213D01*
X95419Y-41207D01*
X95698Y-41091D01*
X95761Y-40966D01*
X95761Y-85921D01*
X95713Y-85805D01*
X95713Y-69111D01*
X95713Y-46111D01*
X95512Y-45624D01*
X95139Y-45251D01*
X94652Y-45049D01*
X94125Y-45048D01*
X93638Y-45250D01*
X93265Y-45622D01*
X93063Y-46109D01*
X93062Y-46636D01*
X93264Y-47123D01*
X93636Y-47496D01*
X94123Y-47698D01*
X94650Y-47699D01*
X95137Y-47497D01*
X95510Y-47125D01*
X95712Y-46638D01*
X95713Y-46111D01*
X95713Y-69111D01*
X95542Y-68699D01*
X95542Y-55955D01*
X95542Y-54955D01*
X95532Y-54737D01*
X95469Y-54586D01*
X95374Y-54558D01*
X95058Y-54874D01*
X95374Y-55189D01*
X95469Y-55161D01*
X95542Y-54955D01*
X95542Y-55955D01*
X95532Y-55737D01*
X95469Y-55586D01*
X95374Y-55558D01*
X95303Y-55629D01*
X95303Y-55488D01*
X95276Y-55392D01*
X95227Y-55375D01*
X95276Y-55355D01*
X95303Y-55259D01*
X94988Y-54944D01*
X94672Y-55259D01*
X94700Y-55355D01*
X94748Y-55372D01*
X94700Y-55392D01*
X94672Y-55488D01*
X94988Y-55803D01*
X95303Y-55488D01*
X95303Y-55629D01*
X95058Y-55874D01*
X95374Y-56189D01*
X95469Y-56161D01*
X95542Y-55955D01*
X95542Y-68699D01*
X95538Y-68687D01*
X95538Y-65765D01*
X95454Y-65562D01*
X95300Y-65408D01*
X95218Y-65374D01*
X95299Y-65340D01*
X95454Y-65185D01*
X95538Y-64983D01*
X95538Y-64765D01*
X95454Y-64562D01*
X95300Y-64408D01*
X95218Y-64374D01*
X95299Y-64340D01*
X95454Y-64185D01*
X95538Y-63983D01*
X95538Y-63765D01*
X95454Y-63562D01*
X95300Y-63408D01*
X95218Y-63374D01*
X95299Y-63340D01*
X95454Y-63185D01*
X95538Y-62983D01*
X95538Y-62765D01*
X95454Y-62562D01*
X95300Y-62408D01*
X95218Y-62374D01*
X95299Y-62340D01*
X95454Y-62185D01*
X95538Y-61983D01*
X95538Y-61765D01*
X95454Y-61562D01*
X95300Y-61408D01*
X95218Y-61374D01*
X95299Y-61340D01*
X95454Y-61185D01*
X95538Y-60983D01*
X95538Y-60765D01*
X95454Y-60562D01*
X95300Y-60408D01*
X95218Y-60374D01*
X95299Y-60340D01*
X95454Y-60185D01*
X95538Y-59983D01*
X95538Y-59765D01*
X95454Y-59562D01*
X95300Y-59408D01*
X95218Y-59374D01*
X95299Y-59340D01*
X95454Y-59185D01*
X95538Y-58983D01*
X95538Y-58765D01*
X95454Y-58562D01*
X95300Y-58408D01*
X95218Y-58374D01*
X95299Y-58340D01*
X95454Y-58185D01*
X95538Y-57983D01*
X95538Y-57765D01*
X95454Y-57562D01*
X95300Y-57408D01*
X95218Y-57374D01*
X95299Y-57340D01*
X95454Y-57185D01*
X95538Y-56983D01*
X95538Y-56765D01*
X95454Y-56562D01*
X95300Y-56408D01*
X95224Y-56376D01*
X95276Y-56355D01*
X95303Y-56259D01*
X94988Y-55944D01*
X94672Y-56259D01*
X94700Y-56355D01*
X94755Y-56375D01*
X94677Y-56407D01*
X94522Y-56562D01*
X94488Y-56643D01*
X94454Y-56562D01*
X94300Y-56408D01*
X94218Y-56374D01*
X94299Y-56340D01*
X94454Y-56185D01*
X94485Y-56110D01*
X94506Y-56161D01*
X94602Y-56189D01*
X94917Y-55874D01*
X94602Y-55558D01*
X94506Y-55586D01*
X94487Y-55641D01*
X94454Y-55562D01*
X94300Y-55408D01*
X94218Y-55374D01*
X94299Y-55340D01*
X94454Y-55185D01*
X94485Y-55110D01*
X94506Y-55161D01*
X94602Y-55189D01*
X94917Y-54874D01*
X94602Y-54558D01*
X94506Y-54586D01*
X94487Y-54641D01*
X94454Y-54562D01*
X94300Y-54408D01*
X94218Y-54374D01*
X94299Y-54340D01*
X94454Y-54185D01*
X94488Y-54104D01*
X94521Y-54185D01*
X94676Y-54340D01*
X94751Y-54371D01*
X94700Y-54392D01*
X94672Y-54488D01*
X94988Y-54803D01*
X95303Y-54488D01*
X95276Y-54392D01*
X95220Y-54373D01*
X95299Y-54340D01*
X95454Y-54185D01*
X95538Y-53983D01*
X95538Y-53765D01*
X95454Y-53562D01*
X95300Y-53408D01*
X95218Y-53374D01*
X95299Y-53340D01*
X95454Y-53185D01*
X95538Y-52983D01*
X95538Y-52765D01*
X95454Y-52562D01*
X95300Y-52408D01*
X95218Y-52374D01*
X95299Y-52340D01*
X95454Y-52185D01*
X95538Y-51983D01*
X95538Y-51765D01*
X95454Y-51562D01*
X95300Y-51408D01*
X95218Y-51374D01*
X95299Y-51340D01*
X95454Y-51185D01*
X95538Y-50983D01*
X95538Y-50765D01*
X95454Y-50562D01*
X95300Y-50408D01*
X95218Y-50374D01*
X95299Y-50340D01*
X95454Y-50185D01*
X95538Y-49983D01*
X95538Y-49765D01*
X95454Y-49562D01*
X95300Y-49408D01*
X95098Y-49324D01*
X94879Y-49323D01*
X94677Y-49407D01*
X94522Y-49562D01*
X94488Y-49643D01*
X94454Y-49562D01*
X94300Y-49408D01*
X94098Y-49324D01*
X93879Y-49323D01*
X93677Y-49407D01*
X93522Y-49562D01*
X93438Y-49764D01*
X93438Y-49982D01*
X93521Y-50185D01*
X93676Y-50340D01*
X93758Y-50373D01*
X93677Y-50407D01*
X93522Y-50562D01*
X93438Y-50764D01*
X93438Y-50982D01*
X93447Y-51004D01*
X93324Y-51127D01*
X90982Y-51127D01*
X90982Y-39650D01*
X90977Y-39562D01*
X90977Y-38470D01*
X90898Y-38277D01*
X90750Y-38129D01*
X90557Y-38049D01*
X90348Y-38049D01*
X90155Y-38129D01*
X90007Y-38277D01*
X89927Y-38469D01*
X89927Y-38678D01*
X90007Y-38871D01*
X90154Y-39019D01*
X90281Y-39072D01*
X90179Y-39114D01*
X90155Y-39207D01*
X90452Y-39504D01*
X90749Y-39207D01*
X90725Y-39114D01*
X90615Y-39075D01*
X90749Y-39020D01*
X90897Y-38872D01*
X90977Y-38679D01*
X90977Y-38470D01*
X90977Y-39562D01*
X90971Y-39442D01*
X90913Y-39301D01*
X90820Y-39277D01*
X90523Y-39574D01*
X90820Y-39871D01*
X90913Y-39847D01*
X90982Y-39650D01*
X90982Y-51127D01*
X90749Y-51127D01*
X90749Y-39942D01*
X90452Y-39645D01*
X90382Y-39716D01*
X90382Y-39574D01*
X90084Y-39277D01*
X89992Y-39301D01*
X89922Y-39499D01*
X89934Y-39707D01*
X89992Y-39847D01*
X90084Y-39871D01*
X90382Y-39574D01*
X90382Y-39716D01*
X90155Y-39942D01*
X90179Y-40035D01*
X90376Y-40104D01*
X90585Y-40093D01*
X90725Y-40035D01*
X90749Y-39942D01*
X90749Y-51127D01*
X84689Y-51127D01*
X84689Y-39190D01*
X84590Y-38951D01*
X84408Y-38768D01*
X84169Y-38669D01*
X83910Y-38668D01*
X83671Y-38767D01*
X83488Y-38950D01*
X83389Y-39189D01*
X83389Y-39447D01*
X83488Y-39686D01*
X83647Y-39846D01*
X83647Y-40010D01*
X81432Y-42226D01*
X73390Y-42226D01*
X70206Y-39041D01*
X70079Y-38956D01*
X69929Y-38927D01*
X48739Y-38927D01*
X48590Y-38777D01*
X70703Y-38777D01*
X73738Y-41812D01*
X73738Y-41812D01*
X73865Y-41897D01*
X74015Y-41927D01*
X80708Y-41927D01*
X80858Y-41897D01*
X80985Y-41812D01*
X82316Y-40481D01*
X82316Y-40481D01*
X82373Y-40396D01*
X82401Y-40354D01*
X82401Y-40354D01*
X82431Y-40204D01*
X82431Y-40204D01*
X82431Y-39846D01*
X82590Y-39687D01*
X82689Y-39448D01*
X82689Y-39190D01*
X82590Y-38951D01*
X82408Y-38768D01*
X82169Y-38669D01*
X81910Y-38668D01*
X81671Y-38767D01*
X81488Y-38950D01*
X81389Y-39189D01*
X81389Y-39447D01*
X81488Y-39686D01*
X81647Y-39846D01*
X81647Y-40042D01*
X80689Y-41000D01*
X80689Y-39190D01*
X80590Y-38951D01*
X80408Y-38768D01*
X80169Y-38669D01*
X79910Y-38668D01*
X79671Y-38767D01*
X79488Y-38950D01*
X79389Y-39189D01*
X79389Y-39447D01*
X79488Y-39686D01*
X79670Y-39869D01*
X79909Y-39968D01*
X80168Y-39969D01*
X80407Y-39870D01*
X80590Y-39687D01*
X80689Y-39448D01*
X80689Y-39190D01*
X80689Y-41000D01*
X80546Y-41143D01*
X74178Y-41143D01*
X71143Y-38108D01*
X71112Y-38088D01*
X71786Y-38088D01*
X74723Y-41025D01*
X74850Y-41109D01*
X75000Y-41139D01*
X77165Y-41139D01*
X77315Y-41109D01*
X77442Y-41025D01*
X78316Y-40151D01*
X78401Y-40023D01*
X78431Y-39874D01*
X78431Y-39846D01*
X78590Y-39687D01*
X78689Y-39448D01*
X78689Y-39190D01*
X78590Y-38951D01*
X78408Y-38768D01*
X78169Y-38669D01*
X77910Y-38668D01*
X77671Y-38767D01*
X77488Y-38950D01*
X77389Y-39189D01*
X77389Y-39447D01*
X77488Y-39686D01*
X77580Y-39779D01*
X77003Y-40356D01*
X75162Y-40356D01*
X72225Y-37419D01*
X72195Y-37399D01*
X74640Y-37399D01*
X75647Y-38406D01*
X75647Y-38791D01*
X75488Y-38950D01*
X75389Y-39189D01*
X75389Y-39447D01*
X75488Y-39686D01*
X75670Y-39869D01*
X75909Y-39968D01*
X76168Y-39969D01*
X76407Y-39870D01*
X76590Y-39687D01*
X76689Y-39448D01*
X76689Y-39190D01*
X76590Y-38951D01*
X76431Y-38791D01*
X76431Y-38244D01*
X76401Y-38094D01*
X76316Y-37967D01*
X76316Y-37967D01*
X75080Y-36730D01*
X74953Y-36645D01*
X74803Y-36616D01*
X41043Y-36616D01*
X40893Y-36645D01*
X40766Y-36730D01*
X39935Y-37561D01*
X39850Y-37688D01*
X39820Y-37838D01*
X39820Y-38791D01*
X39661Y-38950D01*
X39562Y-39189D01*
X39562Y-39447D01*
X39661Y-39686D01*
X39820Y-39846D01*
X39820Y-41858D01*
X39686Y-41992D01*
X39584Y-42239D01*
X39583Y-42507D01*
X39686Y-42754D01*
X39874Y-42943D01*
X40121Y-43045D01*
X40388Y-43045D01*
X40635Y-42943D01*
X40825Y-42755D01*
X40927Y-42508D01*
X40927Y-42240D01*
X40825Y-41993D01*
X40636Y-41804D01*
X40604Y-41791D01*
X40604Y-39846D01*
X40763Y-39687D01*
X40862Y-39448D01*
X40862Y-39190D01*
X40763Y-38951D01*
X40604Y-38791D01*
X40604Y-38000D01*
X41205Y-37399D01*
X43158Y-37399D01*
X43128Y-37419D01*
X41935Y-38612D01*
X41850Y-38739D01*
X41845Y-38767D01*
X41844Y-38767D01*
X41661Y-38950D01*
X41562Y-39189D01*
X41562Y-39447D01*
X41661Y-39686D01*
X41843Y-39869D01*
X41874Y-39882D01*
X41874Y-41791D01*
X41844Y-41804D01*
X41655Y-41992D01*
X41552Y-42239D01*
X41552Y-42507D01*
X41654Y-42754D01*
X41843Y-42943D01*
X42090Y-43045D01*
X42357Y-43045D01*
X42604Y-42943D01*
X42793Y-42755D01*
X42896Y-42508D01*
X42896Y-42240D01*
X42794Y-41993D01*
X42605Y-41804D01*
X42574Y-41791D01*
X42574Y-39872D01*
X42580Y-39870D01*
X42763Y-39687D01*
X42862Y-39448D01*
X42862Y-39190D01*
X42763Y-38951D01*
X42734Y-38921D01*
X43567Y-38088D01*
X46702Y-38088D01*
X46671Y-38108D01*
X46111Y-38668D01*
X46083Y-38668D01*
X45844Y-38767D01*
X45661Y-38950D01*
X45562Y-39189D01*
X45562Y-39447D01*
X45661Y-39686D01*
X45843Y-39869D01*
X45909Y-39896D01*
X45909Y-41791D01*
X45879Y-41804D01*
X45690Y-41992D01*
X45588Y-42239D01*
X45587Y-42507D01*
X45689Y-42754D01*
X45878Y-42943D01*
X46125Y-43045D01*
X46392Y-43045D01*
X46639Y-42943D01*
X46829Y-42755D01*
X46931Y-42508D01*
X46931Y-42240D01*
X46829Y-41993D01*
X46640Y-41804D01*
X46609Y-41791D01*
X46609Y-39840D01*
X46763Y-39687D01*
X46862Y-39448D01*
X46862Y-39190D01*
X46814Y-39073D01*
X47111Y-38777D01*
X47834Y-38777D01*
X47661Y-38950D01*
X47562Y-39189D01*
X47562Y-39447D01*
X47661Y-39686D01*
X47843Y-39869D01*
X47878Y-39883D01*
X47878Y-41791D01*
X47848Y-41804D01*
X47659Y-41992D01*
X47556Y-42239D01*
X47556Y-42507D01*
X47658Y-42754D01*
X47847Y-42943D01*
X48094Y-43045D01*
X48361Y-43045D01*
X48608Y-42943D01*
X48797Y-42755D01*
X48900Y-42508D01*
X48900Y-42240D01*
X48798Y-41993D01*
X48609Y-41804D01*
X48578Y-41791D01*
X48578Y-39871D01*
X48580Y-39870D01*
X48740Y-39710D01*
X69766Y-39710D01*
X72951Y-42895D01*
X72951Y-42895D01*
X73078Y-42980D01*
X73228Y-43009D01*
X81594Y-43009D01*
X81744Y-42980D01*
X81871Y-42895D01*
X84316Y-40450D01*
X84401Y-40323D01*
X84431Y-40173D01*
X84431Y-40173D01*
X84431Y-39846D01*
X84590Y-39687D01*
X84689Y-39448D01*
X84689Y-39190D01*
X84689Y-51127D01*
X64878Y-51127D01*
X64927Y-51007D01*
X64928Y-50788D01*
X64844Y-50586D01*
X64689Y-50431D01*
X64487Y-50347D01*
X64269Y-50347D01*
X64066Y-50431D01*
X63911Y-50585D01*
X63877Y-50667D01*
X63844Y-50586D01*
X63689Y-50431D01*
X63487Y-50347D01*
X63269Y-50347D01*
X63066Y-50431D01*
X62911Y-50585D01*
X62828Y-50787D01*
X62827Y-51006D01*
X62877Y-51127D01*
X49759Y-51127D01*
X49689Y-51057D01*
X49533Y-50992D01*
X49364Y-50992D01*
X49208Y-51056D01*
X49088Y-51176D01*
X49023Y-51332D01*
X49023Y-51501D01*
X49088Y-51657D01*
X49207Y-51777D01*
X49363Y-51842D01*
X49532Y-51842D01*
X49689Y-51777D01*
X49759Y-51707D01*
X62861Y-51707D01*
X62828Y-51787D01*
X62827Y-52006D01*
X62836Y-52028D01*
X62753Y-52111D01*
X49877Y-52111D01*
X49768Y-52002D01*
X49612Y-51937D01*
X49443Y-51937D01*
X49287Y-52001D01*
X49167Y-52121D01*
X49102Y-52277D01*
X49102Y-52446D01*
X49167Y-52602D01*
X49286Y-52722D01*
X49442Y-52787D01*
X49611Y-52787D01*
X49767Y-52722D01*
X49799Y-52691D01*
X62867Y-52691D01*
X62828Y-52787D01*
X62827Y-53006D01*
X62832Y-53017D01*
X62714Y-53135D01*
X49956Y-53135D01*
X49926Y-53104D01*
X49769Y-53039D01*
X49600Y-53039D01*
X49444Y-53104D01*
X49324Y-53223D01*
X49260Y-53379D01*
X49259Y-53548D01*
X49324Y-53704D01*
X49443Y-53824D01*
X49600Y-53889D01*
X49769Y-53889D01*
X49925Y-53825D01*
X50035Y-53715D01*
X62834Y-53715D01*
X62860Y-53710D01*
X62828Y-53787D01*
X62827Y-54006D01*
X62858Y-54080D01*
X61653Y-54080D01*
X60078Y-54080D01*
X55826Y-54080D01*
X52397Y-54080D01*
X52327Y-54009D01*
X52171Y-53945D01*
X52002Y-53945D01*
X51846Y-54009D01*
X51726Y-54129D01*
X51661Y-54285D01*
X51661Y-54454D01*
X51726Y-54610D01*
X51845Y-54730D01*
X52001Y-54795D01*
X52170Y-54795D01*
X52327Y-54730D01*
X52397Y-54660D01*
X55826Y-54660D01*
X60078Y-54660D01*
X61653Y-54660D01*
X62881Y-54660D01*
X62828Y-54787D01*
X62827Y-55006D01*
X62836Y-55028D01*
X62683Y-55182D01*
X52476Y-55182D01*
X52445Y-55151D01*
X52289Y-55086D01*
X52120Y-55086D01*
X51964Y-55151D01*
X51844Y-55270D01*
X51779Y-55426D01*
X51779Y-55595D01*
X51844Y-55752D01*
X51963Y-55871D01*
X52119Y-55936D01*
X52288Y-55936D01*
X52445Y-55872D01*
X52555Y-55762D01*
X62803Y-55762D01*
X62841Y-55754D01*
X62828Y-55787D01*
X62827Y-56006D01*
X62836Y-56028D01*
X62777Y-56087D01*
X48900Y-56087D01*
X48900Y-48240D01*
X48798Y-47993D01*
X48609Y-47804D01*
X48362Y-47702D01*
X48095Y-47702D01*
X47848Y-47804D01*
X47659Y-47992D01*
X47556Y-48239D01*
X47556Y-48507D01*
X47658Y-48754D01*
X47847Y-48943D01*
X48094Y-49045D01*
X48361Y-49045D01*
X48608Y-48943D01*
X48797Y-48755D01*
X48900Y-48508D01*
X48900Y-48240D01*
X48900Y-56087D01*
X46931Y-56087D01*
X46931Y-48240D01*
X46829Y-47993D01*
X46640Y-47804D01*
X46394Y-47702D01*
X46126Y-47702D01*
X45879Y-47804D01*
X45690Y-47992D01*
X45588Y-48239D01*
X45587Y-48507D01*
X45689Y-48754D01*
X45878Y-48943D01*
X46125Y-49045D01*
X46392Y-49045D01*
X46639Y-48943D01*
X46829Y-48755D01*
X46931Y-48508D01*
X46931Y-48240D01*
X46931Y-56087D01*
X44862Y-56087D01*
X44862Y-39190D01*
X44763Y-38951D01*
X44581Y-38768D01*
X44342Y-38669D01*
X44083Y-38668D01*
X43844Y-38767D01*
X43661Y-38950D01*
X43562Y-39189D01*
X43562Y-39447D01*
X43661Y-39686D01*
X43843Y-39869D01*
X44082Y-39968D01*
X44341Y-39969D01*
X44580Y-39870D01*
X44763Y-39687D01*
X44862Y-39448D01*
X44862Y-39190D01*
X44862Y-56087D01*
X42896Y-56087D01*
X42896Y-48240D01*
X42794Y-47993D01*
X42605Y-47804D01*
X42358Y-47702D01*
X42091Y-47702D01*
X41844Y-47804D01*
X41655Y-47992D01*
X41552Y-48239D01*
X41552Y-48507D01*
X41654Y-48754D01*
X41843Y-48943D01*
X42090Y-49045D01*
X42357Y-49045D01*
X42604Y-48943D01*
X42793Y-48755D01*
X42896Y-48508D01*
X42896Y-48240D01*
X42896Y-56087D01*
X40927Y-56087D01*
X40927Y-48240D01*
X40825Y-47993D01*
X40636Y-47804D01*
X40390Y-47702D01*
X40122Y-47702D01*
X39875Y-47804D01*
X39686Y-47992D01*
X39584Y-48239D01*
X39583Y-48507D01*
X39686Y-48754D01*
X39874Y-48943D01*
X40121Y-49045D01*
X40388Y-49045D01*
X40635Y-48943D01*
X40825Y-48755D01*
X40927Y-48508D01*
X40927Y-48240D01*
X40927Y-56087D01*
X34899Y-56087D01*
X34899Y-40056D01*
X34895Y-39967D01*
X34895Y-38876D01*
X34815Y-38683D01*
X34667Y-38535D01*
X34474Y-38455D01*
X34266Y-38455D01*
X34073Y-38534D01*
X33925Y-38682D01*
X33845Y-38875D01*
X33844Y-39084D01*
X33924Y-39277D01*
X34072Y-39425D01*
X34198Y-39477D01*
X34097Y-39519D01*
X34073Y-39612D01*
X34370Y-39909D01*
X34667Y-39612D01*
X34642Y-39519D01*
X34532Y-39481D01*
X34667Y-39425D01*
X34814Y-39278D01*
X34894Y-39085D01*
X34895Y-38876D01*
X34895Y-39967D01*
X34888Y-39847D01*
X34830Y-39707D01*
X34737Y-39683D01*
X34440Y-39980D01*
X34737Y-40277D01*
X34830Y-40253D01*
X34899Y-40056D01*
X34899Y-56087D01*
X34667Y-56087D01*
X34667Y-40348D01*
X34370Y-40051D01*
X34299Y-40121D01*
X34299Y-39980D01*
X34002Y-39683D01*
X33909Y-39707D01*
X33840Y-39904D01*
X33851Y-40113D01*
X33909Y-40253D01*
X34002Y-40277D01*
X34299Y-39980D01*
X34299Y-40121D01*
X34073Y-40348D01*
X34097Y-40440D01*
X34294Y-40510D01*
X34502Y-40498D01*
X34642Y-40440D01*
X34667Y-40348D01*
X34667Y-56087D01*
X30752Y-56087D01*
X30752Y-46111D01*
X30551Y-45624D01*
X30478Y-45551D01*
X30478Y-34365D01*
X30320Y-33983D01*
X30029Y-33691D01*
X29648Y-33533D01*
X29235Y-33533D01*
X28854Y-33690D01*
X28561Y-33982D01*
X28403Y-34363D01*
X28403Y-34776D01*
X28560Y-35157D01*
X28852Y-35449D01*
X29233Y-35608D01*
X29646Y-35608D01*
X30027Y-35450D01*
X30319Y-35159D01*
X30478Y-34778D01*
X30478Y-34365D01*
X30478Y-45551D01*
X30179Y-45251D01*
X29935Y-45150D01*
X29935Y-38203D01*
X29807Y-37894D01*
X29571Y-37657D01*
X29262Y-37529D01*
X28928Y-37529D01*
X28619Y-37657D01*
X28382Y-37893D01*
X28254Y-38202D01*
X28253Y-38536D01*
X28381Y-38845D01*
X28617Y-39082D01*
X28926Y-39210D01*
X29260Y-39210D01*
X29569Y-39083D01*
X29806Y-38846D01*
X29934Y-38537D01*
X29935Y-38203D01*
X29935Y-45150D01*
X29935Y-45150D01*
X29935Y-41010D01*
X29935Y-39730D01*
X29897Y-39638D01*
X29826Y-39567D01*
X29734Y-39529D01*
X29635Y-39529D01*
X29206Y-39529D01*
X29144Y-39592D01*
X29144Y-40320D01*
X29872Y-40320D01*
X29934Y-40257D01*
X29935Y-39730D01*
X29935Y-41010D01*
X29934Y-40482D01*
X29872Y-40420D01*
X29144Y-40420D01*
X29144Y-41148D01*
X29206Y-41210D01*
X29635Y-41210D01*
X29734Y-41210D01*
X29826Y-41172D01*
X29897Y-41102D01*
X29935Y-41010D01*
X29935Y-45150D01*
X29692Y-45049D01*
X29165Y-45048D01*
X29044Y-45098D01*
X29044Y-41148D01*
X29044Y-40420D01*
X29044Y-40320D01*
X29044Y-39592D01*
X28981Y-39529D01*
X28553Y-39529D01*
X28454Y-39529D01*
X28362Y-39567D01*
X28291Y-39638D01*
X28253Y-39730D01*
X28253Y-40257D01*
X28316Y-40320D01*
X29044Y-40320D01*
X29044Y-40420D01*
X28316Y-40420D01*
X28253Y-40482D01*
X28253Y-41010D01*
X28291Y-41102D01*
X28362Y-41172D01*
X28454Y-41210D01*
X28553Y-41210D01*
X28981Y-41210D01*
X29044Y-41148D01*
X29044Y-45098D01*
X28677Y-45250D01*
X28304Y-45622D01*
X28102Y-46109D01*
X28102Y-46636D01*
X28303Y-47123D01*
X28676Y-47496D01*
X29162Y-47698D01*
X29689Y-47699D01*
X30177Y-47497D01*
X30550Y-47125D01*
X30752Y-46638D01*
X30752Y-46111D01*
X30752Y-56087D01*
X30535Y-56087D01*
X30582Y-55955D01*
X30582Y-54955D01*
X30571Y-54737D01*
X30508Y-54586D01*
X30413Y-54558D01*
X30098Y-54874D01*
X30413Y-55189D01*
X30508Y-55161D01*
X30582Y-54955D01*
X30582Y-55955D01*
X30571Y-55737D01*
X30508Y-55586D01*
X30413Y-55558D01*
X30342Y-55629D01*
X30342Y-55488D01*
X30315Y-55392D01*
X30266Y-55375D01*
X30315Y-55355D01*
X30342Y-55259D01*
X30027Y-54944D01*
X29712Y-55259D01*
X29739Y-55355D01*
X29788Y-55372D01*
X29739Y-55392D01*
X29712Y-55488D01*
X30027Y-55803D01*
X30342Y-55488D01*
X30342Y-55629D01*
X30098Y-55874D01*
X30103Y-55879D01*
X30033Y-55950D01*
X30027Y-55944D01*
X30021Y-55950D01*
X29951Y-55879D01*
X29956Y-55874D01*
X29641Y-55558D01*
X29546Y-55586D01*
X29526Y-55641D01*
X29494Y-55562D01*
X29339Y-55408D01*
X29257Y-55374D01*
X29338Y-55340D01*
X29493Y-55185D01*
X29524Y-55110D01*
X29546Y-55161D01*
X29641Y-55189D01*
X29956Y-54874D01*
X29641Y-54558D01*
X29546Y-54586D01*
X29526Y-54641D01*
X29494Y-54562D01*
X29339Y-54408D01*
X29257Y-54374D01*
X29338Y-54340D01*
X29493Y-54185D01*
X29527Y-54104D01*
X29561Y-54185D01*
X29715Y-54340D01*
X29791Y-54371D01*
X29739Y-54392D01*
X29712Y-54488D01*
X30027Y-54803D01*
X30342Y-54488D01*
X30315Y-54392D01*
X30260Y-54373D01*
X30338Y-54340D01*
X30493Y-54185D01*
X30577Y-53983D01*
X30577Y-53765D01*
X30494Y-53562D01*
X30339Y-53408D01*
X30257Y-53374D01*
X30338Y-53340D01*
X30493Y-53185D01*
X30577Y-52983D01*
X30577Y-52765D01*
X30494Y-52562D01*
X30339Y-52408D01*
X30257Y-52374D01*
X30338Y-52340D01*
X30493Y-52185D01*
X30577Y-51983D01*
X30577Y-51765D01*
X30494Y-51562D01*
X30339Y-51408D01*
X30257Y-51374D01*
X30338Y-51340D01*
X30493Y-51185D01*
X30577Y-50983D01*
X30577Y-50765D01*
X30494Y-50562D01*
X30339Y-50408D01*
X30257Y-50374D01*
X30338Y-50340D01*
X30493Y-50185D01*
X30577Y-49983D01*
X30577Y-49765D01*
X30494Y-49562D01*
X30339Y-49408D01*
X30137Y-49324D01*
X29918Y-49323D01*
X29716Y-49407D01*
X29561Y-49562D01*
X29527Y-49643D01*
X29494Y-49562D01*
X29339Y-49408D01*
X29137Y-49324D01*
X28918Y-49323D01*
X28716Y-49407D01*
X28561Y-49562D01*
X28477Y-49764D01*
X28477Y-49982D01*
X28561Y-50185D01*
X28715Y-50340D01*
X28797Y-50373D01*
X28716Y-50407D01*
X28561Y-50562D01*
X28477Y-50764D01*
X28477Y-50982D01*
X28561Y-51185D01*
X28715Y-51340D01*
X28797Y-51373D01*
X28716Y-51407D01*
X28561Y-51562D01*
X28477Y-51764D01*
X28477Y-51982D01*
X28561Y-52185D01*
X28715Y-52340D01*
X28797Y-52373D01*
X28716Y-52407D01*
X28561Y-52562D01*
X28477Y-52764D01*
X28477Y-52982D01*
X28561Y-53185D01*
X28715Y-53340D01*
X28797Y-53373D01*
X28716Y-53407D01*
X28561Y-53562D01*
X28477Y-53764D01*
X28477Y-53982D01*
X28561Y-54185D01*
X28715Y-54340D01*
X28797Y-54373D01*
X28716Y-54407D01*
X28561Y-54562D01*
X28477Y-54764D01*
X28477Y-54982D01*
X28561Y-55185D01*
X28715Y-55340D01*
X28797Y-55373D01*
X28716Y-55407D01*
X28561Y-55562D01*
X28477Y-55764D01*
X28477Y-55982D01*
X28561Y-56185D01*
X28715Y-56340D01*
X28797Y-56373D01*
X28716Y-56407D01*
X28561Y-56562D01*
X28477Y-56764D01*
X28477Y-56982D01*
X28561Y-57185D01*
X28715Y-57340D01*
X28797Y-57373D01*
X28716Y-57407D01*
X28561Y-57562D01*
X28477Y-57764D01*
X28477Y-57982D01*
X28561Y-58185D01*
X28715Y-58340D01*
X28784Y-58368D01*
X28790Y-58377D01*
X28716Y-58407D01*
X28561Y-58562D01*
X28477Y-58764D01*
X28477Y-58982D01*
X28561Y-59185D01*
X28715Y-59340D01*
X28797Y-59373D01*
X28716Y-59407D01*
X28561Y-59562D01*
X28477Y-59764D01*
X28477Y-59982D01*
X28561Y-60185D01*
X28715Y-60340D01*
X28797Y-60373D01*
X28716Y-60407D01*
X28561Y-60562D01*
X28477Y-60764D01*
X28477Y-60982D01*
X28561Y-61185D01*
X28715Y-61340D01*
X28797Y-61373D01*
X28716Y-61407D01*
X28561Y-61562D01*
X28477Y-61764D01*
X28477Y-61982D01*
X28561Y-62185D01*
X28715Y-62340D01*
X28797Y-62373D01*
X28716Y-62407D01*
X28561Y-62562D01*
X28477Y-62764D01*
X28477Y-62982D01*
X28561Y-63185D01*
X28715Y-63340D01*
X28797Y-63373D01*
X28716Y-63407D01*
X28561Y-63562D01*
X28477Y-63764D01*
X28477Y-63982D01*
X28561Y-64185D01*
X28715Y-64340D01*
X28797Y-64373D01*
X28716Y-64407D01*
X28561Y-64562D01*
X28477Y-64764D01*
X28477Y-64982D01*
X28561Y-65185D01*
X28699Y-65323D01*
X28678Y-65323D01*
X28586Y-65361D01*
X28515Y-65432D01*
X28477Y-65524D01*
X28477Y-65623D01*
X28477Y-66223D01*
X28515Y-66315D01*
X28585Y-66385D01*
X28677Y-66423D01*
X28774Y-66424D01*
X28822Y-66496D01*
X29066Y-66740D01*
X29160Y-66803D01*
X29271Y-66825D01*
X62740Y-66825D01*
X62851Y-66803D01*
X62945Y-66740D01*
X63238Y-66447D01*
X63517Y-66447D01*
X63791Y-66720D01*
X63885Y-66783D01*
X63996Y-66805D01*
X93346Y-66805D01*
X93457Y-66783D01*
X93551Y-66720D01*
X93848Y-66424D01*
X94028Y-66424D01*
X93616Y-66835D01*
X47381Y-66835D01*
X47381Y-66835D01*
X47270Y-66858D01*
X47176Y-66920D01*
X47176Y-66920D01*
X47176Y-66920D01*
X42940Y-71157D01*
X42877Y-71251D01*
X42856Y-71360D01*
X42781Y-71360D01*
X42689Y-71398D01*
X42618Y-71468D01*
X42580Y-71560D01*
X42580Y-71659D01*
X42580Y-72289D01*
X42618Y-72381D01*
X42688Y-72451D01*
X42780Y-72490D01*
X42880Y-72490D01*
X43510Y-72490D01*
X43602Y-72452D01*
X43672Y-72381D01*
X43710Y-72290D01*
X43710Y-72289D01*
X43825Y-72403D01*
X44032Y-72490D01*
X44257Y-72490D01*
X44465Y-72404D01*
X44624Y-72245D01*
X44645Y-72194D01*
X44666Y-72244D01*
X44825Y-72403D01*
X45032Y-72490D01*
X45257Y-72490D01*
X45465Y-72404D01*
X45624Y-72245D01*
X45645Y-72194D01*
X45666Y-72244D01*
X45825Y-72403D01*
X46032Y-72490D01*
X46257Y-72490D01*
X46465Y-72404D01*
X46624Y-72245D01*
X46645Y-72194D01*
X46666Y-72244D01*
X46825Y-72403D01*
X47032Y-72490D01*
X47257Y-72490D01*
X47465Y-72404D01*
X47624Y-72245D01*
X47645Y-72194D01*
X47666Y-72244D01*
X47825Y-72403D01*
X48032Y-72490D01*
X48257Y-72490D01*
X48465Y-72404D01*
X48624Y-72245D01*
X48645Y-72194D01*
X48666Y-72244D01*
X48825Y-72403D01*
X49032Y-72490D01*
X49257Y-72490D01*
X49465Y-72404D01*
X49624Y-72245D01*
X49645Y-72194D01*
X49666Y-72244D01*
X49825Y-72403D01*
X50032Y-72490D01*
X50257Y-72490D01*
X50465Y-72404D01*
X50624Y-72245D01*
X50643Y-72200D01*
X50652Y-72222D01*
X50748Y-72251D01*
X51074Y-71925D01*
X50748Y-71599D01*
X50652Y-71628D01*
X50643Y-71651D01*
X50625Y-71605D01*
X51311Y-70919D01*
X53837Y-70919D01*
X53696Y-70978D01*
X53576Y-71097D01*
X53512Y-71253D01*
X53511Y-71347D01*
X51823Y-73035D01*
X51715Y-73035D01*
X51715Y-72010D01*
X51704Y-71786D01*
X51639Y-71628D01*
X51542Y-71599D01*
X51471Y-71669D01*
X51471Y-71528D01*
X51442Y-71431D01*
X51231Y-71355D01*
X51006Y-71366D01*
X50848Y-71431D01*
X50819Y-71528D01*
X51145Y-71854D01*
X51471Y-71528D01*
X51471Y-71669D01*
X51216Y-71925D01*
X51542Y-72251D01*
X51639Y-72222D01*
X51715Y-72010D01*
X51715Y-73035D01*
X51471Y-73035D01*
X51471Y-72321D01*
X51145Y-71995D01*
X50819Y-72321D01*
X50848Y-72418D01*
X51060Y-72494D01*
X51284Y-72484D01*
X51442Y-72418D01*
X51471Y-72321D01*
X51471Y-73035D01*
X44055Y-73035D01*
X43921Y-73062D01*
X43807Y-73138D01*
X42898Y-74047D01*
X42822Y-74161D01*
X42795Y-74295D01*
X42795Y-74476D01*
X42666Y-74604D01*
X42580Y-74812D01*
X42580Y-75037D01*
X42666Y-75244D01*
X42825Y-75403D01*
X43032Y-75490D01*
X43257Y-75490D01*
X43465Y-75404D01*
X43624Y-75245D01*
X43645Y-75194D01*
X43666Y-75244D01*
X43825Y-75403D01*
X44032Y-75490D01*
X44257Y-75490D01*
X44465Y-75404D01*
X44624Y-75245D01*
X44645Y-75194D01*
X44666Y-75244D01*
X44795Y-75374D01*
X44795Y-77862D01*
X44822Y-77996D01*
X44898Y-78109D01*
X47488Y-80700D01*
X47602Y-80776D01*
X47736Y-80802D01*
X48064Y-80802D01*
X47844Y-80893D01*
X47661Y-81076D01*
X47562Y-81315D01*
X47562Y-81573D01*
X47661Y-81812D01*
X47843Y-81995D01*
X48082Y-82094D01*
X48341Y-82094D01*
X48580Y-81996D01*
X48763Y-81813D01*
X48771Y-81794D01*
X68811Y-81794D01*
X68944Y-81768D01*
X68944Y-81768D01*
X69058Y-81692D01*
X73097Y-77653D01*
X83004Y-77653D01*
X83689Y-78337D01*
X83689Y-80886D01*
X83671Y-80893D01*
X83488Y-81076D01*
X83389Y-81315D01*
X83389Y-81573D01*
X83488Y-81812D01*
X83670Y-81995D01*
X83909Y-82094D01*
X84168Y-82094D01*
X84407Y-81996D01*
X84590Y-81813D01*
X84689Y-81574D01*
X84689Y-81316D01*
X84590Y-81077D01*
X84408Y-80894D01*
X84389Y-80886D01*
X84389Y-78192D01*
X84362Y-78058D01*
X84286Y-77945D01*
X84286Y-77945D01*
X83397Y-77055D01*
X83283Y-76979D01*
X83149Y-76953D01*
X72952Y-76953D01*
X72818Y-76979D01*
X72722Y-77044D01*
X72979Y-76787D01*
X78141Y-76787D01*
X78275Y-76760D01*
X78275Y-76760D01*
X78389Y-76684D01*
X82020Y-73052D01*
X82050Y-73065D01*
X82318Y-73065D01*
X82565Y-72963D01*
X82754Y-72774D01*
X82856Y-72527D01*
X82857Y-72260D01*
X82754Y-72013D01*
X82566Y-71824D01*
X82319Y-71721D01*
X82051Y-71721D01*
X81804Y-71823D01*
X81615Y-72012D01*
X81513Y-72259D01*
X81513Y-72526D01*
X81525Y-72557D01*
X77996Y-76087D01*
X72834Y-76087D01*
X72700Y-76113D01*
X72587Y-76189D01*
X68673Y-80102D01*
X47881Y-80102D01*
X45495Y-77717D01*
X45495Y-75374D01*
X45624Y-75245D01*
X45645Y-75194D01*
X45666Y-75244D01*
X45795Y-75374D01*
X45795Y-77681D01*
X45822Y-77815D01*
X45898Y-77928D01*
X47921Y-79952D01*
X47921Y-79952D01*
X48035Y-80028D01*
X48169Y-80054D01*
X48169Y-80054D01*
X48169Y-80054D01*
X68444Y-80054D01*
X68578Y-80028D01*
X68578Y-80028D01*
X68692Y-79952D01*
X72743Y-75901D01*
X74893Y-75901D01*
X75027Y-75874D01*
X75027Y-75874D01*
X75141Y-75798D01*
X77886Y-73052D01*
X77916Y-73065D01*
X78184Y-73065D01*
X78431Y-72963D01*
X78620Y-72774D01*
X78722Y-72527D01*
X78723Y-72260D01*
X78621Y-72013D01*
X78432Y-71824D01*
X78185Y-71721D01*
X77918Y-71721D01*
X77671Y-71823D01*
X77481Y-72012D01*
X77379Y-72259D01*
X77379Y-72526D01*
X77392Y-72557D01*
X74748Y-75201D01*
X72598Y-75201D01*
X72464Y-75227D01*
X72350Y-75303D01*
X68299Y-79354D01*
X48314Y-79354D01*
X46495Y-77536D01*
X46495Y-75374D01*
X46624Y-75245D01*
X46645Y-75194D01*
X46666Y-75244D01*
X46795Y-75374D01*
X46795Y-77519D01*
X46822Y-77653D01*
X46898Y-77767D01*
X48197Y-79066D01*
X48197Y-79066D01*
X48310Y-79142D01*
X48444Y-79168D01*
X48444Y-79168D01*
X48444Y-79168D01*
X67492Y-79168D01*
X67626Y-79142D01*
X67626Y-79142D01*
X67739Y-79066D01*
X73753Y-73052D01*
X73783Y-73065D01*
X74050Y-73065D01*
X74297Y-72963D01*
X74486Y-72774D01*
X74589Y-72527D01*
X74589Y-72260D01*
X74487Y-72013D01*
X74298Y-71824D01*
X74051Y-71721D01*
X73784Y-71721D01*
X73537Y-71823D01*
X73348Y-72012D01*
X73245Y-72259D01*
X73245Y-72526D01*
X73258Y-72557D01*
X67347Y-78468D01*
X67290Y-78468D01*
X67290Y-77809D01*
X67290Y-77209D01*
X67252Y-77117D01*
X67181Y-77047D01*
X67090Y-77009D01*
X66990Y-77009D01*
X66390Y-77009D01*
X66298Y-77046D01*
X66228Y-77117D01*
X66190Y-77209D01*
X66190Y-77231D01*
X66052Y-77093D01*
X65850Y-77009D01*
X65631Y-77008D01*
X65429Y-77092D01*
X65274Y-77247D01*
X65190Y-77449D01*
X65190Y-77667D01*
X65273Y-77870D01*
X65428Y-78025D01*
X65630Y-78108D01*
X65849Y-78109D01*
X66051Y-78025D01*
X66190Y-77887D01*
X66190Y-77908D01*
X66228Y-78000D01*
X66298Y-78070D01*
X66390Y-78109D01*
X66489Y-78109D01*
X67089Y-78109D01*
X67181Y-78071D01*
X67251Y-78000D01*
X67290Y-77909D01*
X67290Y-77809D01*
X67290Y-78468D01*
X51739Y-78468D01*
X51739Y-77612D01*
X51739Y-77012D01*
X51701Y-76920D01*
X51630Y-76850D01*
X51538Y-76812D01*
X51439Y-76812D01*
X50839Y-76812D01*
X50747Y-76850D01*
X50677Y-76920D01*
X50639Y-77012D01*
X50639Y-77034D01*
X50500Y-76896D01*
X50298Y-76812D01*
X50080Y-76812D01*
X49877Y-76895D01*
X49722Y-77050D01*
X49639Y-77252D01*
X49638Y-77471D01*
X49722Y-77673D01*
X49877Y-77828D01*
X50079Y-77912D01*
X50297Y-77912D01*
X50500Y-77828D01*
X50638Y-77690D01*
X50638Y-77711D01*
X50676Y-77803D01*
X50747Y-77874D01*
X50839Y-77912D01*
X50938Y-77912D01*
X51538Y-77912D01*
X51630Y-77874D01*
X51700Y-77804D01*
X51738Y-77712D01*
X51739Y-77612D01*
X51739Y-78468D01*
X48589Y-78468D01*
X47495Y-77374D01*
X47495Y-75374D01*
X47624Y-75245D01*
X47645Y-75194D01*
X47666Y-75244D01*
X47825Y-75403D01*
X48032Y-75490D01*
X48257Y-75490D01*
X48465Y-75404D01*
X48624Y-75245D01*
X48645Y-75194D01*
X48666Y-75244D01*
X48825Y-75403D01*
X49032Y-75490D01*
X49257Y-75490D01*
X49465Y-75404D01*
X49624Y-75245D01*
X49645Y-75194D01*
X49666Y-75244D01*
X49795Y-75374D01*
X49795Y-75578D01*
X49822Y-75712D01*
X49898Y-75826D01*
X50421Y-76349D01*
X50535Y-76425D01*
X50535Y-76425D01*
X50669Y-76452D01*
X68208Y-76452D01*
X68342Y-76425D01*
X68342Y-76425D01*
X68456Y-76349D01*
X73806Y-70999D01*
X83937Y-70999D01*
X85167Y-72229D01*
X85155Y-72259D01*
X85154Y-72526D01*
X85256Y-72773D01*
X85445Y-72962D01*
X85692Y-73065D01*
X85959Y-73065D01*
X86206Y-72963D01*
X86396Y-72774D01*
X86498Y-72527D01*
X86498Y-72260D01*
X86396Y-72013D01*
X86207Y-71824D01*
X85960Y-71721D01*
X85693Y-71721D01*
X85662Y-71734D01*
X84330Y-70402D01*
X84216Y-70326D01*
X84082Y-70299D01*
X73661Y-70299D01*
X73661Y-70299D01*
X73527Y-70326D01*
X73413Y-70402D01*
X73413Y-70402D01*
X73413Y-70402D01*
X68063Y-75752D01*
X67218Y-75752D01*
X67218Y-72000D01*
X67207Y-71792D01*
X67149Y-71652D01*
X67056Y-71628D01*
X66986Y-71698D01*
X66986Y-71557D01*
X66961Y-71464D01*
X66764Y-71395D01*
X66556Y-71406D01*
X66416Y-71464D01*
X66391Y-71557D01*
X66688Y-71854D01*
X66986Y-71557D01*
X66986Y-71698D01*
X66759Y-71925D01*
X67056Y-72222D01*
X67149Y-72198D01*
X67218Y-72000D01*
X67218Y-75752D01*
X67214Y-75752D01*
X67214Y-74821D01*
X67134Y-74628D01*
X66986Y-74480D01*
X66986Y-74480D01*
X66986Y-72292D01*
X66688Y-71995D01*
X66618Y-72066D01*
X66618Y-71925D01*
X66321Y-71628D01*
X66228Y-71652D01*
X66189Y-71762D01*
X66134Y-71628D01*
X65986Y-71480D01*
X65793Y-71400D01*
X65585Y-71400D01*
X65391Y-71479D01*
X65244Y-71627D01*
X65188Y-71760D01*
X65134Y-71628D01*
X64986Y-71480D01*
X64793Y-71400D01*
X64585Y-71400D01*
X64391Y-71479D01*
X64244Y-71627D01*
X64188Y-71760D01*
X64134Y-71628D01*
X63986Y-71480D01*
X63793Y-71400D01*
X63585Y-71400D01*
X63391Y-71479D01*
X63244Y-71627D01*
X63188Y-71760D01*
X63134Y-71628D01*
X62986Y-71480D01*
X62793Y-71400D01*
X62585Y-71400D01*
X62391Y-71479D01*
X62244Y-71627D01*
X62188Y-71760D01*
X62134Y-71628D01*
X61986Y-71480D01*
X61793Y-71400D01*
X61585Y-71400D01*
X61391Y-71479D01*
X61244Y-71627D01*
X61188Y-71760D01*
X61134Y-71628D01*
X60986Y-71480D01*
X60793Y-71400D01*
X60585Y-71400D01*
X60391Y-71479D01*
X60244Y-71627D01*
X60214Y-71700D01*
X60214Y-71600D01*
X60176Y-71508D01*
X60105Y-71438D01*
X60013Y-71400D01*
X59914Y-71400D01*
X59364Y-71400D01*
X59272Y-71438D01*
X59202Y-71508D01*
X59164Y-71600D01*
X59163Y-71699D01*
X59163Y-72249D01*
X59201Y-72341D01*
X59272Y-72412D01*
X59364Y-72450D01*
X59463Y-72450D01*
X60013Y-72450D01*
X60105Y-72412D01*
X60175Y-72341D01*
X60213Y-72250D01*
X60214Y-72150D01*
X60214Y-72150D01*
X60243Y-72222D01*
X60391Y-72370D01*
X60584Y-72450D01*
X60792Y-72450D01*
X60985Y-72370D01*
X61133Y-72222D01*
X61189Y-72089D01*
X61243Y-72222D01*
X61391Y-72370D01*
X61584Y-72450D01*
X61792Y-72450D01*
X61985Y-72370D01*
X62133Y-72222D01*
X62189Y-72089D01*
X62243Y-72222D01*
X62391Y-72370D01*
X62584Y-72450D01*
X62792Y-72450D01*
X62985Y-72370D01*
X63133Y-72222D01*
X63189Y-72089D01*
X63243Y-72222D01*
X63391Y-72370D01*
X63584Y-72450D01*
X63792Y-72450D01*
X63985Y-72370D01*
X64133Y-72222D01*
X64189Y-72089D01*
X64243Y-72222D01*
X64391Y-72370D01*
X64584Y-72450D01*
X64792Y-72450D01*
X64985Y-72370D01*
X65133Y-72222D01*
X65189Y-72089D01*
X65243Y-72222D01*
X65391Y-72370D01*
X65584Y-72450D01*
X65792Y-72450D01*
X65985Y-72370D01*
X66133Y-72222D01*
X66186Y-72096D01*
X66228Y-72198D01*
X66321Y-72222D01*
X66618Y-71925D01*
X66618Y-72066D01*
X66391Y-72292D01*
X66416Y-72385D01*
X66613Y-72455D01*
X66821Y-72443D01*
X66961Y-72385D01*
X66986Y-72292D01*
X66986Y-74480D01*
X66793Y-74400D01*
X66585Y-74400D01*
X66391Y-74479D01*
X66244Y-74627D01*
X66188Y-74760D01*
X66134Y-74628D01*
X65986Y-74480D01*
X65793Y-74400D01*
X65585Y-74400D01*
X65391Y-74479D01*
X65244Y-74627D01*
X65188Y-74760D01*
X65134Y-74628D01*
X64986Y-74480D01*
X64793Y-74400D01*
X64585Y-74400D01*
X64391Y-74479D01*
X64244Y-74627D01*
X64188Y-74760D01*
X64134Y-74628D01*
X63986Y-74480D01*
X63793Y-74400D01*
X63585Y-74400D01*
X63391Y-74479D01*
X63244Y-74627D01*
X63188Y-74760D01*
X63134Y-74628D01*
X62986Y-74480D01*
X62793Y-74400D01*
X62585Y-74400D01*
X62391Y-74479D01*
X62244Y-74627D01*
X62188Y-74760D01*
X62134Y-74628D01*
X61986Y-74480D01*
X61793Y-74400D01*
X61585Y-74400D01*
X61391Y-74479D01*
X61244Y-74627D01*
X61188Y-74760D01*
X61134Y-74628D01*
X60986Y-74480D01*
X60793Y-74400D01*
X60585Y-74400D01*
X60391Y-74479D01*
X60244Y-74627D01*
X60188Y-74760D01*
X60134Y-74628D01*
X59986Y-74480D01*
X59793Y-74400D01*
X59585Y-74400D01*
X59391Y-74479D01*
X59244Y-74627D01*
X59164Y-74820D01*
X59163Y-75029D01*
X59243Y-75222D01*
X59391Y-75370D01*
X59584Y-75450D01*
X59792Y-75450D01*
X59985Y-75370D01*
X60133Y-75222D01*
X60189Y-75089D01*
X60243Y-75222D01*
X60391Y-75370D01*
X60584Y-75450D01*
X60792Y-75450D01*
X60985Y-75370D01*
X61133Y-75222D01*
X61189Y-75089D01*
X61243Y-75222D01*
X61391Y-75370D01*
X61584Y-75450D01*
X61792Y-75450D01*
X61985Y-75370D01*
X62133Y-75222D01*
X62189Y-75089D01*
X62243Y-75222D01*
X62391Y-75370D01*
X62584Y-75450D01*
X62792Y-75450D01*
X62985Y-75370D01*
X63133Y-75222D01*
X63189Y-75089D01*
X63243Y-75222D01*
X63391Y-75370D01*
X63584Y-75450D01*
X63792Y-75450D01*
X63985Y-75370D01*
X64133Y-75222D01*
X64189Y-75089D01*
X64243Y-75222D01*
X64391Y-75370D01*
X64584Y-75450D01*
X64792Y-75450D01*
X64985Y-75370D01*
X65133Y-75222D01*
X65189Y-75089D01*
X65243Y-75222D01*
X65391Y-75370D01*
X65584Y-75450D01*
X65792Y-75450D01*
X65985Y-75370D01*
X66133Y-75222D01*
X66189Y-75089D01*
X66243Y-75222D01*
X66391Y-75370D01*
X66584Y-75450D01*
X66792Y-75450D01*
X66985Y-75370D01*
X67133Y-75222D01*
X67213Y-75030D01*
X67214Y-74821D01*
X67214Y-75752D01*
X50814Y-75752D01*
X50495Y-75433D01*
X50495Y-75374D01*
X50624Y-75245D01*
X50645Y-75194D01*
X50666Y-75244D01*
X50825Y-75403D01*
X51032Y-75490D01*
X51257Y-75490D01*
X51465Y-75404D01*
X51624Y-75245D01*
X51710Y-75038D01*
X51710Y-74813D01*
X51624Y-74605D01*
X51466Y-74446D01*
X51258Y-74360D01*
X51033Y-74360D01*
X50826Y-74445D01*
X50666Y-74604D01*
X50645Y-74655D01*
X50624Y-74605D01*
X50466Y-74446D01*
X50258Y-74360D01*
X50033Y-74360D01*
X49826Y-74445D01*
X49666Y-74604D01*
X49645Y-74655D01*
X49624Y-74605D01*
X49466Y-74446D01*
X49258Y-74360D01*
X49033Y-74360D01*
X48826Y-74445D01*
X48666Y-74604D01*
X48645Y-74655D01*
X48624Y-74605D01*
X48466Y-74446D01*
X48258Y-74360D01*
X48033Y-74360D01*
X47826Y-74445D01*
X47666Y-74604D01*
X47645Y-74655D01*
X47624Y-74605D01*
X47466Y-74446D01*
X47258Y-74360D01*
X47033Y-74360D01*
X46826Y-74445D01*
X46666Y-74604D01*
X46645Y-74655D01*
X46624Y-74605D01*
X46466Y-74446D01*
X46258Y-74360D01*
X46033Y-74360D01*
X45826Y-74445D01*
X45666Y-74604D01*
X45645Y-74655D01*
X45624Y-74605D01*
X45466Y-74446D01*
X45258Y-74360D01*
X45033Y-74360D01*
X44826Y-74445D01*
X44666Y-74604D01*
X44645Y-74655D01*
X44624Y-74605D01*
X44548Y-74529D01*
X44790Y-74287D01*
X52401Y-74287D01*
X52535Y-74260D01*
X52535Y-74260D01*
X52649Y-74184D01*
X54833Y-71999D01*
X54847Y-71999D01*
X55004Y-71935D01*
X55123Y-71815D01*
X55188Y-71659D01*
X55188Y-71490D01*
X55124Y-71334D01*
X55004Y-71214D01*
X54848Y-71149D01*
X54679Y-71149D01*
X54523Y-71214D01*
X54403Y-71333D01*
X54338Y-71489D01*
X54338Y-71504D01*
X54320Y-71522D01*
X54361Y-71423D01*
X54362Y-71254D01*
X54297Y-71098D01*
X54178Y-70978D01*
X54037Y-70919D01*
X61431Y-70919D01*
X61501Y-70990D01*
X61657Y-71054D01*
X61826Y-71054D01*
X61982Y-70990D01*
X62102Y-70870D01*
X62167Y-70714D01*
X62167Y-70545D01*
X62146Y-70496D01*
X62602Y-70496D01*
X62672Y-70566D01*
X62828Y-70631D01*
X62997Y-70631D01*
X63153Y-70567D01*
X63273Y-70447D01*
X63338Y-70291D01*
X63338Y-70122D01*
X63330Y-70102D01*
X63803Y-70102D01*
X63873Y-70173D01*
X64029Y-70237D01*
X64198Y-70238D01*
X64354Y-70173D01*
X64474Y-70054D01*
X64539Y-69897D01*
X64539Y-69728D01*
X64498Y-69630D01*
X65062Y-69630D01*
X65123Y-69690D01*
X65279Y-69755D01*
X65448Y-69755D01*
X65604Y-69691D01*
X65724Y-69571D01*
X65789Y-69415D01*
X65789Y-69246D01*
X65724Y-69090D01*
X65713Y-69079D01*
X66480Y-69079D01*
X66560Y-69159D01*
X66716Y-69224D01*
X66885Y-69224D01*
X67041Y-69159D01*
X67161Y-69040D01*
X67226Y-68884D01*
X67226Y-68715D01*
X67161Y-68558D01*
X67140Y-68538D01*
X68232Y-68538D01*
X68321Y-68627D01*
X68478Y-68692D01*
X68647Y-68692D01*
X68803Y-68628D01*
X68923Y-68508D01*
X68987Y-68352D01*
X68988Y-68183D01*
X68923Y-68027D01*
X68853Y-67957D01*
X70092Y-67957D01*
X70172Y-68037D01*
X70328Y-68102D01*
X70497Y-68102D01*
X70653Y-68037D01*
X70773Y-67918D01*
X70838Y-67762D01*
X70838Y-67592D01*
X70773Y-67436D01*
X70753Y-67415D01*
X93736Y-67415D01*
X93847Y-67393D01*
X93941Y-67331D01*
X94857Y-66415D01*
X94878Y-66423D01*
X95097Y-66424D01*
X95299Y-66340D01*
X95454Y-66185D01*
X95538Y-65983D01*
X95538Y-65765D01*
X95538Y-68687D01*
X95512Y-68624D01*
X95139Y-68251D01*
X94652Y-68049D01*
X94125Y-68048D01*
X93638Y-68250D01*
X93265Y-68622D01*
X93063Y-69109D01*
X93062Y-69636D01*
X93264Y-70123D01*
X93636Y-70496D01*
X94123Y-70698D01*
X94650Y-70699D01*
X95137Y-70497D01*
X95510Y-70125D01*
X95712Y-69638D01*
X95713Y-69111D01*
X95713Y-85805D01*
X95635Y-85617D01*
X95344Y-85325D01*
X94963Y-85167D01*
X94793Y-85167D01*
X94793Y-79310D01*
X94701Y-79089D01*
X94541Y-78929D01*
X94701Y-78769D01*
X94792Y-78549D01*
X94793Y-78310D01*
X94701Y-78089D01*
X94533Y-77920D01*
X94312Y-77829D01*
X94074Y-77829D01*
X93853Y-77920D01*
X93729Y-78043D01*
X90534Y-78043D01*
X90534Y-72260D01*
X90432Y-72013D01*
X90243Y-71824D01*
X89996Y-71721D01*
X89729Y-71721D01*
X89482Y-71823D01*
X89292Y-72012D01*
X89190Y-72259D01*
X89190Y-72526D01*
X89292Y-72773D01*
X89481Y-72962D01*
X89727Y-73065D01*
X89995Y-73065D01*
X90242Y-72963D01*
X90431Y-72774D01*
X90533Y-72527D01*
X90534Y-72260D01*
X90534Y-78043D01*
X90444Y-78043D01*
X90432Y-78013D01*
X90243Y-77824D01*
X89996Y-77721D01*
X89729Y-77721D01*
X89482Y-77823D01*
X89292Y-78012D01*
X89190Y-78259D01*
X89190Y-78526D01*
X89292Y-78773D01*
X89481Y-78962D01*
X89727Y-79065D01*
X89995Y-79065D01*
X90242Y-78963D01*
X90431Y-78774D01*
X90444Y-78743D01*
X93673Y-78743D01*
X93683Y-78768D01*
X93844Y-78929D01*
X93694Y-79079D01*
X92982Y-79079D01*
X92848Y-79105D01*
X92734Y-79181D01*
X89382Y-82533D01*
X86498Y-82533D01*
X86498Y-78260D01*
X86396Y-78013D01*
X86207Y-77824D01*
X85960Y-77721D01*
X85693Y-77721D01*
X85446Y-77823D01*
X85257Y-78012D01*
X85155Y-78259D01*
X85154Y-78526D01*
X85256Y-78773D01*
X85445Y-78962D01*
X85692Y-79065D01*
X85959Y-79065D01*
X86206Y-78963D01*
X86396Y-78774D01*
X86498Y-78527D01*
X86498Y-78260D01*
X86498Y-82533D01*
X82857Y-82533D01*
X82857Y-78260D01*
X82754Y-78013D01*
X82566Y-77824D01*
X82319Y-77721D01*
X82051Y-77721D01*
X81804Y-77823D01*
X81615Y-78012D01*
X81513Y-78259D01*
X81513Y-78526D01*
X81615Y-78773D01*
X81803Y-78962D01*
X82050Y-79065D01*
X82318Y-79065D01*
X82565Y-78963D01*
X82754Y-78774D01*
X82856Y-78527D01*
X82857Y-78260D01*
X82857Y-82533D01*
X82689Y-82533D01*
X82689Y-81316D01*
X82590Y-81077D01*
X82408Y-80894D01*
X82169Y-80794D01*
X81910Y-80794D01*
X81671Y-80893D01*
X81488Y-81076D01*
X81389Y-81315D01*
X81389Y-81573D01*
X81488Y-81812D01*
X81670Y-81995D01*
X81909Y-82094D01*
X82168Y-82094D01*
X82407Y-81996D01*
X82590Y-81813D01*
X82689Y-81574D01*
X82689Y-81316D01*
X82689Y-82533D01*
X81129Y-82533D01*
X80499Y-81904D01*
X80590Y-81813D01*
X80689Y-81574D01*
X80689Y-81316D01*
X80590Y-81077D01*
X80408Y-80894D01*
X80169Y-80794D01*
X79910Y-80794D01*
X79671Y-80893D01*
X79488Y-81076D01*
X79389Y-81315D01*
X79389Y-81573D01*
X79488Y-81812D01*
X79670Y-81995D01*
X79703Y-82009D01*
X79703Y-82009D01*
X79716Y-82072D01*
X79791Y-82186D01*
X80736Y-83131D01*
X80850Y-83207D01*
X80984Y-83233D01*
X89527Y-83233D01*
X89661Y-83207D01*
X89661Y-83207D01*
X89775Y-83131D01*
X93127Y-79779D01*
X93694Y-79779D01*
X93758Y-79843D01*
X93701Y-79867D01*
X93631Y-79937D01*
X93592Y-80029D01*
X93592Y-80128D01*
X93592Y-80828D01*
X93630Y-80920D01*
X93701Y-80990D01*
X93792Y-81029D01*
X93892Y-81029D01*
X94592Y-81029D01*
X94684Y-80991D01*
X94754Y-80920D01*
X94792Y-80829D01*
X94792Y-80729D01*
X94792Y-80029D01*
X94754Y-79937D01*
X94684Y-79867D01*
X94627Y-79843D01*
X94701Y-79769D01*
X94792Y-79549D01*
X94793Y-79310D01*
X94793Y-85167D01*
X94550Y-85167D01*
X94169Y-85324D01*
X93876Y-85616D01*
X93718Y-85997D01*
X93718Y-86410D01*
X93875Y-86791D01*
X94167Y-87083D01*
X94548Y-87241D01*
X94961Y-87242D01*
X95342Y-87084D01*
X95634Y-86793D01*
X95793Y-86411D01*
X95793Y-85999D01*
X95793Y-87352D01*
X78723Y-87352D01*
X78723Y-78260D01*
X78621Y-78013D01*
X78432Y-77824D01*
X78185Y-77721D01*
X77918Y-77721D01*
X77671Y-77823D01*
X77481Y-78012D01*
X77379Y-78259D01*
X77379Y-78526D01*
X77481Y-78773D01*
X77670Y-78962D01*
X77916Y-79065D01*
X78184Y-79065D01*
X78431Y-78963D01*
X78620Y-78774D01*
X78722Y-78527D01*
X78723Y-78260D01*
X78723Y-87352D01*
X78689Y-87352D01*
X78689Y-81316D01*
X78590Y-81077D01*
X78408Y-80894D01*
X78169Y-80794D01*
X77910Y-80794D01*
X77671Y-80893D01*
X77488Y-81076D01*
X77389Y-81315D01*
X77389Y-81573D01*
X77488Y-81812D01*
X77670Y-81995D01*
X77909Y-82094D01*
X78168Y-82094D01*
X78407Y-81996D01*
X78590Y-81813D01*
X78689Y-81574D01*
X78689Y-81316D01*
X78689Y-87352D01*
X76689Y-87352D01*
X76689Y-81795D01*
X76689Y-80995D01*
X76651Y-80903D01*
X76581Y-80833D01*
X76489Y-80794D01*
X76389Y-80794D01*
X75884Y-80794D01*
X74267Y-79177D01*
X74267Y-78976D01*
X74297Y-78963D01*
X74486Y-78774D01*
X74589Y-78527D01*
X74589Y-78260D01*
X74487Y-78013D01*
X74298Y-77824D01*
X74051Y-77721D01*
X73784Y-77721D01*
X73537Y-77823D01*
X73348Y-78012D01*
X73245Y-78259D01*
X73245Y-78526D01*
X73347Y-78773D01*
X73536Y-78962D01*
X73567Y-78975D01*
X73567Y-79322D01*
X73593Y-79456D01*
X73669Y-79570D01*
X75389Y-81289D01*
X75389Y-81894D01*
X75427Y-81986D01*
X75497Y-82056D01*
X75589Y-82094D01*
X75677Y-82094D01*
X74264Y-83508D01*
X74041Y-83508D01*
X74139Y-83410D01*
X74204Y-83254D01*
X74204Y-83085D01*
X74140Y-82928D01*
X74020Y-82809D01*
X73864Y-82744D01*
X73695Y-82744D01*
X73539Y-82808D01*
X73528Y-82819D01*
X46862Y-82819D01*
X46862Y-81316D01*
X46763Y-81077D01*
X46581Y-80894D01*
X46342Y-80794D01*
X46083Y-80794D01*
X45844Y-80893D01*
X45661Y-81076D01*
X45562Y-81315D01*
X45562Y-81573D01*
X45661Y-81812D01*
X45843Y-81995D01*
X46082Y-82094D01*
X46341Y-82094D01*
X46580Y-81996D01*
X46763Y-81813D01*
X46862Y-81574D01*
X46862Y-81316D01*
X46862Y-82819D01*
X44862Y-82819D01*
X44862Y-81316D01*
X44763Y-81077D01*
X44581Y-80894D01*
X44342Y-80794D01*
X44083Y-80794D01*
X44065Y-80802D01*
X42444Y-79181D01*
X42330Y-79105D01*
X42196Y-79079D01*
X31797Y-79079D01*
X31647Y-78929D01*
X31797Y-78779D01*
X34868Y-78779D01*
X35052Y-78962D01*
X35298Y-79065D01*
X35566Y-79065D01*
X35813Y-78963D01*
X36002Y-78774D01*
X36104Y-78527D01*
X36105Y-78260D01*
X36105Y-72260D01*
X36002Y-72013D01*
X35814Y-71824D01*
X35567Y-71721D01*
X35300Y-71721D01*
X35052Y-71823D01*
X34863Y-72012D01*
X34761Y-72259D01*
X34761Y-72526D01*
X34863Y-72773D01*
X35052Y-72962D01*
X35298Y-73065D01*
X35566Y-73065D01*
X35813Y-72963D01*
X36002Y-72774D01*
X36104Y-72527D01*
X36105Y-72260D01*
X36105Y-78260D01*
X36002Y-78013D01*
X35814Y-77824D01*
X35567Y-77721D01*
X35300Y-77721D01*
X35052Y-77823D01*
X34863Y-78012D01*
X34836Y-78079D01*
X31797Y-78079D01*
X31639Y-77920D01*
X31419Y-77829D01*
X31180Y-77829D01*
X30959Y-77920D01*
X30790Y-78088D01*
X30752Y-78180D01*
X30752Y-69111D01*
X30551Y-68624D01*
X30179Y-68251D01*
X29692Y-68049D01*
X29165Y-68048D01*
X28677Y-68250D01*
X28304Y-68622D01*
X28102Y-69109D01*
X28102Y-69636D01*
X28303Y-70123D01*
X28676Y-70496D01*
X29162Y-70698D01*
X29689Y-70699D01*
X30177Y-70497D01*
X30550Y-70125D01*
X30752Y-69638D01*
X30752Y-69111D01*
X30752Y-78180D01*
X30699Y-78309D01*
X30699Y-78547D01*
X30790Y-78768D01*
X30950Y-78929D01*
X30790Y-79088D01*
X30699Y-79309D01*
X30699Y-79547D01*
X30790Y-79768D01*
X30864Y-79843D01*
X30807Y-79867D01*
X30737Y-79937D01*
X30699Y-80029D01*
X30699Y-80128D01*
X30699Y-80828D01*
X30737Y-80920D01*
X30807Y-80990D01*
X30899Y-81029D01*
X30998Y-81029D01*
X31698Y-81029D01*
X31790Y-80991D01*
X31861Y-80920D01*
X31899Y-80829D01*
X31899Y-80729D01*
X31899Y-80029D01*
X31861Y-79937D01*
X31791Y-79867D01*
X31733Y-79843D01*
X31797Y-79779D01*
X42051Y-79779D01*
X43570Y-81297D01*
X43562Y-81315D01*
X43562Y-81573D01*
X43661Y-81812D01*
X43843Y-81995D01*
X44082Y-82094D01*
X44341Y-82094D01*
X44580Y-81996D01*
X44763Y-81813D01*
X44862Y-81574D01*
X44862Y-81316D01*
X44862Y-82819D01*
X42900Y-82819D01*
X42562Y-82481D01*
X42562Y-82003D01*
X42580Y-81996D01*
X42763Y-81813D01*
X42862Y-81574D01*
X42862Y-81316D01*
X42763Y-81077D01*
X42581Y-80894D01*
X42342Y-80794D01*
X42083Y-80794D01*
X41844Y-80893D01*
X41661Y-81076D01*
X41562Y-81315D01*
X41562Y-81573D01*
X41661Y-81812D01*
X41843Y-81995D01*
X41862Y-82003D01*
X41862Y-82625D01*
X41889Y-82759D01*
X41965Y-82873D01*
X42508Y-83416D01*
X42508Y-83416D01*
X42621Y-83492D01*
X42700Y-83508D01*
X41601Y-83508D01*
X40562Y-82469D01*
X40562Y-82094D01*
X40662Y-82094D01*
X40754Y-82056D01*
X40824Y-81986D01*
X40862Y-81894D01*
X40862Y-81795D01*
X40862Y-80995D01*
X40824Y-80903D01*
X40754Y-80833D01*
X40662Y-80794D01*
X40563Y-80794D01*
X39763Y-80794D01*
X39671Y-80832D01*
X39600Y-80903D01*
X39562Y-80994D01*
X39562Y-81094D01*
X39562Y-81894D01*
X39600Y-81986D01*
X39670Y-82056D01*
X39762Y-82094D01*
X39862Y-82094D01*
X39862Y-82094D01*
X39862Y-82614D01*
X39889Y-82748D01*
X39965Y-82861D01*
X41209Y-84105D01*
X41209Y-84105D01*
X41322Y-84181D01*
X41456Y-84208D01*
X41456Y-84208D01*
X74409Y-84208D01*
X74543Y-84181D01*
X74543Y-84181D01*
X74656Y-84105D01*
X76286Y-82475D01*
X76362Y-82362D01*
X76362Y-82362D01*
X76389Y-82228D01*
X76389Y-82094D01*
X76488Y-82094D01*
X76580Y-82056D01*
X76651Y-81986D01*
X76689Y-81894D01*
X76689Y-81795D01*
X76689Y-87352D01*
X31645Y-87352D01*
X31641Y-87352D01*
X30517Y-87352D01*
X30517Y-85991D01*
X30360Y-85609D01*
X30068Y-85317D01*
X29687Y-85159D01*
X29274Y-85159D01*
X28893Y-85316D01*
X28601Y-85608D01*
X28443Y-85989D01*
X28442Y-86402D01*
X28600Y-86783D01*
X28891Y-87075D01*
X29273Y-87234D01*
X29685Y-87234D01*
X30067Y-87076D01*
X30359Y-86785D01*
X30517Y-86404D01*
X30517Y-85991D01*
X30517Y-87352D01*
X26820Y-87352D01*
X26820Y-36401D01*
X26820Y-33446D01*
X97423Y-33446D01*
X97423Y-87352D01*
M02*
