G04 (created by PCBNEW (2013-07-07 BZR 4022)-stable) date 12/17/2014 10:58:18 AM*
%MOIN*%
G04 Gerber Fmt 3.4, Leading zero omitted, Abs format*
%FSLAX34Y34*%
G01*
G70*
G90*
G04 APERTURE LIST*
%ADD10C,0.00590551*%
%ADD11C,0.011811*%
G04 APERTURE END LIST*
G54D10*
G54D11*
X97005Y-59597D02*
X96948Y-59569D01*
X96864Y-59569D01*
X96780Y-59597D01*
X96723Y-59654D01*
X96695Y-59710D01*
X96667Y-59822D01*
X96667Y-59907D01*
X96695Y-60019D01*
X96723Y-60075D01*
X96780Y-60132D01*
X96864Y-60160D01*
X96920Y-60160D01*
X97005Y-60132D01*
X97033Y-60104D01*
X97033Y-59907D01*
X96920Y-59907D01*
X96934Y-60795D02*
X96737Y-60795D01*
X96737Y-61105D02*
X96737Y-60514D01*
X97019Y-60514D01*
X96723Y-61819D02*
X96920Y-61819D01*
X97005Y-62128D02*
X96723Y-62128D01*
X96723Y-61538D01*
X97005Y-61538D01*
X96695Y-63152D02*
X96695Y-62561D01*
X96836Y-62561D01*
X96920Y-62589D01*
X96976Y-62646D01*
X97005Y-62702D01*
X97033Y-62814D01*
X97033Y-62899D01*
X97005Y-63011D01*
X96976Y-63068D01*
X96920Y-63124D01*
X96836Y-63152D01*
X96695Y-63152D01*
X97033Y-64041D02*
X97005Y-64069D01*
X96920Y-64097D01*
X96864Y-64097D01*
X96780Y-64069D01*
X96723Y-64012D01*
X96695Y-63956D01*
X96667Y-63844D01*
X96667Y-63759D01*
X96695Y-63647D01*
X96723Y-63591D01*
X96780Y-63534D01*
X96864Y-63506D01*
X96920Y-63506D01*
X97005Y-63534D01*
X97033Y-63562D01*
X96892Y-64811D02*
X96976Y-64839D01*
X97005Y-64867D01*
X97033Y-64924D01*
X97033Y-65008D01*
X97005Y-65064D01*
X96976Y-65092D01*
X96920Y-65120D01*
X96695Y-65120D01*
X96695Y-64530D01*
X96892Y-64530D01*
X96948Y-64558D01*
X96976Y-64586D01*
X97005Y-64642D01*
X97005Y-64699D01*
X96976Y-64755D01*
X96948Y-64783D01*
X96892Y-64811D01*
X96695Y-64811D01*
X96709Y-65897D02*
X96991Y-65897D01*
X96653Y-66065D02*
X96850Y-65475D01*
X97047Y-66065D01*
X32114Y-59136D02*
X32114Y-58546D01*
X32114Y-58827D02*
X32452Y-58827D01*
X32452Y-59136D02*
X32452Y-58546D01*
X32438Y-59597D02*
X32381Y-59569D01*
X32297Y-59569D01*
X32213Y-59597D01*
X32156Y-59654D01*
X32128Y-59710D01*
X32100Y-59822D01*
X32100Y-59907D01*
X32128Y-60019D01*
X32156Y-60075D01*
X32213Y-60132D01*
X32297Y-60160D01*
X32353Y-60160D01*
X32438Y-60132D01*
X32466Y-60104D01*
X32466Y-59907D01*
X32353Y-59907D01*
X32367Y-60874D02*
X32170Y-60874D01*
X32170Y-61183D02*
X32170Y-60593D01*
X32452Y-60593D01*
X32156Y-61819D02*
X32353Y-61819D01*
X32438Y-62128D02*
X32156Y-62128D01*
X32156Y-61538D01*
X32438Y-61538D01*
X32128Y-63073D02*
X32128Y-62483D01*
X32269Y-62483D01*
X32353Y-62511D01*
X32410Y-62567D01*
X32438Y-62623D01*
X32466Y-62736D01*
X32466Y-62820D01*
X32438Y-62933D01*
X32410Y-62989D01*
X32353Y-63045D01*
X32269Y-63073D01*
X32128Y-63073D01*
X32466Y-64041D02*
X32438Y-64069D01*
X32353Y-64097D01*
X32297Y-64097D01*
X32213Y-64069D01*
X32156Y-64012D01*
X32128Y-63956D01*
X32100Y-63844D01*
X32100Y-63759D01*
X32128Y-63647D01*
X32156Y-63591D01*
X32213Y-63534D01*
X32297Y-63506D01*
X32353Y-63506D01*
X32438Y-63534D01*
X32466Y-63562D01*
X32325Y-64732D02*
X32410Y-64760D01*
X32438Y-64789D01*
X32466Y-64845D01*
X32466Y-64929D01*
X32438Y-64985D01*
X32410Y-65014D01*
X32353Y-65042D01*
X32128Y-65042D01*
X32128Y-64451D01*
X32325Y-64451D01*
X32381Y-64479D01*
X32410Y-64507D01*
X32438Y-64564D01*
X32438Y-64620D01*
X32410Y-64676D01*
X32381Y-64704D01*
X32325Y-64732D01*
X32128Y-64732D01*
X32142Y-65897D02*
X32424Y-65897D01*
X32086Y-66065D02*
X32283Y-65475D01*
X32480Y-66065D01*
X32168Y-38740D02*
X32758Y-38543D01*
X32168Y-38346D01*
X32702Y-37812D02*
X32730Y-37840D01*
X32758Y-37924D01*
X32758Y-37980D01*
X32730Y-38065D01*
X32674Y-38121D01*
X32618Y-38149D01*
X32505Y-38177D01*
X32421Y-38177D01*
X32308Y-38149D01*
X32252Y-38121D01*
X32196Y-38065D01*
X32168Y-37980D01*
X32168Y-37924D01*
X32196Y-37840D01*
X32224Y-37812D01*
X32702Y-37221D02*
X32730Y-37249D01*
X32758Y-37334D01*
X32758Y-37390D01*
X32730Y-37474D01*
X32674Y-37530D01*
X32618Y-37559D01*
X32505Y-37587D01*
X32421Y-37587D01*
X32308Y-37559D01*
X32252Y-37530D01*
X32196Y-37474D01*
X32168Y-37390D01*
X32168Y-37334D01*
X32196Y-37249D01*
X32224Y-37221D01*
X32196Y-41079D02*
X32168Y-41136D01*
X32168Y-41220D01*
X32196Y-41304D01*
X32252Y-41361D01*
X32308Y-41389D01*
X32421Y-41417D01*
X32505Y-41417D01*
X32618Y-41389D01*
X32674Y-41361D01*
X32730Y-41304D01*
X32758Y-41220D01*
X32758Y-41164D01*
X32730Y-41079D01*
X32702Y-41051D01*
X32505Y-41051D01*
X32505Y-41164D01*
X32758Y-40798D02*
X32168Y-40798D01*
X32758Y-40461D01*
X32168Y-40461D01*
X32758Y-40179D02*
X32168Y-40179D01*
X32168Y-40039D01*
X32196Y-39955D01*
X32252Y-39898D01*
X32308Y-39870D01*
X32421Y-39842D01*
X32505Y-39842D01*
X32618Y-39870D01*
X32674Y-39898D01*
X32730Y-39955D01*
X32758Y-40039D01*
X32758Y-40179D01*
X91645Y-40843D02*
X91616Y-40899D01*
X91616Y-40984D01*
X91645Y-41068D01*
X91701Y-41124D01*
X91757Y-41152D01*
X91870Y-41181D01*
X91954Y-41181D01*
X92066Y-41152D01*
X92123Y-41124D01*
X92179Y-41068D01*
X92207Y-40984D01*
X92207Y-40928D01*
X92179Y-40843D01*
X92151Y-40815D01*
X91954Y-40815D01*
X91954Y-40928D01*
X92207Y-40562D02*
X91616Y-40562D01*
X92207Y-40224D01*
X91616Y-40224D01*
X92207Y-39943D02*
X91616Y-39943D01*
X91616Y-39803D01*
X91645Y-39718D01*
X91701Y-39662D01*
X91757Y-39634D01*
X91870Y-39606D01*
X91954Y-39606D01*
X92066Y-39634D01*
X92123Y-39662D01*
X92179Y-39718D01*
X92207Y-39803D01*
X92207Y-39943D01*
X91616Y-38425D02*
X92207Y-38228D01*
X91616Y-38031D01*
X92151Y-37497D02*
X92179Y-37525D01*
X92207Y-37609D01*
X92207Y-37665D01*
X92179Y-37750D01*
X92123Y-37806D01*
X92066Y-37834D01*
X91954Y-37862D01*
X91870Y-37862D01*
X91757Y-37834D01*
X91701Y-37806D01*
X91645Y-37750D01*
X91616Y-37665D01*
X91616Y-37609D01*
X91645Y-37525D01*
X91673Y-37497D01*
X92151Y-36906D02*
X92179Y-36934D01*
X92207Y-37019D01*
X92207Y-37075D01*
X92179Y-37159D01*
X92123Y-37215D01*
X92066Y-37244D01*
X91954Y-37272D01*
X91870Y-37272D01*
X91757Y-37244D01*
X91701Y-37215D01*
X91645Y-37159D01*
X91616Y-37075D01*
X91616Y-37019D01*
X91645Y-36934D01*
X91673Y-36906D01*
M02*
