G04 (created by PCBNEW (2013-07-07 BZR 4022)-stable) date 12/17/2014 10:58:18 AM*
%MOIN*%
G04 Gerber Fmt 3.4, Leading zero omitted, Abs format*
%FSLAX34Y34*%
G01*
G70*
G90*
G04 APERTURE LIST*
%ADD10C,0.00590551*%
%ADD11R,0.08X0.08*%
%ADD12C,0.08*%
%ADD13R,0.0629921X0.0629921*%
%ADD14C,0.0629921*%
%ADD15R,0.055X0.055*%
%ADD16C,0.055*%
%ADD17C,0.07*%
%ADD18R,0.07X0.07*%
%ADD19C,0.0843701*%
%ADD20R,0.06X0.06*%
%ADD21C,0.06*%
%ADD22R,0.1181X0.1181*%
%ADD23C,0.1181*%
%ADD24C,0.215*%
%ADD25C,0.15748*%
G04 APERTURE END LIST*
G54D10*
G54D11*
X40212Y-81444D03*
G54D12*
X42212Y-81444D03*
X44212Y-81444D03*
X46212Y-81444D03*
X46212Y-39318D03*
X44212Y-39318D03*
X42212Y-39318D03*
X40212Y-39318D03*
X48212Y-81444D03*
X48212Y-39318D03*
G54D13*
X43145Y-71925D03*
G54D14*
X44145Y-71925D03*
X45145Y-71925D03*
X46145Y-71925D03*
X47145Y-71925D03*
X48145Y-71925D03*
X49145Y-71925D03*
X50145Y-71925D03*
X51145Y-71925D03*
X51145Y-74925D03*
X50145Y-74925D03*
X49145Y-74925D03*
X48145Y-74925D03*
X47145Y-74925D03*
X46145Y-74925D03*
X45145Y-74925D03*
X44145Y-74925D03*
X43145Y-74925D03*
G54D15*
X59688Y-71925D03*
G54D16*
X60688Y-71925D03*
X61688Y-71925D03*
X62688Y-71925D03*
X63688Y-71925D03*
X64688Y-71925D03*
X65688Y-71925D03*
X66688Y-71925D03*
X66688Y-74925D03*
X65688Y-74925D03*
X64688Y-74925D03*
X63688Y-74925D03*
X62688Y-74925D03*
X61688Y-74925D03*
X60688Y-74925D03*
X59688Y-74925D03*
G54D17*
X31299Y-78429D03*
X31299Y-79429D03*
G54D18*
X31299Y-80429D03*
G54D17*
X94192Y-78429D03*
X94192Y-79429D03*
G54D18*
X94192Y-80429D03*
G54D16*
X90452Y-38574D03*
X90452Y-39574D03*
X34370Y-39980D03*
X34370Y-38980D03*
G54D11*
X76039Y-81444D03*
G54D12*
X78039Y-81444D03*
X80039Y-81444D03*
X82039Y-81444D03*
X82039Y-39318D03*
X80039Y-39318D03*
X78039Y-39318D03*
X76039Y-39318D03*
X84039Y-81444D03*
X84039Y-39318D03*
G54D19*
X35433Y-78393D03*
X35433Y-72393D03*
G54D20*
X66740Y-77559D03*
G54D21*
X65740Y-77559D03*
G54D19*
X40255Y-48374D03*
X40255Y-42374D03*
X89862Y-78393D03*
X89862Y-72393D03*
X85826Y-72393D03*
X85826Y-78393D03*
X42224Y-48374D03*
X42224Y-42374D03*
X73917Y-72393D03*
X73917Y-78393D03*
X78051Y-72393D03*
X78051Y-78393D03*
X82185Y-72393D03*
X82185Y-78393D03*
X48228Y-48374D03*
X48228Y-42374D03*
X46259Y-48374D03*
X46259Y-42374D03*
G54D20*
X51188Y-77362D03*
G54D21*
X50188Y-77362D03*
G54D22*
X95236Y-38370D03*
G54D23*
X95236Y-40370D03*
G54D22*
X29094Y-40370D03*
G54D23*
X29094Y-38370D03*
G54D20*
X29027Y-65874D03*
G54D21*
X30027Y-65874D03*
X29027Y-64874D03*
X30027Y-64874D03*
X29027Y-63874D03*
X30027Y-63874D03*
X29027Y-62874D03*
X30027Y-62874D03*
X29027Y-61874D03*
X30027Y-61874D03*
X29027Y-60874D03*
X30027Y-60874D03*
X29027Y-59874D03*
X30027Y-59874D03*
X29027Y-58874D03*
X30027Y-58874D03*
X29027Y-57874D03*
X30027Y-57874D03*
X29027Y-56874D03*
X30027Y-56874D03*
G54D24*
X29427Y-69374D03*
G54D21*
X29027Y-55874D03*
X30027Y-55874D03*
X29027Y-54874D03*
X30027Y-54874D03*
X29027Y-53874D03*
X30027Y-53874D03*
X29027Y-52874D03*
X30027Y-52874D03*
X29027Y-51874D03*
X30027Y-51874D03*
X29027Y-50874D03*
X30027Y-50874D03*
X29027Y-49874D03*
X30027Y-49874D03*
G54D24*
X29427Y-46374D03*
G54D20*
X93988Y-65874D03*
G54D21*
X94988Y-65874D03*
X93988Y-64874D03*
X94988Y-64874D03*
X93988Y-63874D03*
X94988Y-63874D03*
X93988Y-62874D03*
X94988Y-62874D03*
X93988Y-61874D03*
X94988Y-61874D03*
X93988Y-60874D03*
X94988Y-60874D03*
X93988Y-59874D03*
X94988Y-59874D03*
X93988Y-58874D03*
X94988Y-58874D03*
X93988Y-57874D03*
X94988Y-57874D03*
X93988Y-56874D03*
X94988Y-56874D03*
G54D24*
X94388Y-69374D03*
G54D21*
X93988Y-55874D03*
X94988Y-55874D03*
X93988Y-54874D03*
X94988Y-54874D03*
X93988Y-53874D03*
X94988Y-53874D03*
X93988Y-52874D03*
X94988Y-52874D03*
X93988Y-51874D03*
X94988Y-51874D03*
X93988Y-50874D03*
X94988Y-50874D03*
X93988Y-49874D03*
X94988Y-49874D03*
G54D24*
X94388Y-46374D03*
G54D20*
X63377Y-65897D03*
G54D21*
X64377Y-65897D03*
X63377Y-60897D03*
X64377Y-64897D03*
X63377Y-59897D03*
X64377Y-63897D03*
X63377Y-58897D03*
X64377Y-62897D03*
X63377Y-57897D03*
X64377Y-61897D03*
X63377Y-56897D03*
X64377Y-60897D03*
X63377Y-55897D03*
X64377Y-59897D03*
X63377Y-54897D03*
X64377Y-58897D03*
X63377Y-53897D03*
X64377Y-57897D03*
X63377Y-52897D03*
X64377Y-56897D03*
X63377Y-51897D03*
X64377Y-55897D03*
X63377Y-50897D03*
X64377Y-54897D03*
X64377Y-53897D03*
X64377Y-52897D03*
X64377Y-50897D03*
X63377Y-64897D03*
X63377Y-63897D03*
X63377Y-62897D03*
X63377Y-61897D03*
X64377Y-51897D03*
G54D25*
X29440Y-34570D03*
X29480Y-86196D03*
X94755Y-86204D03*
X94763Y-34771D03*
M02*
