G04 (created by PCBNEW (2013-07-07 BZR 4022)-stable) date 12/17/2014 10:58:18 AM*
%MOIN*%
G04 Gerber Fmt 3.4, Leading zero omitted, Abs format*
%FSLAX34Y34*%
G01*
G70*
G90*
G04 APERTURE LIST*
%ADD10C,0.00590551*%
%ADD11C,0.012*%
%ADD12C,0.015*%
%ADD13C,0.01125*%
%ADD14C,0.01*%
G04 APERTURE END LIST*
G54D10*
G54D11*
X26496Y-36366D02*
X26496Y-84397D01*
X61929Y-36366D02*
X61929Y-84397D01*
X26496Y-36366D02*
X61929Y-36366D01*
X61929Y-84397D02*
X26496Y-84397D01*
X62322Y-36366D02*
X62322Y-84397D01*
X97755Y-36366D02*
X97755Y-84397D01*
X62322Y-36366D02*
X97755Y-36366D01*
X97755Y-84397D02*
X62322Y-84397D01*
G54D12*
X30340Y-34570D02*
G75*
G03X30340Y-34570I-900J0D01*
G74*
G01*
X30380Y-86196D02*
G75*
G03X30380Y-86196I-900J0D01*
G74*
G01*
X95655Y-86204D02*
G75*
G03X95655Y-86204I-900J0D01*
G74*
G01*
X95663Y-34771D02*
G75*
G03X95663Y-34771I-900J0D01*
G74*
G01*
G54D13*
X27078Y-35780D02*
X27292Y-35780D01*
X27035Y-35980D02*
X27185Y-35280D01*
X27335Y-35980D01*
X27635Y-35613D02*
X27485Y-35613D01*
X27485Y-35980D02*
X27485Y-35280D01*
X27699Y-35280D01*
X28021Y-35613D02*
X27871Y-35613D01*
X27871Y-35980D02*
X27871Y-35280D01*
X28085Y-35280D01*
X28492Y-35980D02*
X28235Y-35980D01*
X28364Y-35980D02*
X28364Y-35280D01*
X28321Y-35380D01*
X28278Y-35446D01*
X28235Y-35480D01*
G54D14*
X42555Y-34551D02*
X42822Y-34551D01*
X42651Y-35251D01*
X42955Y-35218D02*
X43012Y-35251D01*
X43108Y-35251D01*
X43146Y-35218D01*
X43165Y-35185D01*
X43184Y-35118D01*
X43184Y-35051D01*
X43165Y-34985D01*
X43146Y-34951D01*
X43108Y-34918D01*
X43031Y-34885D01*
X42993Y-34851D01*
X42974Y-34818D01*
X42955Y-34751D01*
X42955Y-34685D01*
X42974Y-34618D01*
X42993Y-34585D01*
X43031Y-34551D01*
X43127Y-34551D01*
X43184Y-34585D01*
X43355Y-34885D02*
X43489Y-34885D01*
X43546Y-35251D02*
X43355Y-35251D01*
X43355Y-34551D01*
X43546Y-34551D01*
X43927Y-34585D02*
X43889Y-34551D01*
X43831Y-34551D01*
X43774Y-34585D01*
X43736Y-34651D01*
X43717Y-34718D01*
X43698Y-34851D01*
X43698Y-34951D01*
X43717Y-35085D01*
X43736Y-35151D01*
X43774Y-35218D01*
X43831Y-35251D01*
X43870Y-35251D01*
X43927Y-35218D01*
X43946Y-35185D01*
X43946Y-34951D01*
X43870Y-34951D01*
X44117Y-35251D02*
X44117Y-34551D01*
X44251Y-35051D01*
X44384Y-34551D01*
X44384Y-35251D01*
X44574Y-34885D02*
X44708Y-34885D01*
X44765Y-35251D02*
X44574Y-35251D01*
X44574Y-34551D01*
X44765Y-34551D01*
X44936Y-35251D02*
X44936Y-34551D01*
X45165Y-35251D01*
X45165Y-34551D01*
X45298Y-34551D02*
X45527Y-34551D01*
X45412Y-35251D02*
X45412Y-34551D01*
X45641Y-35218D02*
X45698Y-35251D01*
X45793Y-35251D01*
X45831Y-35218D01*
X45851Y-35185D01*
X45870Y-35118D01*
X45870Y-35051D01*
X45851Y-34985D01*
X45831Y-34951D01*
X45793Y-34918D01*
X45717Y-34885D01*
X45679Y-34851D01*
X45660Y-34818D01*
X45641Y-34751D01*
X45641Y-34685D01*
X45660Y-34618D01*
X45679Y-34585D01*
X45717Y-34551D01*
X45812Y-34551D01*
X45870Y-34585D01*
G54D13*
X62905Y-35780D02*
X63119Y-35780D01*
X62862Y-35980D02*
X63012Y-35280D01*
X63162Y-35980D01*
X63462Y-35613D02*
X63312Y-35613D01*
X63312Y-35980D02*
X63312Y-35280D01*
X63526Y-35280D01*
X63847Y-35613D02*
X63697Y-35613D01*
X63697Y-35980D02*
X63697Y-35280D01*
X63912Y-35280D01*
X64062Y-35346D02*
X64083Y-35313D01*
X64126Y-35280D01*
X64233Y-35280D01*
X64276Y-35313D01*
X64297Y-35346D01*
X64319Y-35413D01*
X64319Y-35480D01*
X64297Y-35580D01*
X64040Y-35980D01*
X64319Y-35980D01*
G54D14*
X78382Y-34551D02*
X78649Y-34551D01*
X78477Y-35251D01*
X78782Y-35218D02*
X78839Y-35251D01*
X78934Y-35251D01*
X78973Y-35218D01*
X78992Y-35185D01*
X79011Y-35118D01*
X79011Y-35051D01*
X78992Y-34985D01*
X78973Y-34951D01*
X78934Y-34918D01*
X78858Y-34885D01*
X78820Y-34851D01*
X78801Y-34818D01*
X78782Y-34751D01*
X78782Y-34685D01*
X78801Y-34618D01*
X78820Y-34585D01*
X78858Y-34551D01*
X78953Y-34551D01*
X79011Y-34585D01*
X79182Y-34885D02*
X79315Y-34885D01*
X79373Y-35251D02*
X79182Y-35251D01*
X79182Y-34551D01*
X79373Y-34551D01*
X79753Y-34585D02*
X79715Y-34551D01*
X79658Y-34551D01*
X79601Y-34585D01*
X79563Y-34651D01*
X79544Y-34718D01*
X79525Y-34851D01*
X79525Y-34951D01*
X79544Y-35085D01*
X79563Y-35151D01*
X79601Y-35218D01*
X79658Y-35251D01*
X79696Y-35251D01*
X79753Y-35218D01*
X79773Y-35185D01*
X79773Y-34951D01*
X79696Y-34951D01*
X79944Y-35251D02*
X79944Y-34551D01*
X80077Y-35051D01*
X80211Y-34551D01*
X80211Y-35251D01*
X80401Y-34885D02*
X80534Y-34885D01*
X80592Y-35251D02*
X80401Y-35251D01*
X80401Y-34551D01*
X80592Y-34551D01*
X80763Y-35251D02*
X80763Y-34551D01*
X80992Y-35251D01*
X80992Y-34551D01*
X81125Y-34551D02*
X81353Y-34551D01*
X81239Y-35251D02*
X81239Y-34551D01*
X81468Y-35218D02*
X81525Y-35251D01*
X81620Y-35251D01*
X81658Y-35218D01*
X81677Y-35185D01*
X81696Y-35118D01*
X81696Y-35051D01*
X81677Y-34985D01*
X81658Y-34951D01*
X81620Y-34918D01*
X81544Y-34885D01*
X81506Y-34851D01*
X81487Y-34818D01*
X81468Y-34751D01*
X81468Y-34685D01*
X81487Y-34618D01*
X81506Y-34585D01*
X81544Y-34551D01*
X81639Y-34551D01*
X81696Y-34585D01*
X30896Y-34717D02*
X30668Y-34717D01*
X30782Y-34717D02*
X30782Y-34317D01*
X30744Y-34374D01*
X30706Y-34412D01*
X30668Y-34431D01*
X31068Y-34717D02*
X31068Y-34317D01*
X31220Y-34317D01*
X31258Y-34336D01*
X31277Y-34355D01*
X31296Y-34393D01*
X31296Y-34450D01*
X31277Y-34488D01*
X31258Y-34507D01*
X31220Y-34526D01*
X31068Y-34526D01*
X31468Y-34717D02*
X31468Y-34317D01*
X31658Y-34717D02*
X31658Y-34317D01*
X31887Y-34717D01*
X31887Y-34317D01*
X29089Y-85158D02*
X28861Y-85158D01*
X28975Y-85158D02*
X28975Y-84758D01*
X28937Y-84815D01*
X28899Y-84853D01*
X28861Y-84873D01*
X29261Y-85158D02*
X29261Y-84758D01*
X29413Y-84758D01*
X29451Y-84777D01*
X29470Y-84796D01*
X29489Y-84834D01*
X29489Y-84892D01*
X29470Y-84930D01*
X29451Y-84949D01*
X29413Y-84968D01*
X29261Y-84968D01*
X29661Y-85158D02*
X29661Y-84758D01*
X29851Y-85158D02*
X29851Y-84758D01*
X30080Y-85158D01*
X30080Y-84758D01*
X94365Y-85166D02*
X94136Y-85166D01*
X94251Y-85166D02*
X94251Y-84766D01*
X94213Y-84823D01*
X94174Y-84861D01*
X94136Y-84880D01*
X94536Y-85166D02*
X94536Y-84766D01*
X94689Y-84766D01*
X94727Y-84785D01*
X94746Y-84804D01*
X94765Y-84842D01*
X94765Y-84899D01*
X94746Y-84938D01*
X94727Y-84957D01*
X94689Y-84976D01*
X94536Y-84976D01*
X94936Y-85166D02*
X94936Y-84766D01*
X95127Y-85166D02*
X95127Y-84766D01*
X95355Y-85166D01*
X95355Y-84766D01*
X94373Y-33733D02*
X94144Y-33733D01*
X94259Y-33733D02*
X94259Y-33333D01*
X94220Y-33390D01*
X94182Y-33428D01*
X94144Y-33447D01*
X94544Y-33733D02*
X94544Y-33333D01*
X94697Y-33333D01*
X94735Y-33352D01*
X94754Y-33371D01*
X94773Y-33409D01*
X94773Y-33466D01*
X94754Y-33504D01*
X94735Y-33524D01*
X94697Y-33543D01*
X94544Y-33543D01*
X94944Y-33733D02*
X94944Y-33333D01*
X95135Y-33733D02*
X95135Y-33333D01*
X95363Y-33733D01*
X95363Y-33333D01*
M02*
