G04 (created by PCBNEW (2013-07-07 BZR 4022)-stable) date 12/17/2014 10:58:18 AM*
%MOIN*%
G04 Gerber Fmt 3.4, Leading zero omitted, Abs format*
%FSLAX34Y34*%
G01*
G70*
G90*
G04 APERTURE LIST*
%ADD10C,0.00590551*%
%ADD11C,0.011811*%
%ADD12C,0.00393701*%
G04 APERTURE END LIST*
G54D10*
G54D11*
X24221Y-57985D02*
X24221Y-57648D01*
X24221Y-57816D02*
X24812Y-57816D01*
X24727Y-57760D01*
X24671Y-57704D01*
X24643Y-57648D01*
X24812Y-58182D02*
X24812Y-58548D01*
X24587Y-58351D01*
X24587Y-58435D01*
X24559Y-58491D01*
X24530Y-58519D01*
X24474Y-58548D01*
X24334Y-58548D01*
X24277Y-58519D01*
X24249Y-58491D01*
X24221Y-58435D01*
X24221Y-58266D01*
X24249Y-58210D01*
X24277Y-58182D01*
X24559Y-58885D02*
X24587Y-58829D01*
X24615Y-58801D01*
X24671Y-58773D01*
X24699Y-58773D01*
X24755Y-58801D01*
X24784Y-58829D01*
X24812Y-58885D01*
X24812Y-58998D01*
X24784Y-59054D01*
X24755Y-59082D01*
X24699Y-59110D01*
X24671Y-59110D01*
X24615Y-59082D01*
X24587Y-59054D01*
X24559Y-58998D01*
X24559Y-58885D01*
X24530Y-58829D01*
X24502Y-58801D01*
X24446Y-58773D01*
X24334Y-58773D01*
X24277Y-58801D01*
X24249Y-58829D01*
X24221Y-58885D01*
X24221Y-58998D01*
X24249Y-59054D01*
X24277Y-59082D01*
X24334Y-59110D01*
X24446Y-59110D01*
X24502Y-59082D01*
X24530Y-59054D01*
X24559Y-58998D01*
X24277Y-59363D02*
X24249Y-59391D01*
X24221Y-59363D01*
X24249Y-59335D01*
X24277Y-59363D01*
X24221Y-59363D01*
X24221Y-59954D02*
X24221Y-59616D01*
X24221Y-59785D02*
X24812Y-59785D01*
X24727Y-59729D01*
X24671Y-59672D01*
X24643Y-59616D01*
X24221Y-60235D02*
X24221Y-60347D01*
X24249Y-60404D01*
X24277Y-60432D01*
X24362Y-60488D01*
X24474Y-60516D01*
X24699Y-60516D01*
X24755Y-60488D01*
X24784Y-60460D01*
X24812Y-60404D01*
X24812Y-60291D01*
X24784Y-60235D01*
X24755Y-60207D01*
X24699Y-60179D01*
X24559Y-60179D01*
X24502Y-60207D01*
X24474Y-60235D01*
X24446Y-60291D01*
X24446Y-60404D01*
X24474Y-60460D01*
X24502Y-60488D01*
X24559Y-60516D01*
X24812Y-60882D02*
X24812Y-60938D01*
X24784Y-60994D01*
X24755Y-61022D01*
X24699Y-61050D01*
X24587Y-61079D01*
X24446Y-61079D01*
X24334Y-61050D01*
X24277Y-61022D01*
X24249Y-60994D01*
X24221Y-60938D01*
X24221Y-60882D01*
X24249Y-60825D01*
X24277Y-60797D01*
X24334Y-60769D01*
X24446Y-60741D01*
X24587Y-60741D01*
X24699Y-60769D01*
X24755Y-60797D01*
X24784Y-60825D01*
X24812Y-60882D01*
X24221Y-61782D02*
X24615Y-61782D01*
X24559Y-61782D02*
X24587Y-61810D01*
X24615Y-61866D01*
X24615Y-61950D01*
X24587Y-62007D01*
X24530Y-62035D01*
X24221Y-62035D01*
X24530Y-62035D02*
X24587Y-62063D01*
X24615Y-62119D01*
X24615Y-62203D01*
X24587Y-62260D01*
X24530Y-62288D01*
X24221Y-62288D01*
X24221Y-62569D02*
X24615Y-62569D01*
X24559Y-62569D02*
X24587Y-62597D01*
X24615Y-62653D01*
X24615Y-62738D01*
X24587Y-62794D01*
X24530Y-62822D01*
X24221Y-62822D01*
X24530Y-62822D02*
X24587Y-62850D01*
X24615Y-62906D01*
X24615Y-62991D01*
X24587Y-63047D01*
X24530Y-63075D01*
X24221Y-63075D01*
X24992Y-33173D02*
X24992Y-87578D01*
X26555Y-33173D02*
X23929Y-33173D01*
X26555Y-87578D02*
X23929Y-87578D01*
X24992Y-87578D02*
X24761Y-87135D01*
X24992Y-87578D02*
X25223Y-87135D01*
X24992Y-33173D02*
X24761Y-33616D01*
X24992Y-33173D02*
X25223Y-33616D01*
X59713Y-31896D02*
X59376Y-31895D01*
X59545Y-31895D02*
X59546Y-31305D01*
X59489Y-31389D01*
X59433Y-31445D01*
X59377Y-31473D01*
X60051Y-31559D02*
X59995Y-31531D01*
X59967Y-31503D01*
X59939Y-31446D01*
X59939Y-31418D01*
X59967Y-31362D01*
X59995Y-31334D01*
X60052Y-31306D01*
X60164Y-31306D01*
X60220Y-31334D01*
X60248Y-31362D01*
X60277Y-31419D01*
X60276Y-31447D01*
X60248Y-31503D01*
X60220Y-31531D01*
X60164Y-31559D01*
X60051Y-31559D01*
X59995Y-31587D01*
X59967Y-31615D01*
X59939Y-31671D01*
X59938Y-31784D01*
X59966Y-31840D01*
X59995Y-31868D01*
X60051Y-31896D01*
X60163Y-31897D01*
X60219Y-31869D01*
X60248Y-31840D01*
X60276Y-31784D01*
X60276Y-31672D01*
X60248Y-31615D01*
X60220Y-31587D01*
X60164Y-31559D01*
X60642Y-31307D02*
X60699Y-31307D01*
X60755Y-31335D01*
X60783Y-31363D01*
X60811Y-31420D01*
X60839Y-31532D01*
X60839Y-31673D01*
X60810Y-31785D01*
X60782Y-31841D01*
X60754Y-31869D01*
X60698Y-31897D01*
X60641Y-31897D01*
X60585Y-31869D01*
X60557Y-31841D01*
X60529Y-31785D01*
X60501Y-31672D01*
X60501Y-31532D01*
X60530Y-31419D01*
X60558Y-31363D01*
X60586Y-31335D01*
X60642Y-31307D01*
X61091Y-31842D02*
X61119Y-31870D01*
X61091Y-31898D01*
X61063Y-31870D01*
X61091Y-31842D01*
X61091Y-31898D01*
X61655Y-31309D02*
X61373Y-31308D01*
X61345Y-31589D01*
X61373Y-31561D01*
X61429Y-31533D01*
X61570Y-31533D01*
X61626Y-31562D01*
X61654Y-31590D01*
X61682Y-31646D01*
X61682Y-31787D01*
X61654Y-31843D01*
X61626Y-31871D01*
X61569Y-31899D01*
X61429Y-31899D01*
X61372Y-31871D01*
X61344Y-31842D01*
X61963Y-31900D02*
X62075Y-31900D01*
X62132Y-31872D01*
X62160Y-31844D01*
X62216Y-31760D01*
X62245Y-31647D01*
X62245Y-31422D01*
X62217Y-31366D01*
X62189Y-31338D01*
X62133Y-31309D01*
X62020Y-31309D01*
X61964Y-31337D01*
X61936Y-31365D01*
X61908Y-31422D01*
X61907Y-31562D01*
X61935Y-31618D01*
X61963Y-31647D01*
X62020Y-31675D01*
X62132Y-31675D01*
X62188Y-31647D01*
X62217Y-31619D01*
X62245Y-31563D01*
X62611Y-31310D02*
X62667Y-31310D01*
X62723Y-31339D01*
X62751Y-31367D01*
X62779Y-31423D01*
X62807Y-31536D01*
X62807Y-31676D01*
X62779Y-31789D01*
X62750Y-31845D01*
X62722Y-31873D01*
X62666Y-31901D01*
X62610Y-31901D01*
X62554Y-31873D01*
X62526Y-31844D01*
X62497Y-31788D01*
X62470Y-31676D01*
X62470Y-31535D01*
X62498Y-31423D01*
X62526Y-31366D01*
X62555Y-31338D01*
X62611Y-31310D01*
X63510Y-31902D02*
X63510Y-31509D01*
X63510Y-31565D02*
X63538Y-31537D01*
X63595Y-31509D01*
X63679Y-31509D01*
X63735Y-31537D01*
X63763Y-31594D01*
X63763Y-31903D01*
X63763Y-31594D02*
X63792Y-31537D01*
X63848Y-31509D01*
X63932Y-31509D01*
X63988Y-31538D01*
X64016Y-31594D01*
X64016Y-31903D01*
X64297Y-31904D02*
X64298Y-31510D01*
X64298Y-31566D02*
X64326Y-31538D01*
X64382Y-31510D01*
X64466Y-31510D01*
X64523Y-31539D01*
X64551Y-31595D01*
X64550Y-31904D01*
X64551Y-31595D02*
X64579Y-31539D01*
X64635Y-31511D01*
X64720Y-31511D01*
X64776Y-31539D01*
X64804Y-31595D01*
X64803Y-31905D01*
X26555Y-32188D02*
X97653Y-32196D01*
X26555Y-33177D02*
X26555Y-31125D01*
X97653Y-33185D02*
X97653Y-31133D01*
X97653Y-32196D02*
X97210Y-32427D01*
X97653Y-32196D02*
X97210Y-31965D01*
X26555Y-32188D02*
X26998Y-32419D01*
X26555Y-32188D02*
X26998Y-31958D01*
G54D12*
X31645Y-87622D02*
X26559Y-87622D01*
X97692Y-87622D02*
X97681Y-87622D01*
X97692Y-33173D02*
X97692Y-87622D01*
X97681Y-87622D02*
X97681Y-87618D01*
X31641Y-87622D02*
X97681Y-87622D01*
X26551Y-36401D02*
X26551Y-87622D01*
X26551Y-33177D02*
X97688Y-33177D01*
X26551Y-33291D02*
X26551Y-33177D01*
X26551Y-36401D02*
X26551Y-33291D01*
M02*
